SplineFontDB: 3.2
FontName: OpenGOSTtypeB-Regular
FullName: OpenGOST type B Regular
FamilyName: OpenGOST type B
Weight: Regular
Copyright: Copyright (c) 2022, Levon Melikyan <lmelikyan@gmail.com>\n\nCreated with FontForge 2.0 (http://fontforge.sf.net)
Version: 0.7
ItalicAngle: 0
UnderlinePosition: -150
UnderlineWidth: 100
Ascent: 1400
Descent: 300
InvalidEm: 0
sfntRevision: 0x00004ccc
LayerCount: 2
Layer: 0 1 "Back" 1
Layer: 1 1 "Fore" 0
XUID: [1021 495 70768783 16707836]
StyleMap: 0x0040
FSType: 0
OS2Version: 4
OS2_WeightWidthSlopeOnly: 0
OS2_UseTypoMetrics: 1
CreationTime: 1323276222
ModificationTime: 1690787773
PfmFamily: 17
TTFWeight: 400
TTFWidth: 5
LineGap: 0
VLineGap: 0
Panose: 2 0 5 3 0 0 0 0 0 0
OS2TypoAscent: 1400
OS2TypoAOffset: 0
OS2TypoDescent: -300
OS2TypoDOffset: 0
OS2TypoLinegap: 0
OS2WinAscent: 1400
OS2WinAOffset: 0
OS2WinDescent: 300
OS2WinDOffset: 0
HheadAscent: 1400
HheadAOffset: 0
HheadDescent: -300
HheadDOffset: 0
OS2SubXSize: 1105
OS2SubYSize: 1189
OS2SubXOff: 0
OS2SubYOff: 238
OS2SupXSize: 1105
OS2SupYSize: 1189
OS2SupXOff: 0
OS2SupYOff: 815
OS2StrikeYSize: 84
OS2StrikeYPos: 439
OS2CapHeight: 1000
OS2XHeight: 700
OS2Vendor: 'PfEd'
OS2CodePages: 00000004.00000000
OS2UnicodeRanges: 800002a7.100024fb.00000000.00000000
Lookup: 258 0 0 "'kern' Horizontal Kerning" { "'kern' Horizontal Kerning for Latin" [255,0,0] "'kern' Horizontal Kerning for Cyrillic" [255,0,0] "'kern' Horizontal Kerning for Armenian" [255,0,2] } ['kern' ('DFLT' <'dflt' > 'armn' <'dflt' > 'cyrl' <'dflt' > 'grek' <'dflt' > 'latn' <'dflt' > ) ]
MarkAttachClasses: 1
DEI: 91125
KernClass2: 27 18 "'kern' Horizontal Kerning for Armenian"
 7 uni0531
 15 uni0548 uni0555
 71 uni0535 uni0537 uni053B uni0561 uni0565 uni0567 uni056B uni0578 uni0585
 23 uni0533 uni0534 uni054C
 79 uni053D uni053F uni056D uni056E uni0570 uni0571 uni0576 uni057D uni057F uni0583
 15 uni0542 uni054E
 15 uni0539 uni053A
 7 uni053C
 7 uni0546
 7 uni0547
 7 uni0550
 7 uni0552
 7 uni0544
 7 uni0574

StartChar: .notdef
Encoding: 65536 -1 0
Width: 618
Flags: W
LayerCount: 2
Fore
SplineSet
56 0 m 1,0,-1
 56 1133 l 1,1,-1
 506 1133 l 1,2,-1
 506 0 l 1,3,-1
 56 0 l 1,0,-1
112 56 m 1,4,-1
 450 56 l 1,5,-1
 450 1077 l 1,6,-1
 112 1077 l 1,7,-1
 112 56 l 1,4,-1
EndSplineSet
Validated: 1
EndChar

StartChar: exclam
Encoding: 33 33 4
Width: 300
Flags: W
LayerCount: 2
Fore
SplineSet
150 1000 m 128,-1,1
 171 1000 171 1000 185.5 985.5 c 128,-1,2
 200 971 200 971 200 950 c 2,3,-1
 200 300 l 2,4,5
 200 279 200 279 185.5 264.5 c 128,-1,6
 171 250 171 250 150 250 c 128,-1,7
 129 250 129 250 114.5 264.5 c 128,-1,8
 100 279 100 279 100 300 c 2,9,-1
 100 950 l 2,10,11
 100 971 100 971 114.5 985.5 c 128,-1,0
 129 1000 129 1000 150 1000 c 128,-1,1
100 50 m 128,-1,13
 100 71 100 71 114.5 85.5 c 128,-1,14
 129 100 129 100 150 100 c 128,-1,15
 171 100 171 100 185.5 85.5 c 128,-1,16
 200 71 200 71 200 50 c 128,-1,17
 200 29 200 29 185.5 14.5 c 128,-1,18
 171 0 171 0 150 0 c 128,-1,19
 129 0 129 0 114.5 14.5 c 128,-1,12
 100 29 100 29 100 50 c 128,-1,13
EndSplineSet
Validated: 1
EndChar

StartChar: numbersign
Encoding: 35 35 6
Width: 900
Flags: W
LayerCount: 2
Fore
SplineSet
300 1000 m 128,-1,1
 321 1000 321 1000 335.5 985.5 c 128,-1,2
 350 971 350 971 350 950 c 2,3,-1
 350 700 l 1,4,-1
 550 700 l 1,5,-1
 550 950 l 2,6,7
 550 971 550 971 564.5 985.5 c 128,-1,8
 579 1000 579 1000 600 1000 c 128,-1,9
 621 1000 621 1000 635.5 985.5 c 128,-1,10
 650 971 650 971 650 950 c 2,11,-1
 650 700 l 1,12,-1
 750 700 l 2,13,14
 771 700 771 700 785.5 685.5 c 128,-1,15
 800 671 800 671 800 650 c 128,-1,16
 800 629 800 629 785.5 614.5 c 128,-1,17
 771 600 771 600 750 600 c 2,18,-1
 650 600 l 1,19,-1
 650 400 l 1,20,-1
 750 400 l 2,21,22
 771 400 771 400 785.5 385.5 c 128,-1,23
 800 371 800 371 800 350 c 128,-1,24
 800 329 800 329 785.5 314.5 c 128,-1,25
 771 300 771 300 750 300 c 2,26,-1
 650 300 l 1,27,-1
 650 50 l 2,28,29
 650 29 650 29 635.5 14.5 c 128,-1,30
 621 0 621 0 600 0 c 128,-1,31
 579 0 579 0 564.5 14.5 c 128,-1,32
 550 29 550 29 550 50 c 2,33,-1
 550 300 l 1,34,-1
 350 300 l 1,35,-1
 350 50 l 2,36,37
 350 29 350 29 335.5 14.5 c 128,-1,38
 321 0 321 0 300 0 c 128,-1,39
 279 0 279 0 264.5 14.5 c 128,-1,40
 250 29 250 29 250 50 c 2,41,-1
 250 300 l 1,42,-1
 150 300 l 2,43,44
 129 300 129 300 114.5 314.5 c 128,-1,45
 100 329 100 329 100 350 c 128,-1,46
 100 371 100 371 114.5 385.5 c 128,-1,47
 129 400 129 400 150 400 c 2,48,-1
 250 400 l 1,49,-1
 250 600 l 1,50,-1
 150 600 l 2,51,52
 129 600 129 600 114.5 614.5 c 128,-1,53
 100 629 100 629 100 650 c 128,-1,54
 100 671 100 671 114.5 685.5 c 128,-1,55
 129 700 129 700 150 700 c 2,56,-1
 250 700 l 1,57,-1
 250 950 l 2,58,59
 250 971 250 971 264.5 985.5 c 128,-1,0
 279 1000 279 1000 300 1000 c 128,-1,1
350 600 m 1,60,-1
 350 400 l 1,61,-1
 550 400 l 1,62,-1
 550 600 l 1,63,-1
 350 600 l 1,60,-1
EndSplineSet
Validated: 1
EndChar

StartChar: dollar
Encoding: 36 36 7
Width: 800
Flags: W
LayerCount: 2
Fore
SplineSet
400 1100 m 128,-1,1
 421 1100 421 1100 435.5 1085.5 c 128,-1,2
 450 1071 450 1071 450 1050 c 2,3,-1
 450 999 l 1,4,5
 558 994 558 994 672 945 c 0,6,7
 700 933 700 933 700 900 c 0,8,9
 700 879 700 879 685.5 864.5 c 128,-1,10
 671 850 671 850 650 850 c 0,11,12
 640 850 640 850 628 855 c 0,13,14
 533 894 533 894 450 899 c 1,15,-1
 450 526 l 1,16,-1
 600 422 l 2,17,18
 639 395 639 395 669.5 342 c 128,-1,19
 700 289 700 289 700 220 c 0,20,21
 700 185 700 185 687.5 152 c 128,-1,22
 675 119 675 119 648 87.5 c 128,-1,23
 621 56 621 56 570 34 c 128,-1,24
 519 12 519 12 450 4 c 1,25,-1
 450 -50 l 2,26,27
 450 -71 450 -71 435.5 -85.5 c 128,-1,28
 421 -100 421 -100 400 -100 c 128,-1,29
 379 -100 379 -100 364.5 -85.5 c 128,-1,30
 350 -71 350 -71 350 -50 c 2,31,-1
 350 1 l 1,32,33
 242 6 242 6 128 55 c 0,34,35
 100 67 100 67 100 100 c 0,36,37
 100 121 100 121 114.5 135.5 c 128,-1,38
 129 150 129 150 150 150 c 0,39,40
 160 150 160 150 172 145 c 0,41,42
 267 106 267 106 350 101 c 1,43,-1
 350 473 l 1,44,-1
 200 577 l 2,45,46
 161 604 161 604 130.5 657.5 c 128,-1,47
 100 711 100 711 100 780 c 0,48,49
 100 815 100 815 112.5 848 c 128,-1,50
 125 881 125 881 152 912.5 c 128,-1,51
 179 944 179 944 230 966 c 128,-1,52
 281 988 281 988 350 996 c 1,53,-1
 350 1050 l 2,54,55
 350 1071 350 1071 364.5 1085.5 c 128,-1,0
 379 1100 379 1100 400 1100 c 128,-1,1
350 896 m 1,56,57
 277 886 277 886 238.5 856 c 128,-1,58
 200 826 200 826 200 780 c 0,59,60
 200 740 200 740 219.5 706 c 128,-1,61
 239 672 239 672 267 653 c 2,62,-1
 350 595 l 1,63,-1
 350 896 l 1,56,57
450 404 m 1,64,-1
 450 104 l 1,65,66
 523 114 523 114 561.5 144 c 128,-1,67
 600 174 600 174 600 220 c 0,68,69
 600 300 600 300 533 346 c 2,70,-1
 450 404 l 1,64,-1
EndSplineSet
Validated: 1
EndChar

StartChar: percent
Encoding: 37 37 8
Width: 1500
Flags: W
LayerCount: 2
Fore
SplineSet
325 1000 m 128,-1,1
 418 1000 418 1000 484 934 c 128,-1,2
 550 868 550 868 550 775 c 128,-1,3
 550 682 550 682 484 616 c 128,-1,4
 418 550 418 550 325 550 c 128,-1,5
 232 550 232 550 166 616 c 128,-1,6
 100 682 100 682 100 775 c 128,-1,7
 100 868 100 868 166 934 c 128,-1,0
 232 1000 232 1000 325 1000 c 128,-1,1
325 900 m 128,-1,9
 273 900 273 900 236.5 863.5 c 128,-1,10
 200 827 200 827 200 775 c 128,-1,11
 200 723 200 723 236.5 686.5 c 128,-1,12
 273 650 273 650 325 650 c 128,-1,13
 377 650 377 650 413.5 686.5 c 128,-1,14
 450 723 450 723 450 775 c 128,-1,15
 450 827 450 827 413.5 863.5 c 128,-1,8
 377 900 377 900 325 900 c 128,-1,9
1050 1000 m 0,16,17
 1071 1000 1071 1000 1085.5 985.5 c 128,-1,18
 1100 971 1100 971 1100 950 c 0,19,20
 1100 935 1100 935 1092 922 c 2,21,-1
 492 22 l 2,22,23
 477 0 477 0 450 0 c 0,24,25
 429 0 429 0 414.5 14.5 c 128,-1,26
 400 29 400 29 400 50 c 0,27,28
 400 65 400 65 408 78 c 2,29,-1
 1008 978 l 2,30,31
 1023 1000 1023 1000 1050 1000 c 0,16,17
1175 450 m 128,-1,33
 1268 450 1268 450 1334 384 c 128,-1,34
 1400 318 1400 318 1400 225 c 128,-1,35
 1400 132 1400 132 1334 66 c 128,-1,36
 1268 0 1268 0 1175 0 c 128,-1,37
 1082 0 1082 0 1016 66 c 128,-1,38
 950 132 950 132 950 225 c 128,-1,39
 950 318 950 318 1016 384 c 128,-1,32
 1082 450 1082 450 1175 450 c 128,-1,33
1175 350 m 128,-1,41
 1123 350 1123 350 1086.5 313.5 c 128,-1,42
 1050 277 1050 277 1050 225 c 128,-1,43
 1050 173 1050 173 1086.5 136.5 c 128,-1,44
 1123 100 1123 100 1175 100 c 128,-1,45
 1227 100 1227 100 1263.5 136.5 c 128,-1,46
 1300 173 1300 173 1300 225 c 128,-1,47
 1300 277 1300 277 1263.5 313.5 c 128,-1,40
 1227 350 1227 350 1175 350 c 128,-1,41
EndSplineSet
Validated: 1
EndChar

StartChar: ampersand
Encoding: 38 38 9
Width: 900
Flags: W
LayerCount: 2
Fore
SplineSet
400 1030 m 128,-1,1
 482 1030 482 1030 541 971 c 128,-1,2
 600 912 600 912 600 830 c 0,3,4
 600 745 600 745 540 687 c 2,5,-1
 442 591 l 1,6,-1
 660 270 l 1,7,-1
 712 332 l 2,8,9
 727 350 727 350 750 350 c 0,10,11
 771 350 771 350 785.5 335.5 c 128,-1,12
 800 321 800 321 800 300 c 0,13,14
 800 283 800 283 788 268 c 2,15,-1
 719 184 l 1,16,-1
 791 78 l 2,17,18
 800 64 800 64 800 50 c 0,19,20
 800 29 800 29 785.5 14.5 c 128,-1,21
 771 0 771 0 750 0 c 0,22,23
 724 0 724 0 709 22 c 2,24,-1
 652 104 l 1,25,-1
 631 78 l 2,26,27
 589 28 589 28 529 -1 c 128,-1,28
 469 -30 469 -30 400 -30 c 0,29,30
 276 -30 276 -30 188 58 c 128,-1,31
 100 146 100 146 100 270 c 0,32,33
 100 397 100 397 190 484 c 2,34,-1
 312 604 l 1,35,-1
 235 717 l 2,36,37
 200 768 200 768 200 830 c 0,38,39
 200 912 200 912 259 971 c 128,-1,0
 318 1030 318 1030 400 1030 c 128,-1,1
400 930 m 128,-1,41
 359 930 359 930 329.5 900.5 c 128,-1,42
 300 871 300 871 300 830 c 0,43,44
 300 799 300 799 317 774 c 2,45,-1
 385 675 l 1,46,-1
 470 759 l 2,47,48
 500 787 500 787 500 830 c 0,49,50
 500 871 500 871 470.5 900.5 c 128,-1,40
 441 930 441 930 400 930 c 128,-1,41
369 520 m 1,51,-1
 260 413 l 2,52,53
 200 355 200 355 200 270 c 0,54,55
 200 188 200 188 259 129 c 128,-1,56
 318 70 318 70 400 70 c 0,57,58
 493 70 493 70 554 142 c 2,59,-1
 594 190 l 1,60,-1
 369 520 l 1,51,-1
EndSplineSet
Validated: 1
EndChar

StartChar: quotesingle
Encoding: 39 39 10
Width: 250
Flags: W
LayerCount: 2
Fore
SplineSet
150 1000 m 0,0,1
 171 1000 171 1000 185.5 985.5 c 128,-1,2
 200 971 200 971 200 950 c 0,3,4
 200 942 200 942 199 938 c 2,5,-1
 149 738 l 2,6,7
 145 722 145 722 131 711 c 128,-1,8
 117 700 117 700 100 700 c 0,9,10
 79 700 79 700 64.5 714.5 c 128,-1,11
 50 729 50 729 50 750 c 0,12,13
 50 758 50 758 51 762 c 2,14,-1
 101 962 l 2,15,16
 105 978 105 978 119 989 c 128,-1,17
 133 1000 133 1000 150 1000 c 0,0,1
EndSplineSet
Validated: 1
EndChar

StartChar: parenleft
Encoding: 40 40 11
Width: 400
Flags: W
LayerCount: 2
Fore
SplineSet
250 1100 m 0,0,1
 271 1100 271 1100 285.5 1085.5 c 128,-1,2
 300 1071 300 1071 300 1050 c 0,3,4
 300 1040 300 1040 296 1031 c 0,5,6
 200 789 200 789 200 500 c 128,-1,7
 200 211 200 211 296 -31 c 0,8,9
 300 -40 300 -40 300 -50 c 0,10,11
 300 -71 300 -71 285.5 -85.5 c 128,-1,12
 271 -100 271 -100 250 -100 c 0,13,14
 216 -100 216 -100 204 -68 c 0,15,16
 100 193 100 193 100 500 c 128,-1,17
 100 807 100 807 204 1068 c 0,18,19
 216 1100 216 1100 250 1100 c 0,0,1
EndSplineSet
Validated: 1
EndChar

StartChar: parenright
Encoding: 41 41 12
Width: 400
Flags: W
LayerCount: 2
Fore
SplineSet
150 1100 m 0,0,1
 184 1100 184 1100 196 1068 c 0,2,3
 300 807 300 807 300 500 c 128,-1,4
 300 193 300 193 196 -68 c 0,5,6
 184 -100 184 -100 150 -100 c 0,7,8
 129 -100 129 -100 114.5 -85.5 c 128,-1,9
 100 -71 100 -71 100 -50 c 0,10,11
 100 -40 100 -40 104 -31 c 0,12,13
 200 211 200 211 200 500 c 128,-1,14
 200 789 200 789 104 1031 c 0,15,16
 100 1040 100 1040 100 1050 c 0,17,18
 100 1071 100 1071 114.5 1085.5 c 128,-1,19
 129 1100 129 1100 150 1100 c 0,0,1
EndSplineSet
Validated: 1
EndChar

StartChar: asterisk
Encoding: 42 42 13
Width: 500
Flags: W
LayerCount: 2
Fore
SplineSet
150 1000 m 0,0,1
 177 1000 177 1000 192 978 c 2,2,-1
 250 890 l 1,3,-1
 308 978 l 2,4,5
 323 1000 323 1000 350 1000 c 0,6,7
 371 1000 371 1000 385.5 985.5 c 128,-1,8
 400 971 400 971 400 950 c 0,9,10
 400 935 400 935 392 922 c 2,11,-1
 343 850 l 1,12,-1
 400 850 l 2,13,14
 421 850 421 850 435.5 835.5 c 128,-1,15
 450 821 450 821 450 800 c 128,-1,16
 450 779 450 779 435.5 764.5 c 128,-1,17
 421 750 421 750 400 750 c 2,18,-1
 343 750 l 1,19,-1
 392 678 l 2,20,21
 400 665 400 665 400 650 c 0,22,23
 400 629 400 629 385.5 614.5 c 128,-1,24
 371 600 371 600 350 600 c 0,25,26
 323 600 323 600 308 622 c 2,27,-1
 250 710 l 1,28,-1
 192 622 l 2,29,30
 177 600 177 600 150 600 c 0,31,32
 129 600 129 600 114.5 614.5 c 128,-1,33
 100 629 100 629 100 650 c 0,34,35
 100 665 100 665 108 678 c 2,36,-1
 157 750 l 1,37,-1
 100 750 l 2,38,39
 79 750 79 750 64.5 764.5 c 128,-1,40
 50 779 50 779 50 800 c 128,-1,41
 50 821 50 821 64.5 835.5 c 128,-1,42
 79 850 79 850 100 850 c 2,43,-1
 157 850 l 1,44,-1
 108 922 l 2,45,46
 100 935 100 935 100 950 c 0,47,48
 100 971 100 971 114.5 985.5 c 128,-1,49
 129 1000 129 1000 150 1000 c 0,0,1
EndSplineSet
Validated: 1
EndChar

StartChar: plus
Encoding: 43 43 14
Width: 700
Flags: W
LayerCount: 2
Fore
SplineSet
350 600 m 128,-1,1
 371 600 371 600 385.5 585.5 c 128,-1,2
 400 571 400 571 400 550 c 2,3,-1
 400 400 l 1,4,-1
 550 400 l 2,5,6
 571 400 571 400 585.5 385.5 c 128,-1,7
 600 371 600 371 600 350 c 128,-1,8
 600 329 600 329 585.5 314.5 c 128,-1,9
 571 300 571 300 550 300 c 2,10,-1
 400 300 l 1,11,-1
 400 150 l 2,12,13
 400 129 400 129 385.5 114.5 c 128,-1,14
 371 100 371 100 350 100 c 128,-1,15
 329 100 329 100 314.5 114.5 c 128,-1,16
 300 129 300 129 300 150 c 2,17,-1
 300 300 l 1,18,-1
 150 300 l 2,19,20
 129 300 129 300 114.5 314.5 c 128,-1,21
 100 329 100 329 100 350 c 128,-1,22
 100 371 100 371 114.5 385.5 c 128,-1,23
 129 400 129 400 150 400 c 2,24,-1
 300 400 l 1,25,-1
 300 550 l 2,26,27
 300 571 300 571 314.5 585.5 c 128,-1,0
 329 600 329 600 350 600 c 128,-1,1
EndSplineSet
Validated: 1
EndChar

StartChar: comma
Encoding: 44 44 15
Width: 300
Flags: W
LayerCount: 2
Fore
SplineSet
150 100 m 0,0,1
 171 100 171 100 185.5 85.5 c 128,-1,2
 200 71 200 71 200 50 c 0,3,4
 200 42 200 42 199 38 c 2,5,-1
 149 -162 l 2,6,7
 145 -178 145 -178 131 -189 c 128,-1,8
 117 -200 117 -200 100 -200 c 0,9,10
 79 -200 79 -200 64.5 -185.5 c 128,-1,11
 50 -171 50 -171 50 -150 c 0,12,13
 50 -142 50 -142 51 -138 c 2,14,-1
 101 62 l 2,15,16
 105 78 105 78 119 89 c 128,-1,17
 133 100 133 100 150 100 c 0,0,1
EndSplineSet
Validated: 1
EndChar

StartChar: hyphen
Encoding: 45 45 16
Width: 700
Flags: W
LayerCount: 2
Fore
SplineSet
150 400 m 2,0,-1
 550 400 l 2,1,2
 571 400 571 400 585.5 385.5 c 128,-1,3
 600 371 600 371 600 350 c 128,-1,4
 600 329 600 329 585.5 314.5 c 128,-1,5
 571 300 571 300 550 300 c 2,6,-1
 150 300 l 2,7,8
 129 300 129 300 114.5 314.5 c 128,-1,9
 100 329 100 329 100 350 c 128,-1,10
 100 371 100 371 114.5 385.5 c 128,-1,11
 129 400 129 400 150 400 c 2,0,-1
EndSplineSet
Validated: 1
EndChar

StartChar: period
Encoding: 46 46 17
Width: 300
Flags: W
LayerCount: 2
Fore
SplineSet
200 50 m 128,-1,1
 200 29 200 29 185.5 14.5 c 128,-1,2
 171 0 171 0 150 0 c 128,-1,3
 129 0 129 0 114.5 14.5 c 128,-1,4
 100 29 100 29 100 50 c 128,-1,5
 100 71 100 71 114.5 85.5 c 128,-1,6
 129 100 129 100 150 100 c 128,-1,7
 171 100 171 100 185.5 85.5 c 128,-1,0
 200 71 200 71 200 50 c 128,-1,1
EndSplineSet
Validated: 1
EndChar

StartChar: slash
Encoding: 47 47 18
Width: 800
Flags: W
LayerCount: 2
Fore
SplineSet
650 1300 m 0,0,1
 671 1300 671 1300 685.5 1285.5 c 128,-1,2
 700 1271 700 1271 700 1250 c 0,3,4
 700 1240 700 1240 697 1233 c 2,5,-1
 197 -167 l 2,6,7
 185 -200 185 -200 150 -200 c 0,8,9
 129 -200 129 -200 114.5 -185.5 c 128,-1,10
 100 -171 100 -171 100 -150 c 0,11,12
 100 -140 100 -140 103 -133 c 2,13,-1
 603 1267 l 2,14,15
 615 1300 615 1300 650 1300 c 0,0,1
EndSplineSet
Validated: 1
EndChar

StartChar: zero
Encoding: 48 48 19
Width: 700
Flags: W
LayerCount: 2
Fore
SplineSet
350 1030 m 128,-1,1
 454 1030 454 1030 527 957 c 128,-1,2
 600 884 600 884 600 780 c 2,3,-1
 600 220 l 2,4,5
 600 116 600 116 527 43 c 128,-1,6
 454 -30 454 -30 350 -30 c 128,-1,7
 246 -30 246 -30 173 43 c 128,-1,8
 100 116 100 116 100 220 c 2,9,-1
 100 780 l 2,10,11
 100 884 100 884 173 957 c 128,-1,0
 246 1030 246 1030 350 1030 c 128,-1,1
350 930 m 128,-1,13
 288 930 288 930 244 886 c 128,-1,14
 200 842 200 842 200 780 c 2,15,-1
 200 220 l 2,16,17
 200 158 200 158 244 114 c 128,-1,18
 288 70 288 70 350 70 c 128,-1,19
 412 70 412 70 456 114 c 128,-1,20
 500 158 500 158 500 220 c 2,21,-1
 500 780 l 2,22,23
 500 842 500 842 456 886 c 128,-1,12
 412 930 412 930 350 930 c 128,-1,13
EndSplineSet
Validated: 1
EndChar

StartChar: one
Encoding: 49 49 20
Width: 450
Flags: W
LayerCount: 2
Fore
SplineSet
300 1000 m 0,0,1
 321 1000 321 1000 335.5 985.5 c 128,-1,2
 350 971 350 971 350 950 c 2,3,-1
 350 50 l 2,4,5
 350 29 350 29 335.5 14.5 c 128,-1,6
 321 0 321 0 300 0 c 128,-1,7
 279 0 279 0 264.5 14.5 c 128,-1,8
 250 29 250 29 250 50 c 2,9,-1
 250 829 l 1,10,-1
 135 715 l 2,11,12
 120 700 120 700 100 700 c 0,13,14
 79 700 79 700 64.5 714.5 c 128,-1,15
 50 729 50 729 50 750 c 0,16,17
 50 770 50 770 65 785 c 2,18,-1
 265 985 l 2,19,20
 280 1000 280 1000 300 1000 c 0,0,1
EndSplineSet
Validated: 1
EndChar

StartChar: two
Encoding: 50 50 21
Width: 700
Flags: W
LayerCount: 2
Fore
SplineSet
350 1030 m 0,0,1
 454 1030 454 1030 527 957 c 128,-1,2
 600 884 600 884 600 780 c 0,3,4
 600 712 600 712 565 653 c 2,5,-1
 238 100 l 1,6,-1
 550 100 l 2,7,8
 571 100 571 100 585.5 85.5 c 128,-1,9
 600 71 600 71 600 50 c 128,-1,10
 600 29 600 29 585.5 14.5 c 128,-1,11
 571 0 571 0 550 0 c 2,12,-1
 150 0 l 2,13,14
 129 0 129 0 114.5 14.5 c 128,-1,15
 100 29 100 29 100 50 c 0,16,17
 100 64 100 64 107 76 c 2,18,-1
 479 704 l 2,19,20
 500 740 500 740 500 780 c 0,21,22
 500 842 500 842 456 886 c 128,-1,23
 412 930 412 930 350 930 c 0,24,25
 289 930 289 930 253 904 c 0,26,27
 222 881 222 881 195 828 c 0,28,29
 181 800 181 800 150 800 c 0,30,31
 129 800 129 800 114.5 814.5 c 128,-1,32
 100 829 100 829 100 850 c 0,33,34
 100 860 100 860 105 872 c 0,35,36
 144 950 144 950 195 986 c 0,37,38
 257 1030 257 1030 350 1030 c 0,0,1
EndSplineSet
Validated: 1
EndChar

StartChar: three
Encoding: 51 51 22
Width: 700
Flags: W
LayerCount: 2
Fore
SplineSet
150 1000 m 2,0,-1
 350 1000 l 2,1,2
 454 1000 454 1000 527 927 c 128,-1,3
 600 854 600 854 600 750 c 0,4,5
 600 690 600 690 573.5 637.5 c 128,-1,6
 547 585 547 585 500 550 c 1,7,8
 547 515 547 515 573.5 462.5 c 128,-1,9
 600 410 600 410 600 350 c 2,10,-1
 600 250 l 2,11,12
 600 146 600 146 527 73 c 128,-1,13
 454 0 454 0 350 0 c 2,14,-1
 150 0 l 2,15,16
 129 0 129 0 114.5 14.5 c 128,-1,17
 100 29 100 29 100 50 c 128,-1,18
 100 71 100 71 114.5 85.5 c 128,-1,19
 129 100 129 100 150 100 c 2,20,-1
 350 100 l 2,21,22
 412 100 412 100 456 144 c 128,-1,23
 500 188 500 188 500 250 c 2,24,-1
 500 350 l 2,25,26
 500 412 500 412 456 456 c 128,-1,27
 412 500 412 500 350 500 c 2,28,-1
 250 500 l 2,29,30
 229 500 229 500 214.5 514.5 c 128,-1,31
 200 529 200 529 200 550 c 128,-1,32
 200 571 200 571 214.5 585.5 c 128,-1,33
 229 600 229 600 250 600 c 2,34,-1
 350 600 l 2,35,36
 412 600 412 600 456 644 c 128,-1,37
 500 688 500 688 500 750 c 128,-1,38
 500 812 500 812 456 856 c 128,-1,39
 412 900 412 900 350 900 c 2,40,-1
 150 900 l 2,41,42
 129 900 129 900 114.5 914.5 c 128,-1,43
 100 929 100 929 100 950 c 128,-1,44
 100 971 100 971 114.5 985.5 c 128,-1,45
 129 1000 129 1000 150 1000 c 2,0,-1
EndSplineSet
Validated: 1
EndChar

StartChar: four
Encoding: 52 52 23
Width: 700
Flags: W
LayerCount: 2
Fore
SplineSet
320 1000 m 0,0,1
 341 1000 341 1000 355.5 985.5 c 128,-1,2
 370 971 370 971 370 950 c 0,3,4
 370 944 370 944 368 936 c 2,5,-1
 186 300 l 1,6,-1
 420 300 l 1,7,-1
 420 450 l 2,8,9
 420 471 420 471 434.5 485.5 c 128,-1,10
 449 500 449 500 470 500 c 128,-1,11
 491 500 491 500 505.5 485.5 c 128,-1,12
 520 471 520 471 520 450 c 2,13,-1
 520 300 l 1,14,-1
 620 300 l 2,15,16
 641 300 641 300 655.5 285.5 c 128,-1,17
 670 271 670 271 670 250 c 128,-1,18
 670 229 670 229 655.5 214.5 c 128,-1,19
 641 200 641 200 620 200 c 2,20,-1
 520 200 l 1,21,-1
 520 50 l 2,22,23
 520 29 520 29 505.5 14.5 c 128,-1,24
 491 0 491 0 470 0 c 128,-1,25
 449 0 449 0 434.5 14.5 c 128,-1,26
 420 29 420 29 420 50 c 2,27,-1
 420 200 l 1,28,-1
 120 200 l 2,29,30
 99 200 99 200 84.5 214.5 c 128,-1,31
 70 229 70 229 70 250 c 0,32,33
 70 256 70 256 72 264 c 2,34,-1
 272 964 l 2,35,36
 277 980 277 980 290 990 c 128,-1,37
 303 1000 303 1000 320 1000 c 0,0,1
EndSplineSet
Validated: 1
EndChar

StartChar: five
Encoding: 53 53 24
Width: 700
Flags: W
LayerCount: 2
Fore
SplineSet
150 1000 m 2,0,-1
 550 1000 l 2,1,2
 571 1000 571 1000 585.5 985.5 c 128,-1,3
 600 971 600 971 600 950 c 128,-1,4
 600 929 600 929 585.5 914.5 c 128,-1,5
 571 900 571 900 550 900 c 2,6,-1
 200 900 l 1,7,-1
 200 600 l 1,8,-1
 350 600 l 2,9,10
 454 600 454 600 527 527 c 128,-1,11
 600 454 600 454 600 350 c 2,12,-1
 600 250 l 2,13,14
 600 146 600 146 527 73 c 128,-1,15
 454 0 454 0 350 0 c 2,16,-1
 150 0 l 2,17,18
 129 0 129 0 114.5 14.5 c 128,-1,19
 100 29 100 29 100 50 c 128,-1,20
 100 71 100 71 114.5 85.5 c 128,-1,21
 129 100 129 100 150 100 c 2,22,-1
 350 100 l 2,23,24
 412 100 412 100 456 144 c 128,-1,25
 500 188 500 188 500 250 c 2,26,-1
 500 350 l 2,27,28
 500 412 500 412 456 456 c 128,-1,29
 412 500 412 500 350 500 c 2,30,-1
 150 500 l 2,31,32
 129 500 129 500 114.5 514.5 c 128,-1,33
 100 529 100 529 100 550 c 2,34,-1
 100 950 l 2,35,36
 100 971 100 971 114.5 985.5 c 128,-1,37
 129 1000 129 1000 150 1000 c 2,0,-1
EndSplineSet
Validated: 1
EndChar

StartChar: six
Encoding: 54 54 25
Width: 700
Flags: W
LayerCount: 2
Fore
SplineSet
350 -30 m 128,-1,1
 246 -30 246 -30 173 43 c 128,-1,2
 100 116 100 116 100 220 c 2,3,-1
 100 500 l 2,4,5
 100 667 100 667 188 803.5 c 128,-1,6
 276 940 276 940 432 997 c 0,7,8
 441 1000 441 1000 450 1000 c 0,9,10
 471 1000 471 1000 485.5 985.5 c 128,-1,11
 500 971 500 971 500 950 c 0,12,13
 500 915 500 915 466 903 c 0,14,15
 363 866 363 866 297 786 c 128,-1,16
 231 706 231 706 210 600 c 1,17,-1
 350 600 l 2,18,19
 454 600 454 600 527 527 c 128,-1,20
 600 454 600 454 600 350 c 2,21,-1
 600 220 l 2,22,23
 600 116 600 116 527 43 c 128,-1,0
 454 -30 454 -30 350 -30 c 128,-1,1
350 70 m 128,-1,25
 412 70 412 70 456 114 c 128,-1,26
 500 158 500 158 500 220 c 2,27,-1
 500 350 l 2,28,29
 500 412 500 412 456 456 c 128,-1,30
 412 500 412 500 350 500 c 2,31,-1
 200 500 l 1,32,-1
 200 220 l 2,33,34
 200 158 200 158 244 114 c 128,-1,24
 288 70 288 70 350 70 c 128,-1,25
EndSplineSet
Validated: 1
EndChar

StartChar: seven
Encoding: 55 55 26
Width: 700
Flags: W
LayerCount: 2
Fore
SplineSet
150 1000 m 2,0,-1
 550 1000 l 2,1,2
 571 1000 571 1000 585.5 985.5 c 128,-1,3
 600 971 600 971 600 950 c 0,4,5
 600 945 600 945 598 937 c 2,6,-1
 348 37 l 2,7,8
 343 21 343 21 330 10.5 c 128,-1,9
 317 0 317 0 300 0 c 0,10,11
 279 0 279 0 264.5 14.5 c 128,-1,12
 250 29 250 29 250 50 c 0,13,14
 250 55 250 55 252 63 c 2,15,-1
 484 900 l 1,16,-1
 200 900 l 1,17,-1
 200 850 l 2,18,19
 200 829 200 829 185.5 814.5 c 128,-1,20
 171 800 171 800 150 800 c 128,-1,21
 129 800 129 800 114.5 814.5 c 128,-1,22
 100 829 100 829 100 850 c 2,23,-1
 100 950 l 2,24,25
 100 971 100 971 114.5 985.5 c 128,-1,26
 129 1000 129 1000 150 1000 c 2,0,-1
EndSplineSet
Validated: 1
EndChar

StartChar: eight
Encoding: 56 56 27
Width: 700
Flags: W
LayerCount: 2
Fore
SplineSet
350 1030 m 128,-1,1
 453 1030 453 1030 526.5 953 c 128,-1,2
 600 876 600 876 600 765 c 0,3,4
 600 702 600 702 575 648 c 128,-1,5
 550 594 550 594 506 557 c 1,6,7
 531 541 531 541 550 521 c 0,8,9
 630 438 630 438 630 285 c 128,-1,10
 630 132 630 132 550 49 c 0,11,12
 474 -30 474 -30 350 -30 c 128,-1,13
 226 -30 226 -30 150 49 c 0,14,15
 70 132 70 132 70 285 c 128,-1,16
 70 438 70 438 150 521 c 0,17,18
 169 541 169 541 194 557 c 1,19,20
 150 594 150 594 125 648 c 128,-1,21
 100 702 100 702 100 765 c 0,22,23
 100 876 100 876 173.5 953 c 128,-1,0
 247 1030 247 1030 350 1030 c 128,-1,1
350 930 m 128,-1,25
 286 930 286 930 243 884.5 c 128,-1,26
 200 839 200 839 200 765 c 128,-1,27
 200 691 200 691 243 645.5 c 128,-1,28
 286 600 286 600 350 600 c 128,-1,29
 414 600 414 600 457 645.5 c 128,-1,30
 500 691 500 691 500 765 c 128,-1,31
 500 839 500 839 457 884.5 c 128,-1,24
 414 930 414 930 350 930 c 128,-1,25
350 500 m 128,-1,33
 268 500 268 500 222 452 c 0,34,35
 170 398 170 398 170 285 c 128,-1,36
 170 172 170 172 222 118 c 0,37,38
 268 70 268 70 350 70 c 128,-1,39
 432 70 432 70 478 118 c 0,40,41
 530 172 530 172 530 285 c 128,-1,42
 530 398 530 398 478 452 c 0,43,32
 432 500 432 500 350 500 c 128,-1,33
EndSplineSet
Validated: 1
EndChar

StartChar: nine
Encoding: 57 57 28
Width: 700
Flags: W
LayerCount: 2
Fore
SplineSet
350 1030 m 128,-1,1
 454 1030 454 1030 527 957 c 128,-1,2
 600 884 600 884 600 780 c 2,3,-1
 600 500 l 2,4,5
 600 333 600 333 512 196.5 c 128,-1,6
 424 60 424 60 268 3 c 0,7,8
 259 0 259 0 250 0 c 0,9,10
 229 0 229 0 214.5 14.5 c 128,-1,11
 200 29 200 29 200 50 c 0,12,13
 200 85 200 85 234 97 c 0,14,15
 337 134 337 134 403 214 c 128,-1,16
 469 294 469 294 490 400 c 1,17,-1
 350 400 l 2,18,19
 246 400 246 400 173 473 c 128,-1,20
 100 546 100 546 100 650 c 2,21,-1
 100 780 l 2,22,23
 100 884 100 884 173 957 c 128,-1,0
 246 1030 246 1030 350 1030 c 128,-1,1
350 930 m 128,-1,25
 288 930 288 930 244 886 c 128,-1,26
 200 842 200 842 200 780 c 2,27,-1
 200 650 l 2,28,29
 200 588 200 588 244 544 c 128,-1,30
 288 500 288 500 350 500 c 2,31,-1
 500 500 l 1,32,-1
 500 780 l 2,33,34
 500 842 500 842 456 886 c 128,-1,24
 412 930 412 930 350 930 c 128,-1,25
EndSplineSet
Validated: 1
EndChar

StartChar: less
Encoding: 60 60 31
Width: 700
Flags: W
LayerCount: 2
Fore
SplineSet
550 600 m 0,0,1
 571 600 571 600 585.5 585.5 c 128,-1,2
 600 571 600 571 600 550 c 0,3,4
 600 519 600 519 572 505 c 2,5,-1
 262 350 l 1,6,-1
 572 195 l 2,7,8
 600 181 600 181 600 150 c 0,9,10
 600 129 600 129 585.5 114.5 c 128,-1,11
 571 100 571 100 550 100 c 0,12,13
 540 100 540 100 528 105 c 2,14,-1
 128 305 l 2,15,16
 100 319 100 319 100 350 c 128,-1,17
 100 381 100 381 128 395 c 2,18,-1
 528 595 l 2,19,20
 540 600 540 600 550 600 c 0,0,1
EndSplineSet
Validated: 1
EndChar

StartChar: equal
Encoding: 61 61 32
Width: 700
Flags: W
LayerCount: 2
Fore
SplineSet
150 550 m 2,0,-1
 550 550 l 2,1,2
 571 550 571 550 585.5 535.5 c 128,-1,3
 600 521 600 521 600 500 c 128,-1,4
 600 479 600 479 585.5 464.5 c 128,-1,5
 571 450 571 450 550 450 c 2,6,-1
 150 450 l 2,7,8
 129 450 129 450 114.5 464.5 c 128,-1,9
 100 479 100 479 100 500 c 128,-1,10
 100 521 100 521 114.5 535.5 c 128,-1,11
 129 550 129 550 150 550 c 2,0,-1
150 300 m 2,12,-1
 550 300 l 2,13,14
 571 300 571 300 585.5 285.5 c 128,-1,15
 600 271 600 271 600 250 c 128,-1,16
 600 229 600 229 585.5 214.5 c 128,-1,17
 571 200 571 200 550 200 c 2,18,-1
 150 200 l 2,19,20
 129 200 129 200 114.5 214.5 c 128,-1,21
 100 229 100 229 100 250 c 128,-1,22
 100 271 100 271 114.5 285.5 c 128,-1,23
 129 300 129 300 150 300 c 2,12,-1
EndSplineSet
Validated: 1
EndChar

StartChar: greater
Encoding: 62 62 33
Width: 700
Flags: W
LayerCount: 2
Fore
SplineSet
150 600 m 0,0,1
 160 600 160 600 172 595 c 2,2,-1
 572 395 l 2,3,4
 600 381 600 381 600 350 c 128,-1,5
 600 319 600 319 572 305 c 2,6,-1
 172 105 l 2,7,8
 160 100 160 100 150 100 c 0,9,10
 129 100 129 100 114.5 114.5 c 128,-1,11
 100 129 100 129 100 150 c 0,12,13
 100 181 100 181 128 195 c 2,14,-1
 438 350 l 1,15,-1
 128 505 l 2,16,17
 100 519 100 519 100 550 c 0,18,19
 100 571 100 571 114.5 585.5 c 128,-1,20
 129 600 129 600 150 600 c 0,0,1
EndSplineSet
Validated: 1
EndChar

StartChar: question
Encoding: 63 63 34
Width: 700
Flags: W
LayerCount: 2
Fore
SplineSet
350 100 m 128,-1,1
 371 100 371 100 385.5 85.5 c 128,-1,2
 400 71 400 71 400 50 c 128,-1,3
 400 29 400 29 385.5 14.5 c 128,-1,4
 371 0 371 0 350 0 c 128,-1,5
 329 0 329 0 314.5 14.5 c 128,-1,6
 300 29 300 29 300 50 c 128,-1,7
 300 71 300 71 314.5 85.5 c 128,-1,0
 329 100 329 100 350 100 c 128,-1,1
350 1030 m 0,8,9
 454 1030 454 1030 527 957 c 128,-1,10
 600 884 600 884 600 780 c 0,11,12
 600 662 600 662 509 587 c 2,13,-1
 436 527 l 2,14,15
 400 498 400 498 400 450 c 2,16,-1
 400 300 l 2,17,18
 400 279 400 279 385.5 264.5 c 128,-1,19
 371 250 371 250 350 250 c 128,-1,20
 329 250 329 250 314.5 264.5 c 128,-1,21
 300 279 300 279 300 300 c 2,22,-1
 300 450 l 2,23,24
 300 543 300 543 373 604 c 2,25,-1
 446 664 l 2,26,27
 500 708 500 708 500 780 c 0,28,29
 500 842 500 842 456 886 c 128,-1,30
 412 930 412 930 350 930 c 0,31,32
 284 930 284 930 246.5 921.5 c 128,-1,33
 209 913 209 913 181 891 c 0,34,35
 167 880 167 880 150 880 c 0,36,37
 129 880 129 880 114.5 894.5 c 128,-1,38
 100 909 100 909 100 930 c 0,39,40
 100 953 100 953 119 969 c 0,41,42
 163 1004 163 1004 217.5 1017 c 128,-1,43
 272 1030 272 1030 350 1030 c 0,8,9
EndSplineSet
Validated: 1
EndChar

StartChar: at
Encoding: 64 64 35
Width: 1300
Flags: W
LayerCount: 2
Fore
SplineSet
650 1030 m 128,-1,1
 762 1030 762 1030 864 986.5 c 128,-1,2
 966 943 966 943 1039.5 869.5 c 128,-1,3
 1113 796 1113 796 1156.5 694 c 128,-1,4
 1200 592 1200 592 1200 480 c 2,5,-1
 1200 250 l 2,6,7
 1200 146 1200 146 1127 73 c 128,-1,8
 1054 0 1054 0 950 0 c 0,9,10
 877 0 877 0 832 58 c 1,11,12
 757 -20 757 -20 650 -20 c 0,13,14
 546 -20 546 -20 473 53 c 128,-1,15
 400 126 400 126 400 230 c 2,16,-1
 400 500 l 2,17,18
 400 582 400 582 459 641 c 128,-1,19
 518 700 518 700 600 700 c 2,20,-1
 850 700 l 2,21,22
 871 700 871 700 885.5 685.5 c 128,-1,23
 900 671 900 671 900 650 c 2,24,-1
 900 150 l 2,25,26
 900 129 900 129 914.5 114.5 c 128,-1,27
 929 100 929 100 950 100 c 0,28,29
 1012 100 1012 100 1056 144 c 128,-1,30
 1100 188 1100 188 1100 250 c 2,31,-1
 1100 480 l 2,32,33
 1100 602 1100 602 1040 706 c 128,-1,34
 980 810 980 810 876 870 c 128,-1,35
 772 930 772 930 650 930 c 128,-1,36
 528 930 528 930 424 870 c 128,-1,37
 320 810 320 810 260 706 c 128,-1,38
 200 602 200 602 200 480 c 2,39,-1
 200 250 l 2,40,41
 200 128 200 128 260 24 c 128,-1,42
 320 -80 320 -80 424 -140 c 128,-1,43
 528 -200 528 -200 650 -200 c 0,44,45
 671 -200 671 -200 685.5 -214.5 c 128,-1,46
 700 -229 700 -229 700 -250 c 128,-1,47
 700 -271 700 -271 685.5 -285.5 c 128,-1,48
 671 -300 671 -300 650 -300 c 0,49,50
 538 -300 538 -300 436 -256.5 c 128,-1,51
 334 -213 334 -213 260.5 -139.5 c 128,-1,52
 187 -66 187 -66 143.5 36 c 128,-1,53
 100 138 100 138 100 250 c 2,54,-1
 100 480 l 2,55,56
 100 592 100 592 143.5 694 c 128,-1,57
 187 796 187 796 260.5 869.5 c 128,-1,58
 334 943 334 943 436 986.5 c 128,-1,0
 538 1030 538 1030 650 1030 c 128,-1,1
600 600 m 2,59,60
 559 600 559 600 529.5 570.5 c 128,-1,61
 500 541 500 541 500 500 c 2,62,-1
 500 230 l 2,63,64
 500 168 500 168 544 124 c 128,-1,65
 588 80 588 80 650 80 c 128,-1,66
 712 80 712 80 756 124 c 128,-1,67
 800 168 800 168 800 230 c 2,68,-1
 800 600 l 1,69,-1
 600 600 l 2,59,60
EndSplineSet
Validated: 1
EndChar

StartChar: A
Encoding: 65 65 36
Width: 800
Flags: W
LayerCount: 2
Fore
SplineSet
100 0 m 0,0,1
 78 0 78 0 64 14.5 c 128,-1,2
 50 29 50 29 50 49 c 0,3,4
 50 58 50 58 53 65 c 2,5,-1
 352 965 l 2,6,7
 364 1000 364 1000 400 1000 c 0,8,9
 435 1000 435 1000 449 960 c 2,10,-1
 747 65 l 2,11,12
 750 58 750 58 750 49 c 0,13,14
 750 29 750 29 736 14.5 c 128,-1,15
 722 0 722 0 700 0 c 0,16,17
 684 0 684 0 670.5 9.5 c 128,-1,18
 657 19 657 19 652 34 c 2,19,-1
 580 250 l 1,20,-1
 220 250 l 1,21,-1
 148 34 l 2,22,23
 143 19 143 19 129.5 9.5 c 128,-1,24
 116 0 116 0 100 0 c 0,0,1
253 350 m 1,25,-1
 547 350 l 1,26,-1
 400 792 l 1,27,-1
 253 350 l 1,25,-1
EndSplineSet
Validated: 1
EndChar

StartChar: B
Encoding: 66 66 37
Width: 780
Flags: W
LayerCount: 2
Fore
SplineSet
150 1000 m 2,0,-1
 400 1000 l 2,1,2
 504 1000 504 1000 577 927 c 128,-1,3
 650 854 650 854 650 750 c 0,4,5
 650 631 650 631 557 556 c 1,6,7
 623 516 623 516 661.5 448 c 128,-1,8
 700 380 700 380 700 300 c 0,9,10
 700 176 700 176 612 88 c 128,-1,11
 524 0 524 0 400 0 c 2,12,-1
 150 0 l 2,13,14
 129 0 129 0 114.5 14.5 c 128,-1,15
 100 29 100 29 100 50 c 2,16,-1
 100 950 l 2,17,18
 100 971 100 971 114.5 985.5 c 128,-1,19
 129 1000 129 1000 150 1000 c 2,0,-1
200 900 m 1,20,-1
 200 600 l 1,21,-1
 400 600 l 2,22,23
 462 600 462 600 506 644 c 128,-1,24
 550 688 550 688 550 750 c 128,-1,25
 550 812 550 812 506 856 c 128,-1,26
 462 900 462 900 400 900 c 2,27,-1
 200 900 l 1,20,-1
200 500 m 1,28,-1
 200 100 l 1,29,-1
 400 100 l 2,30,31
 482 100 482 100 541 159 c 128,-1,32
 600 218 600 218 600 300 c 128,-1,33
 600 382 600 382 541 441 c 128,-1,34
 482 500 482 500 400 500 c 2,35,-1
 200 500 l 1,28,-1
EndSplineSet
Validated: 1
EndChar

StartChar: C
Encoding: 67 67 38
Width: 670
Flags: W
LayerCount: 2
Fore
SplineSet
390 1000 m 2,0,-1
 540 1000 l 2,1,2
 561 1000 561 1000 575.5 985.5 c 128,-1,3
 590 971 590 971 590 950 c 128,-1,4
 590 929 590 929 575.5 914.5 c 128,-1,5
 561 900 561 900 540 900 c 2,6,-1
 390 900 l 2,7,8
 308 900 308 900 249 841 c 128,-1,9
 190 782 190 782 190 700 c 2,10,-1
 190 300 l 2,11,12
 190 218 190 218 249 159 c 128,-1,13
 308 100 308 100 390 100 c 2,14,-1
 540 100 l 2,15,16
 561 100 561 100 575.5 85.5 c 128,-1,17
 590 71 590 71 590 50 c 128,-1,18
 590 29 590 29 575.5 14.5 c 128,-1,19
 561 0 561 0 540 0 c 2,20,-1
 390 0 l 2,21,22
 266 0 266 0 178 88 c 128,-1,23
 90 176 90 176 90 300 c 2,24,-1
 90 700 l 2,25,26
 90 824 90 824 178 912 c 128,-1,27
 266 1000 266 1000 390 1000 c 2,0,-1
EndSplineSet
Validated: 1
EndChar

StartChar: D
Encoding: 68 68 39
Width: 790
Flags: W
LayerCount: 2
Fore
SplineSet
150 1000 m 2,0,-1
 400 1000 l 2,1,2
 524 1000 524 1000 612 912 c 128,-1,3
 700 824 700 824 700 700 c 2,4,-1
 700 300 l 2,5,6
 700 176 700 176 612 88 c 128,-1,7
 524 0 524 0 400 0 c 2,8,-1
 150 0 l 2,9,10
 129 0 129 0 114.5 14.5 c 128,-1,11
 100 29 100 29 100 50 c 2,12,-1
 100 950 l 2,13,14
 100 971 100 971 114.5 985.5 c 128,-1,15
 129 1000 129 1000 150 1000 c 2,0,-1
200 900 m 1,16,-1
 200 100 l 1,17,-1
 400 100 l 2,18,19
 482 100 482 100 541 159 c 128,-1,20
 600 218 600 218 600 300 c 2,21,-1
 600 700 l 2,22,23
 600 782 600 782 541 841 c 128,-1,24
 482 900 482 900 400 900 c 2,25,-1
 200 900 l 1,16,-1
EndSplineSet
Validated: 1
EndChar

StartChar: E
Encoding: 69 69 40
Width: 680
Flags: W
LayerCount: 2
Fore
SplineSet
150 1000 m 2,0,-1
 550 1000 l 2,1,2
 571 1000 571 1000 585.5 985.5 c 128,-1,3
 600 971 600 971 600 950 c 128,-1,4
 600 929 600 929 585.5 914.5 c 128,-1,5
 571 900 571 900 550 900 c 2,6,-1
 200 900 l 1,7,-1
 200 600 l 1,8,-1
 450 600 l 2,9,10
 471 600 471 600 485.5 585.5 c 128,-1,11
 500 571 500 571 500 550 c 128,-1,12
 500 529 500 529 485.5 514.5 c 128,-1,13
 471 500 471 500 450 500 c 2,14,-1
 200 500 l 1,15,-1
 200 100 l 1,16,-1
 550 100 l 2,17,18
 571 100 571 100 585.5 85.5 c 128,-1,19
 600 71 600 71 600 50 c 128,-1,20
 600 29 600 29 585.5 14.5 c 128,-1,21
 571 0 571 0 550 0 c 2,22,-1
 150 0 l 2,23,24
 129 0 129 0 114.5 14.5 c 128,-1,25
 100 29 100 29 100 50 c 2,26,-1
 100 950 l 2,27,28
 100 971 100 971 114.5 985.5 c 128,-1,29
 129 1000 129 1000 150 1000 c 2,0,-1
EndSplineSet
Validated: 1
EndChar

StartChar: F
Encoding: 70 70 41
Width: 680
Flags: W
LayerCount: 2
Fore
SplineSet
150 1000 m 2,0,-1
 550 1000 l 2,1,2
 571 1000 571 1000 585.5 985.5 c 128,-1,3
 600 971 600 971 600 950 c 128,-1,4
 600 929 600 929 585.5 914.5 c 128,-1,5
 571 900 571 900 550 900 c 2,6,-1
 200 900 l 1,7,-1
 200 600 l 1,8,-1
 550 600 l 2,9,10
 571 600 571 600 585.5 585.5 c 128,-1,11
 600 571 600 571 600 550 c 128,-1,12
 600 529 600 529 585.5 514.5 c 128,-1,13
 571 500 571 500 550 500 c 2,14,-1
 200 500 l 1,15,-1
 200 50 l 2,16,17
 200 29 200 29 185.5 14.5 c 128,-1,18
 171 0 171 0 150 0 c 128,-1,19
 129 0 129 0 114.5 14.5 c 128,-1,20
 100 29 100 29 100 50 c 2,21,-1
 100 950 l 2,22,23
 100 971 100 971 114.5 985.5 c 128,-1,24
 129 1000 129 1000 150 1000 c 2,0,-1
EndSplineSet
Validated: 1
EndChar

StartChar: G
Encoding: 71 71 42
Width: 790
Flags: W
LayerCount: 2
Fore
SplineSet
390 1000 m 2,0,-1
 640 1000 l 2,1,2
 661 1000 661 1000 675.5 985.5 c 128,-1,3
 690 971 690 971 690 950 c 128,-1,4
 690 929 690 929 675.5 914.5 c 128,-1,5
 661 900 661 900 640 900 c 2,6,-1
 390 900 l 2,7,8
 308 900 308 900 249 841 c 128,-1,9
 190 782 190 782 190 700 c 2,10,-1
 190 300 l 2,11,12
 190 218 190 218 249 159 c 128,-1,13
 308 100 308 100 390 100 c 2,14,-1
 590 100 l 1,15,-1
 590 500 l 1,16,-1
 540 500 l 2,17,18
 519 500 519 500 504.5 514.5 c 128,-1,19
 490 529 490 529 490 550 c 128,-1,20
 490 571 490 571 504.5 585.5 c 128,-1,21
 519 600 519 600 540 600 c 2,22,-1
 640 600 l 2,23,24
 661 600 661 600 675.5 585.5 c 128,-1,25
 690 571 690 571 690 550 c 2,26,-1
 690 50 l 2,27,28
 690 29 690 29 675.5 14.5 c 128,-1,29
 661 0 661 0 640 0 c 2,30,-1
 390 0 l 2,31,32
 266 0 266 0 178 88 c 128,-1,33
 90 176 90 176 90 300 c 2,34,-1
 90 700 l 2,35,36
 90 824 90 824 178 912 c 128,-1,37
 266 1000 266 1000 390 1000 c 2,0,-1
EndSplineSet
Validated: 1
EndChar

StartChar: H
Encoding: 72 72 43
Width: 800
Flags: W
LayerCount: 2
Fore
SplineSet
150 1000 m 128,-1,1
 171 1000 171 1000 185.5 985.5 c 128,-1,2
 200 971 200 971 200 950 c 2,3,-1
 200 600 l 1,4,-1
 600 600 l 1,5,-1
 600 950 l 2,6,7
 600 971 600 971 614.5 985.5 c 128,-1,8
 629 1000 629 1000 650 1000 c 128,-1,9
 671 1000 671 1000 685.5 985.5 c 128,-1,10
 700 971 700 971 700 950 c 2,11,-1
 700 50 l 2,12,13
 700 29 700 29 685.5 14.5 c 128,-1,14
 671 0 671 0 650 0 c 128,-1,15
 629 0 629 0 614.5 14.5 c 128,-1,16
 600 29 600 29 600 50 c 2,17,-1
 600 500 l 1,18,-1
 200 500 l 1,19,-1
 200 50 l 2,20,21
 200 29 200 29 185.5 14.5 c 128,-1,22
 171 0 171 0 150 0 c 128,-1,23
 129 0 129 0 114.5 14.5 c 128,-1,24
 100 29 100 29 100 50 c 2,25,-1
 100 950 l 2,26,27
 100 971 100 971 114.5 985.5 c 128,-1,0
 129 1000 129 1000 150 1000 c 128,-1,1
EndSplineSet
Validated: 1
EndChar

StartChar: I
Encoding: 73 73 44
Width: 300
Flags: W
LayerCount: 2
Fore
SplineSet
150 1000 m 128,-1,1
 171 1000 171 1000 185.5 985.5 c 128,-1,2
 200 971 200 971 200 950 c 2,3,-1
 200 50 l 2,4,5
 200 29 200 29 185.5 14.5 c 128,-1,6
 171 0 171 0 150 0 c 128,-1,7
 129 0 129 0 114.5 14.5 c 128,-1,8
 100 29 100 29 100 50 c 2,9,-1
 100 950 l 2,10,11
 100 971 100 971 114.5 985.5 c 128,-1,0
 129 1000 129 1000 150 1000 c 128,-1,1
EndSplineSet
Validated: 1
EndChar

StartChar: J
Encoding: 74 74 45
Width: 540
Flags: W
LayerCount: 2
Fore
SplineSet
400 1000 m 128,-1,1
 421 1000 421 1000 435.5 985.5 c 128,-1,2
 450 971 450 971 450 950 c 2,3,-1
 450 300 l 2,4,5
 450 176 450 176 362 88 c 128,-1,6
 274 0 274 0 150 0 c 2,7,-1
 100 0 l 2,8,9
 79 0 79 0 64.5 14.5 c 128,-1,10
 50 29 50 29 50 50 c 128,-1,11
 50 71 50 71 64.5 85.5 c 128,-1,12
 79 100 79 100 100 100 c 2,13,-1
 150 100 l 2,14,15
 232 100 232 100 291 159 c 128,-1,16
 350 218 350 218 350 300 c 2,17,-1
 350 950 l 2,18,19
 350 971 350 971 364.5 985.5 c 128,-1,0
 379 1000 379 1000 400 1000 c 128,-1,1
EndSplineSet
Validated: 1
EndChar

StartChar: K
Encoding: 75 75 46
Width: 780
Flags: W
LayerCount: 2
Fore
SplineSet
150 1000 m 128,-1,1
 171 1000 171 1000 185.5 985.5 c 128,-1,2
 200 971 200 971 200 950 c 2,3,-1
 200 530 l 1,4,-1
 613 984 l 2,5,6
 628 1000 628 1000 650 1000 c 0,7,8
 670 1000 670 1000 684 987 c 0,9,10
 700 972 700 972 700 950 c 0,11,12
 700 930 700 930 687 916 c 2,13,-1
 393 594 l 1,14,-1
 693 75 l 2,15,16
 700 64 700 64 700 50 c 0,17,18
 700 21 700 21 675 7 c 0,19,20
 664 0 664 0 650 0 c 0,21,22
 621 0 621 0 607 25 c 2,23,-1
 322 516 l 1,24,-1
 200 382 l 1,25,-1
 200 50 l 2,26,27
 200 29 200 29 185.5 14.5 c 128,-1,28
 171 0 171 0 150 0 c 128,-1,29
 129 0 129 0 114.5 14.5 c 128,-1,30
 100 29 100 29 100 50 c 2,31,-1
 100 950 l 2,32,33
 100 971 100 971 114.5 985.5 c 128,-1,0
 129 1000 129 1000 150 1000 c 128,-1,1
EndSplineSet
Validated: 1
EndChar

StartChar: L
Encoding: 76 76 47
Width: 640
Flags: W
LayerCount: 2
Fore
SplineSet
140 0 m 2,0,1
 119 0 119 0 104.5 14.5 c 128,-1,2
 90 29 90 29 90 50 c 2,3,-1
 90 950 l 2,4,5
 90 971 90 971 104.5 985.5 c 128,-1,6
 119 1000 119 1000 140 1000 c 128,-1,7
 161 1000 161 1000 175.5 985.5 c 128,-1,8
 190 971 190 971 190 950 c 2,9,-1
 190 100 l 1,10,-1
 540 100 l 2,11,12
 561 100 561 100 575.5 85.5 c 128,-1,13
 590 71 590 71 590 50 c 128,-1,14
 590 29 590 29 575.5 14.5 c 128,-1,15
 561 0 561 0 540 0 c 2,16,-1
 140 0 l 2,0,1
EndSplineSet
Validated: 1
EndChar

StartChar: M
Encoding: 77 77 48
Width: 900
Flags: W
LayerCount: 2
Fore
SplineSet
800 947 m 1,0,-1
 800 50 l 2,1,2
 800 29 800 29 785.5 14.5 c 128,-1,3
 771 0 771 0 750 0 c 128,-1,4
 729 0 729 0 714.5 14.5 c 128,-1,5
 700 29 700 29 700 50 c 2,6,-1
 700 769 l 1,7,-1
 495 427 l 2,8,9
 481 399 481 399 450 399 c 0,10,11
 422 399 422 399 405 428 c 2,12,-1
 200 769 l 1,13,-1
 200 50 l 2,14,15
 200 29 200 29 185.5 14.5 c 128,-1,16
 171 0 171 0 150 0 c 128,-1,17
 129 0 129 0 114.5 14.5 c 128,-1,18
 100 29 100 29 100 50 c 2,19,-1
 100 947 l 2,20,21
 100 968 100 968 113.5 984 c 128,-1,22
 127 1000 127 1000 148 1000 c 0,23,24
 177 1000 177 1000 195 971 c 2,25,-1
 450 547 l 1,26,-1
 705 971 l 2,27,28
 723 1000 723 1000 752 1000 c 0,29,30
 773 1000 773 1000 786.5 984 c 128,-1,31
 800 968 800 968 800 949 c 2,32,-1
 800 947 l 1,0,-1
EndSplineSet
Validated: 1
EndChar

StartChar: N
Encoding: 78 78 49
Width: 800
Flags: W
LayerCount: 2
Fore
SplineSet
150 1000 m 0,0,1
 176 1000 176 1000 194 973 c 2,2,-1
 600 243 l 1,3,-1
 600 950 l 2,4,5
 600 971 600 971 614.5 985.5 c 128,-1,6
 629 1000 629 1000 650 1000 c 128,-1,7
 671 1000 671 1000 685.5 985.5 c 128,-1,8
 700 971 700 971 700 950 c 2,9,-1
 700 50 l 2,10,11
 700 29 700 29 685.5 14.5 c 128,-1,12
 671 0 671 0 650 0 c 0,13,14
 620 0 620 0 604 30 c 2,15,-1
 200 757 l 1,16,-1
 200 50 l 2,17,18
 200 29 200 29 185.5 14.5 c 128,-1,19
 171 0 171 0 150 0 c 128,-1,20
 129 0 129 0 114.5 14.5 c 128,-1,21
 100 29 100 29 100 50 c 2,22,-1
 100 950 l 2,23,24
 100 971 100 971 114.5 985.5 c 128,-1,25
 129 1000 129 1000 150 1000 c 0,0,1
EndSplineSet
Validated: 1
EndChar

StartChar: O
Encoding: 79 79 50
Width: 780
Flags: W
LayerCount: 2
Fore
SplineSet
390 1030 m 256,0,1
 514 1030 514 1030 602 942 c 128,-1,2
 690 854 690 854 690 730 c 2,3,-1
 690 270 l 2,4,5
 690 146 690 146 602 58 c 128,-1,6
 514 -30 514 -30 390 -30 c 256,7,8
 266 -30 266 -30 178 58 c 128,-1,9
 90 146 90 146 90 270 c 2,10,-1
 90 730 l 2,11,12
 90 854 90 854 178 942 c 128,-1,13
 266 1030 266 1030 390 1030 c 256,0,1
390 930 m 256,14,15
 308 930 308 930 249 871 c 128,-1,16
 190 812 190 812 190 730 c 2,17,-1
 190 270 l 2,18,19
 190 188 190 188 249 129 c 128,-1,20
 308 70 308 70 390 70 c 256,21,22
 472 70 472 70 531 129 c 128,-1,23
 590 188 590 188 590 270 c 2,24,-1
 590 730 l 2,25,26
 590 812 590 812 531 871 c 128,-1,27
 472 930 472 930 390 930 c 256,14,15
EndSplineSet
Validated: 1
EndChar

StartChar: P
Encoding: 80 80 51
Width: 780
Flags: W
LayerCount: 2
Fore
SplineSet
150 1000 m 2,0,-1
 400 1000 l 2,1,2
 524 1000 524 1000 612 912 c 128,-1,3
 700 824 700 824 700 700 c 128,-1,4
 700 576 700 576 612 488 c 128,-1,5
 524 400 524 400 400 400 c 2,6,-1
 200 400 l 1,7,-1
 200 50 l 2,8,9
 200 29 200 29 185.5 14.5 c 128,-1,10
 171 0 171 0 150 0 c 128,-1,11
 129 0 129 0 114.5 14.5 c 128,-1,12
 100 29 100 29 100 50 c 2,13,-1
 100 950 l 2,14,15
 100 971 100 971 114.5 985.5 c 128,-1,16
 129 1000 129 1000 150 1000 c 2,0,-1
200 900 m 1,17,-1
 200 500 l 1,18,-1
 400 500 l 2,19,20
 482 500 482 500 541 559 c 128,-1,21
 600 618 600 618 600 700 c 128,-1,22
 600 782 600 782 541 841 c 128,-1,23
 482 900 482 900 400 900 c 2,24,-1
 200 900 l 1,17,-1
EndSplineSet
Validated: 1
EndChar

StartChar: Q
Encoding: 81 81 52
Width: 790
Flags: W
LayerCount: 2
Fore
SplineSet
390 1030 m 256,0,1
 514 1030 514 1030 602 942 c 128,-1,2
 690 854 690 854 690 730 c 2,3,-1
 690 270 l 2,4,5
 690 213 690 213 668 158 c 1,6,-1
 768 92 l 2,7,8
 790 77 790 77 790 50 c 0,9,10
 790 29 790 29 775.5 14.5 c 128,-1,11
 761 0 761 0 740 0 c 0,12,13
 725 0 725 0 712 8 c 2,14,-1
 616 73 l 1,15,16
 526 -30 526 -30 390 -30 c 0,17,18
 266 -30 266 -30 178 58 c 128,-1,19
 90 146 90 146 90 270 c 2,20,-1
 90 730 l 2,21,22
 90 854 90 854 178 942 c 128,-1,23
 266 1030 266 1030 390 1030 c 256,0,1
390 930 m 256,24,25
 308 930 308 930 249 871 c 128,-1,26
 190 812 190 812 190 730 c 2,27,-1
 190 270 l 2,28,29
 190 188 190 188 249 129 c 128,-1,30
 308 70 308 70 390 70 c 0,31,32
 473 70 473 70 532 129 c 1,33,-1
 412 208 l 2,34,35
 390 223 390 223 390 250 c 0,36,37
 390 271 390 271 404.5 285.5 c 128,-1,38
 419 300 419 300 440 300 c 0,39,40
 455 300 455 300 468 292 c 2,41,-1
 582 215 l 1,42,43
 590 242 590 242 590 270 c 2,44,-1
 590 730 l 2,45,46
 590 812 590 812 531 871 c 128,-1,47
 472 930 472 930 390 930 c 256,24,25
EndSplineSet
Validated: 1
EndChar

StartChar: R
Encoding: 82 82 53
Width: 780
Flags: W
LayerCount: 2
Fore
SplineSet
150 1000 m 2,0,-1
 400 1000 l 2,1,2
 524 1000 524 1000 612 912 c 128,-1,3
 700 824 700 824 700 700 c 0,4,5
 700 598 700 598 639 518.5 c 128,-1,6
 578 439 578 439 483 412 c 1,7,-1
 692 76 l 2,8,9
 700 63 700 63 700 50 c 0,10,11
 700 29 700 29 685.5 14.5 c 128,-1,12
 671 0 671 0 650 0 c 0,13,14
 623 0 623 0 608 24 c 2,15,-1
 372 400 l 1,16,-1
 200 400 l 1,17,-1
 200 50 l 2,18,19
 200 29 200 29 185.5 14.5 c 128,-1,20
 171 0 171 0 150 0 c 128,-1,21
 129 0 129 0 114.5 14.5 c 128,-1,22
 100 29 100 29 100 50 c 2,23,-1
 100 950 l 2,24,25
 100 971 100 971 114.5 985.5 c 128,-1,26
 129 1000 129 1000 150 1000 c 2,0,-1
200 900 m 1,27,-1
 200 500 l 1,28,-1
 400 500 l 2,29,30
 482 500 482 500 541 559 c 128,-1,31
 600 618 600 618 600 700 c 128,-1,32
 600 782 600 782 541 841 c 128,-1,33
 482 900 482 900 400 900 c 2,34,-1
 200 900 l 1,27,-1
EndSplineSet
Validated: 1
EndChar

StartChar: S
Encoding: 83 83 54
Width: 760
Flags: W
LayerCount: 2
Fore
SplineSet
380 1030 m 0,0,1
 462 1030 462 1030 536 1005 c 128,-1,2
 610 980 610 980 660 940 c 0,3,4
 680 925 680 925 680 900 c 0,5,6
 680 879 680 879 665.5 864.5 c 128,-1,7
 651 850 651 850 630 850 c 0,8,9
 616 850 616 850 606 856 c 0,10,11
 544 894 544 894 493 912 c 128,-1,12
 442 930 442 930 380 930 c 0,13,14
 284 930 284 930 232 887.5 c 128,-1,15
 180 845 180 845 180 780 c 0,16,17
 180 737 180 737 202 700.5 c 128,-1,18
 224 664 224 664 258 642 c 2,19,-1
 558 442 l 2,20,21
 604 411 604 411 642 351 c 128,-1,22
 680 291 680 291 680 220 c 0,23,24
 680 175 680 175 662.5 132 c 128,-1,25
 645 89 645 89 610.5 52 c 128,-1,26
 576 15 576 15 516 -7.5 c 128,-1,27
 456 -30 456 -30 380 -30 c 0,28,29
 298 -30 298 -30 224 -5 c 128,-1,30
 150 20 150 20 100 60 c 0,31,32
 80 75 80 75 80 100 c 0,33,34
 80 121 80 121 94.5 135.5 c 128,-1,35
 109 150 109 150 130 150 c 0,36,37
 144 150 144 150 154 144 c 0,38,39
 216 106 216 106 267 88 c 128,-1,40
 318 70 318 70 380 70 c 0,41,42
 476 70 476 70 528 112.5 c 128,-1,43
 580 155 580 155 580 220 c 0,44,45
 580 263 580 263 558 299.5 c 128,-1,46
 536 336 536 336 502 358 c 2,47,-1
 202 558 l 2,48,49
 156 589 156 589 118 649 c 128,-1,50
 80 709 80 709 80 780 c 0,51,52
 80 825 80 825 97.5 868 c 128,-1,53
 115 911 115 911 149.5 948 c 128,-1,54
 184 985 184 985 244 1007.5 c 128,-1,55
 304 1030 304 1030 380 1030 c 0,0,1
EndSplineSet
Validated: 1
EndChar

StartChar: T
Encoding: 84 84 55
Width: 700
Flags: W
LayerCount: 2
Fore
SplineSet
50 950 m 128,-1,1
 50 971 50 971 64.5 985.5 c 128,-1,2
 79 1000 79 1000 100 1000 c 2,3,-1
 350 1000 l 1,4,-1
 600 1000 l 2,5,6
 621 1000 621 1000 635.5 985.5 c 128,-1,7
 650 971 650 971 650 950 c 128,-1,8
 650 929 650 929 635.5 914.5 c 128,-1,9
 621 900 621 900 600 900 c 2,10,-1
 400 900 l 1,11,-1
 400 50 l 2,12,13
 400 29 400 29 385.5 14.5 c 128,-1,14
 371 0 371 0 350 0 c 128,-1,15
 329 0 329 0 314.5 14.5 c 128,-1,16
 300 29 300 29 300 50 c 2,17,-1
 300 900 l 1,18,-1
 100 900 l 2,19,20
 79 900 79 900 64.5 914.5 c 128,-1,0
 50 929 50 929 50 950 c 128,-1,1
EndSplineSet
Validated: 1
EndChar

StartChar: U
Encoding: 85 85 56
Width: 800
Flags: W
LayerCount: 2
Fore
SplineSet
150 1000 m 128,-1,1
 171 1000 171 1000 185.5 985.5 c 128,-1,2
 200 971 200 971 200 950 c 2,3,-1
 200 270 l 2,4,5
 200 188 200 188 259 129 c 128,-1,6
 318 70 318 70 400 70 c 128,-1,7
 482 70 482 70 541 129 c 128,-1,8
 600 188 600 188 600 270 c 2,9,-1
 600 950 l 2,10,11
 600 971 600 971 614.5 985.5 c 128,-1,12
 629 1000 629 1000 650 1000 c 128,-1,13
 671 1000 671 1000 685.5 985.5 c 128,-1,14
 700 971 700 971 700 950 c 2,15,-1
 700 270 l 2,16,17
 700 146 700 146 612 58 c 128,-1,18
 524 -30 524 -30 400 -30 c 128,-1,19
 276 -30 276 -30 188 58 c 128,-1,20
 100 146 100 146 100 270 c 2,21,-1
 100 950 l 2,22,23
 100 971 100 971 114.5 985.5 c 128,-1,0
 129 1000 129 1000 150 1000 c 128,-1,1
EndSplineSet
Validated: 1
EndChar

StartChar: V
Encoding: 86 86 57
Width: 800
Flags: W
LayerCount: 2
Fore
SplineSet
100 1000 m 0,0,1
 116 1000 116 1000 129.5 990.5 c 128,-1,2
 143 981 143 981 148 966 c 2,3,-1
 400 208 l 1,4,-1
 652 966 l 2,5,6
 657 981 657 981 670.5 990.5 c 128,-1,7
 684 1000 684 1000 700 1000 c 0,8,9
 722 1000 722 1000 736 985.5 c 128,-1,10
 750 971 750 971 750 951 c 0,11,12
 750 942 750 942 747 935 c 2,13,-1
 449 40 l 2,14,15
 435 0 435 0 400 0 c 0,16,17
 364 0 364 0 352 35 c 2,18,-1
 53 935 l 2,19,20
 50 942 50 942 50 951 c 0,21,22
 50 971 50 971 64 985.5 c 128,-1,23
 78 1000 78 1000 100 1000 c 0,0,1
EndSplineSet
Validated: 1
EndChar

StartChar: W
Encoding: 87 87 58
Width: 1000
Flags: W
LayerCount: 2
Fore
SplineSet
549 666 m 2,0,-1
 690 237 l 1,1,-1
 852 961 l 2,2,3
 856 978 856 978 869.5 989 c 128,-1,4
 883 1000 883 1000 900 1000 c 0,5,6
 922 1000 922 1000 936 985.5 c 128,-1,7
 950 971 950 971 950 951 c 0,8,9
 950 944 950 944 949 940 c 2,10,-1
 751 41 l 2,11,12
 741 0 741 0 700 0 c 0,13,14
 665 0 665 0 654 34 c 2,15,-1
 500 495 l 1,16,-1
 346 34 l 2,17,18
 335 0 335 0 300 0 c 0,19,20
 259 0 259 0 249 41 c 2,21,-1
 51 940 l 2,22,23
 50 944 50 944 50 951 c 0,24,25
 50 971 50 971 64 985.5 c 128,-1,26
 78 1000 78 1000 100 1000 c 0,27,28
 117 1000 117 1000 130.5 989 c 128,-1,29
 144 978 144 978 148 961 c 2,30,-1
 310 237 l 1,31,-1
 451 666 l 2,32,33
 462 700 462 700 500 700 c 128,-1,34
 538 700 538 700 549 666 c 2,0,-1
EndSplineSet
Validated: 1
EndChar

StartChar: X
Encoding: 88 88 59
Width: 820
Flags: W
LayerCount: 2
Fore
SplineSet
738 992 m 0,0,1
 760 976 760 976 760 950 c 0,2,3
 760 934 760 934 752 922 c 2,4,-1
 470 499 l 1,5,-1
 751 78 l 2,6,7
 760 64 760 64 760 50 c 0,8,9
 760 23 760 23 737 8 c 0,10,11
 725 0 725 0 709 0 c 0,12,13
 683 0 683 0 668 22 c 2,14,-1
 410 409 l 1,15,-1
 152 22 l 2,16,17
 137 0 137 0 111 0 c 0,18,19
 95 0 95 0 83 8 c 0,20,21
 60 23 60 23 60 50 c 0,22,23
 60 64 60 64 69 78 c 2,24,-1
 350 499 l 1,25,-1
 68 922 l 2,26,27
 60 934 60 934 60 950 c 0,28,29
 60 976 60 976 82 992 c 0,30,31
 94 1000 94 1000 110 1000 c 0,32,33
 137 1000 137 1000 152 978 c 2,34,-1
 410 590 l 1,35,-1
 668 978 l 2,36,37
 683 1000 683 1000 710 1000 c 0,38,39
 726 1000 726 1000 738 992 c 0,0,1
EndSplineSet
Validated: 1
EndChar

StartChar: Y
Encoding: 89 89 60
Width: 800
Flags: W
LayerCount: 2
Fore
SplineSet
100 1000 m 0,0,1
 125 1000 125 1000 140 980 c 2,2,-1
 400 633 l 1,3,-1
 660 980 l 2,4,5
 675 1000 675 1000 700 1000 c 0,6,7
 721 1000 721 1000 735.5 985.5 c 128,-1,8
 750 971 750 971 750 950 c 0,9,10
 750 933 750 933 740 920 c 2,11,-1
 450 533 l 1,12,-1
 450 50 l 2,13,14
 450 29 450 29 435.5 14.5 c 128,-1,15
 421 0 421 0 400 0 c 128,-1,16
 379 0 379 0 364.5 14.5 c 128,-1,17
 350 29 350 29 350 50 c 2,18,-1
 350 533 l 1,19,-1
 60 920 l 2,20,21
 50 933 50 933 50 950 c 0,22,23
 50 971 50 971 64.5 985.5 c 128,-1,24
 79 1000 79 1000 100 1000 c 0,0,1
EndSplineSet
Validated: 1
EndChar

StartChar: Z
Encoding: 90 90 61
Width: 760
Flags: W
LayerCount: 2
Fore
SplineSet
673 924 m 2,0,-1
 215 100 l 1,1,-1
 630 100 l 2,2,3
 651 100 651 100 665.5 85.5 c 128,-1,4
 680 71 680 71 680 50 c 128,-1,5
 680 29 680 29 665.5 14.5 c 128,-1,6
 651 0 651 0 630 0 c 2,7,-1
 130 0 l 2,8,9
 109 0 109 0 94.5 14.5 c 128,-1,10
 80 29 80 29 80 50 c 0,11,12
 80 59 80 59 91 81 c 2,13,-1
 545 900 l 1,14,-1
 130 900 l 2,15,16
 109 900 109 900 94.5 914.5 c 128,-1,17
 80 929 80 929 80 950 c 128,-1,18
 80 971 80 971 94.5 985.5 c 128,-1,19
 109 1000 109 1000 130 1000 c 2,20,-1
 630 1000 l 2,21,22
 651 1000 651 1000 665.5 985.5 c 128,-1,23
 680 971 680 971 680 950 c 0,24,25
 680 938 680 938 673 924 c 2,0,-1
EndSplineSet
Validated: 1
EndChar

StartChar: bracketleft
Encoding: 91 91 62
Width: 400
Flags: W
LayerCount: 2
Fore
SplineSet
200 1000 m 1,0,-1
 200 0 l 1,1,-1
 250 0 l 2,2,3
 271 0 271 0 285.5 -14.5 c 128,-1,4
 300 -29 300 -29 300 -50 c 128,-1,5
 300 -71 300 -71 285.5 -85.5 c 128,-1,6
 271 -100 271 -100 250 -100 c 2,7,-1
 150 -100 l 2,8,9
 129 -100 129 -100 114.5 -85.5 c 128,-1,10
 100 -71 100 -71 100 -50 c 2,11,-1
 100 1050 l 2,12,13
 100 1071 100 1071 114.5 1085.5 c 128,-1,14
 129 1100 129 1100 150 1100 c 2,15,-1
 250 1100 l 2,16,17
 271 1100 271 1100 285.5 1085.5 c 128,-1,18
 300 1071 300 1071 300 1050 c 128,-1,19
 300 1029 300 1029 285.5 1014.5 c 128,-1,20
 271 1000 271 1000 250 1000 c 2,21,-1
 200 1000 l 1,0,-1
EndSplineSet
Validated: 1
EndChar

StartChar: backslash
Encoding: 92 92 63
Width: 800
Flags: W
LayerCount: 2
Fore
SplineSet
150 1300 m 0,0,1
 185 1300 185 1300 197 1267 c 2,2,-1
 697 -133 l 2,3,4
 700 -140 700 -140 700 -150 c 0,5,6
 700 -171 700 -171 685.5 -185.5 c 128,-1,7
 671 -200 671 -200 650 -200 c 0,8,9
 615 -200 615 -200 603 -167 c 2,10,-1
 103 1233 l 2,11,12
 100 1240 100 1240 100 1250 c 0,13,14
 100 1271 100 1271 114.5 1285.5 c 128,-1,15
 129 1300 129 1300 150 1300 c 0,0,1
EndSplineSet
Validated: 1
EndChar

StartChar: asciicircum
Encoding: 94 94 65
Width: 500
Flags: W
LayerCount: 2
Fore
SplineSet
250 1150 m 128,-1,1
 270 1150 270 1150 285 1135 c 2,2,-1
 435 985 l 2,3,4
 450 970 450 970 450 950 c 0,5,6
 450 929 450 929 435.5 914.5 c 128,-1,7
 421 900 421 900 400 900 c 0,8,9
 380 900 380 900 365 915 c 2,10,-1
 250 1029 l 1,11,-1
 135 915 l 2,12,13
 120 900 120 900 100 900 c 0,14,15
 79 900 79 900 64.5 914.5 c 128,-1,16
 50 929 50 929 50 950 c 0,17,18
 50 970 50 970 65 985 c 2,19,-1
 215 1135 l 2,20,0
 230 1150 230 1150 250 1150 c 128,-1,1
EndSplineSet
Validated: 1
EndChar

StartChar: underscore
Encoding: 95 95 66
Width: 900
Flags: W
LayerCount: 2
Fore
SplineSet
100 50 m 2,0,-1
 800 50 l 2,1,2
 821 50 821 50 835.5 35.5 c 128,-1,3
 850 21 850 21 850 0 c 128,-1,4
 850 -21 850 -21 835.5 -35.5 c 128,-1,5
 821 -50 821 -50 800 -50 c 2,6,-1
 100 -50 l 2,7,8
 79 -50 79 -50 64.5 -35.5 c 128,-1,9
 50 -21 50 -21 50 0 c 128,-1,10
 50 21 50 21 64.5 35.5 c 128,-1,11
 79 50 79 50 100 50 c 2,0,-1
EndSplineSet
Validated: 1
EndChar

StartChar: grave
Encoding: 96 96 67
Width: 250
Flags: W
LayerCount: 2
Fore
SplineSet
100 1000 m 0,0,1
 131 1000 131 1000 145 972 c 2,2,-1
 195 872 l 2,3,4
 200 860 200 860 200 850 c 0,5,6
 200 829 200 829 185.5 814.5 c 128,-1,7
 171 800 171 800 150 800 c 0,8,9
 119 800 119 800 105 828 c 2,10,-1
 55 928 l 2,11,12
 50 940 50 940 50 950 c 0,13,14
 50 971 50 971 64.5 985.5 c 128,-1,15
 79 1000 79 1000 100 1000 c 0,0,1
EndSplineSet
Validated: 1
EndChar

StartChar: a
Encoding: 97 97 68
Width: 720
Flags: W
LayerCount: 2
Fore
SplineSet
290 700 m 2,0,-1
 540 700 l 2,1,2
 561 700 561 700 575.5 685.5 c 128,-1,3
 590 671 590 671 590 650 c 2,4,-1
 590 150 l 2,5,6
 590 129 590 129 604.5 114.5 c 128,-1,7
 619 100 619 100 640 100 c 128,-1,8
 661 100 661 100 675.5 85.5 c 128,-1,9
 690 71 690 71 690 50 c 128,-1,10
 690 29 690 29 675.5 14.5 c 128,-1,11
 661 0 661 0 640 0 c 0,12,13
 567 0 567 0 522 58 c 1,14,15
 447 -20 447 -20 340 -20 c 0,16,17
 236 -20 236 -20 163 53 c 128,-1,18
 90 126 90 126 90 230 c 2,19,-1
 90 500 l 2,20,21
 90 582 90 582 149 641 c 128,-1,22
 208 700 208 700 290 700 c 2,0,-1
290 600 m 2,23,24
 249 600 249 600 219.5 570.5 c 128,-1,25
 190 541 190 541 190 500 c 2,26,-1
 190 230 l 2,27,28
 190 168 190 168 234 124 c 128,-1,29
 278 80 278 80 340 80 c 128,-1,30
 402 80 402 80 446 124 c 128,-1,31
 490 168 490 168 490 230 c 2,32,-1
 490 600 l 1,33,-1
 290 600 l 2,23,24
EndSplineSet
Validated: 1
EndChar

StartChar: b
Encoding: 98 98 69
Width: 690
Flags: W
LayerCount: 2
Fore
SplineSet
150 0 m 2,0,1
 127 0 127 0 113.5 14 c 128,-1,2
 100 28 100 28 100 50 c 2,3,-1
 100 950 l 2,4,5
 100 971 100 971 114.5 985.5 c 128,-1,6
 129 1000 129 1000 150 1000 c 128,-1,7
 171 1000 171 1000 185.5 985.5 c 128,-1,8
 200 971 200 971 200 950 c 2,9,-1
 200 700 l 1,10,-1
 400 700 l 2,11,12
 483 700 483 700 541.5 641.5 c 128,-1,13
 600 583 600 583 600 500 c 2,14,-1
 600 200 l 2,15,16
 600 117 600 117 541.5 58.5 c 128,-1,17
 483 0 483 0 400 0 c 2,18,-1
 150 0 l 2,0,1
200 100 m 1,19,-1
 400 100 l 2,20,21
 442 100 442 100 471 129 c 128,-1,22
 500 158 500 158 500 200 c 2,23,-1
 500 500 l 2,24,25
 500 542 500 542 471 571 c 128,-1,26
 442 600 442 600 400 600 c 2,27,-1
 200 600 l 1,28,-1
 200 100 l 1,19,-1
EndSplineSet
Validated: 1
EndChar

StartChar: c
Encoding: 99 99 70
Width: 570
Flags: W
LayerCount: 2
Fore
SplineSet
190 200 m 2,0,1
 190 158 190 158 219 129 c 128,-1,2
 248 100 248 100 290 100 c 2,3,-1
 440 100 l 2,4,5
 461 100 461 100 475.5 85.5 c 128,-1,6
 490 71 490 71 490 50 c 128,-1,7
 490 29 490 29 475.5 14.5 c 128,-1,8
 461 0 461 0 440 0 c 2,9,-1
 290 0 l 2,10,11
 207 0 207 0 148.5 58.5 c 128,-1,12
 90 117 90 117 90 200 c 2,13,-1
 90 500 l 2,14,15
 90 583 90 583 148.5 641.5 c 128,-1,16
 207 700 207 700 290 700 c 2,17,-1
 440 700 l 2,18,19
 461 700 461 700 475.5 685.5 c 128,-1,20
 490 671 490 671 490 650 c 128,-1,21
 490 629 490 629 475.5 614.5 c 128,-1,22
 461 600 461 600 440 600 c 2,23,-1
 290 600 l 2,24,25
 248 600 248 600 219 571 c 128,-1,26
 190 542 190 542 190 500 c 2,27,-1
 190 200 l 2,0,1
EndSplineSet
Validated: 1
EndChar

StartChar: d
Encoding: 100 100 71
Width: 690
Flags: W
LayerCount: 2
Fore
SplineSet
540 0 m 2,0,-1
 290 0 l 2,1,2
 207 0 207 0 148.5 58.5 c 128,-1,3
 90 117 90 117 90 200 c 2,4,-1
 90 500 l 2,5,6
 90 583 90 583 148.5 641.5 c 128,-1,7
 207 700 207 700 290 700 c 2,8,-1
 490 700 l 1,9,-1
 490 950 l 2,10,11
 490 971 490 971 504.5 985.5 c 128,-1,12
 519 1000 519 1000 540 1000 c 128,-1,13
 561 1000 561 1000 575.5 985.5 c 128,-1,14
 590 971 590 971 590 950 c 2,15,-1
 590 50 l 2,16,17
 590 28 590 28 576.5 14 c 128,-1,18
 563 0 563 0 540 0 c 2,0,-1
490 100 m 1,19,-1
 490 600 l 1,20,-1
 290 600 l 2,21,22
 248 600 248 600 219 571 c 128,-1,23
 190 542 190 542 190 500 c 2,24,-1
 190 200 l 2,25,26
 190 158 190 158 219 129 c 128,-1,27
 248 100 248 100 290 100 c 2,28,-1
 490 100 l 1,19,-1
EndSplineSet
Validated: 1
EndChar

StartChar: e
Encoding: 101 101 72
Width: 680
Flags: W
LayerCount: 2
Fore
SplineSet
340 720 m 256,0,1
 444 720 444 720 517 647 c 128,-1,2
 590 574 590 574 590 470 c 2,3,-1
 590 350 l 2,4,5
 590 329 590 329 575.5 314.5 c 128,-1,6
 561 300 561 300 540 300 c 2,7,-1
 190 300 l 1,8,-1
 190 200 l 2,9,10
 190 159 190 159 219.5 129.5 c 128,-1,11
 249 100 249 100 290 100 c 2,12,-1
 540 100 l 2,13,14
 561 100 561 100 575.5 85.5 c 128,-1,15
 590 71 590 71 590 50 c 128,-1,16
 590 29 590 29 575.5 14.5 c 128,-1,17
 561 0 561 0 540 0 c 2,18,-1
 290 0 l 2,19,20
 208 0 208 0 149 59 c 128,-1,21
 90 118 90 118 90 200 c 2,22,-1
 90 470 l 2,23,24
 90 574 90 574 163 647 c 128,-1,25
 236 720 236 720 340 720 c 256,0,1
340 620 m 256,26,27
 278 620 278 620 234 576 c 128,-1,28
 190 532 190 532 190 470 c 2,29,-1
 190 400 l 1,30,-1
 490 400 l 1,31,-1
 490 470 l 2,32,33
 490 532 490 532 446 576 c 128,-1,34
 402 620 402 620 340 620 c 256,26,27
EndSplineSet
Validated: 1
EndChar

StartChar: f
Encoding: 102 102 73
Width: 460
Flags: W
LayerCount: 2
Fore
SplineSet
80 700 m 2,0,-1
 130 700 l 1,1,-1
 130 800 l 2,2,3
 130 883 130 883 188.5 941.5 c 128,-1,4
 247 1000 247 1000 330 1000 c 2,5,-1
 380 1000 l 2,6,7
 401 1000 401 1000 415.5 985.5 c 128,-1,8
 430 971 430 971 430 950 c 128,-1,9
 430 929 430 929 415.5 914.5 c 128,-1,10
 401 900 401 900 380 900 c 2,11,-1
 331 900 l 2,12,13
 289 900 289 900 259.5 871 c 128,-1,14
 230 842 230 842 230 800 c 2,15,-1
 230 700 l 1,16,-1
 380 700 l 2,17,18
 401 700 401 700 415.5 685.5 c 128,-1,19
 430 671 430 671 430 650 c 128,-1,20
 430 629 430 629 415.5 614.5 c 128,-1,21
 401 600 401 600 380 600 c 2,22,-1
 230 600 l 1,23,-1
 230 50 l 2,24,25
 230 29 230 29 215.5 14.5 c 128,-1,26
 201 0 201 0 180 0 c 128,-1,27
 159 0 159 0 144.5 14.5 c 128,-1,28
 130 29 130 29 130 50 c 2,29,-1
 130 600 l 1,30,-1
 80 600 l 2,31,32
 59 600 59 600 44.5 614.5 c 128,-1,33
 30 629 30 629 30 650 c 128,-1,34
 30 671 30 671 44.5 685.5 c 128,-1,35
 59 700 59 700 80 700 c 2,0,-1
EndSplineSet
Validated: 1
EndChar

StartChar: g
Encoding: 103 103 74
Width: 690
Flags: W
LayerCount: 2
Fore
SplineSet
590 -100 m 2,0,1
 590 -183 590 -183 531.5 -241.5 c 128,-1,2
 473 -300 473 -300 390 -300 c 2,3,-1
 190 -300 l 2,4,5
 169 -300 169 -300 154.5 -285.5 c 128,-1,6
 140 -271 140 -271 140 -250 c 128,-1,7
 140 -229 140 -229 154.5 -214.5 c 128,-1,8
 169 -200 169 -200 190 -200 c 2,9,-1
 390 -200 l 2,10,11
 432 -200 432 -200 461 -171 c 128,-1,12
 490 -142 490 -142 490 -100 c 2,13,-1
 490 0 l 1,14,-1
 290 0 l 2,15,16
 207 0 207 0 148.5 58.5 c 128,-1,17
 90 117 90 117 90 200 c 2,18,-1
 90 500 l 2,19,20
 90 583 90 583 148.5 641.5 c 128,-1,21
 207 700 207 700 290 700 c 2,22,-1
 540 700 l 2,23,24
 563 700 563 700 576.5 686 c 128,-1,25
 590 672 590 672 590 650 c 2,26,-1
 590 -100 l 2,0,1
490 600 m 1,27,-1
 290 600 l 2,28,29
 248 600 248 600 219 571 c 128,-1,30
 190 542 190 542 190 500 c 2,31,-1
 190 200 l 2,32,33
 190 158 190 158 219 129 c 128,-1,34
 248 100 248 100 290 100 c 2,35,-1
 490 100 l 1,36,-1
 490 600 l 1,27,-1
EndSplineSet
Validated: 1
EndChar

StartChar: h
Encoding: 104 104 75
Width: 700
Flags: W
LayerCount: 2
Fore
SplineSet
200 700 m 1,0,-1
 400 700 l 2,1,2
 482 700 482 700 541 641 c 128,-1,3
 600 582 600 582 600 500 c 2,4,-1
 600 50 l 2,5,6
 600 29 600 29 585.5 14.5 c 128,-1,7
 571 0 571 0 550 0 c 128,-1,8
 529 0 529 0 514.5 14.5 c 128,-1,9
 500 29 500 29 500 50 c 2,10,-1
 500 500 l 2,11,12
 500 541 500 541 471 570.5 c 128,-1,13
 442 600 442 600 400 600 c 2,14,-1
 200 600 l 1,15,-1
 200 50 l 2,16,17
 200 29 200 29 185.5 14.5 c 128,-1,18
 171 0 171 0 150 0 c 128,-1,19
 129 0 129 0 114.5 14.5 c 128,-1,20
 100 29 100 29 100 50 c 2,21,-1
 100 950 l 2,22,23
 100 971 100 971 114.5 985.5 c 128,-1,24
 129 1000 129 1000 150 1000 c 128,-1,25
 171 1000 171 1000 185.5 985.5 c 128,-1,26
 200 971 200 971 200 950 c 2,27,-1
 200 700 l 1,0,-1
EndSplineSet
Validated: 1
EndChar

StartChar: i
Encoding: 105 105 76
Width: 300
Flags: W
LayerCount: 2
Fore
SplineSet
150 700 m 128,-1,1
 171 700 171 700 185.5 685.5 c 128,-1,2
 200 671 200 671 200 650 c 2,3,-1
 200 50 l 2,4,5
 200 29 200 29 185.5 14.5 c 128,-1,6
 171 0 171 0 150 0 c 128,-1,7
 129 0 129 0 114.5 14.5 c 128,-1,8
 100 29 100 29 100 50 c 2,9,-1
 100 650 l 2,10,11
 100 671 100 671 114.5 685.5 c 128,-1,0
 129 700 129 700 150 700 c 128,-1,1
100 950 m 128,-1,13
 100 971 100 971 114.5 985.5 c 128,-1,14
 129 1000 129 1000 150 1000 c 128,-1,15
 171 1000 171 1000 185.5 985.5 c 128,-1,16
 200 971 200 971 200 950 c 128,-1,17
 200 929 200 929 185.5 914.5 c 128,-1,18
 171 900 171 900 150 900 c 128,-1,19
 129 900 129 900 114.5 914.5 c 128,-1,12
 100 929 100 929 100 950 c 128,-1,13
EndSplineSet
Validated: 1
EndChar

StartChar: j
Encoding: 106 106 77
Width: 300
Flags: W
LayerCount: 2
Fore
SplineSet
200 -100 m 6,0,1
 200 -183 200 -183 141.5 -241.5 c 132,-1,2
 83 -300 83 -300 0 -300 c 6,3,-1
 -50 -300 l 6,4,5
 -71 -300 -71 -300 -85.5 -285.5 c 132,-1,6
 -100 -271 -100 -271 -100 -250 c 132,-1,7
 -100 -229 -100 -229 -85.5 -214.5 c 132,-1,8
 -71 -200 -71 -200 -50 -200 c 6,9,-1
 -1 -200 l 6,10,11
 41 -200 41 -200 70.5 -171 c 132,-1,12
 100 -142 100 -142 100 -100 c 6,13,-1
 100 650 l 6,14,15
 100 671 100 671 114.5 685.5 c 132,-1,16
 129 700 129 700 150 700 c 132,-1,17
 171 700 171 700 185.5 685.5 c 132,-1,18
 200 671 200 671 200 650 c 6,19,-1
 200 -100 l 6,0,1
100 950 m 128,-1,21
 100 971 100 971 114.5 985.5 c 128,-1,22
 129 1000 129 1000 150 1000 c 128,-1,23
 171 1000 171 1000 185.5 985.5 c 128,-1,24
 200 971 200 971 200 950 c 128,-1,25
 200 929 200 929 185.5 914.5 c 128,-1,26
 171 900 171 900 150 900 c 128,-1,27
 129 900 129 900 114.5 914.5 c 128,-1,20
 100 929 100 929 100 950 c 128,-1,21
EndSplineSet
Validated: 1
EndChar

StartChar: k
Encoding: 107 107 78
Width: 680
Flags: W
LayerCount: 2
Fore
SplineSet
600 50 m 0,0,1
 600 30 600 30 586 15 c 128,-1,2
 572 0 572 0 550 0 c 0,3,4
 519 0 519 0 505 28 c 2,5,-1
 336 366 l 1,6,-1
 200 229 l 1,7,-1
 200 50 l 2,8,9
 200 29 200 29 185.5 14.5 c 128,-1,10
 171 0 171 0 150 0 c 128,-1,11
 129 0 129 0 114.5 14.5 c 128,-1,12
 100 29 100 29 100 50 c 2,13,-1
 100 950 l 2,14,15
 100 971 100 971 114.5 985.5 c 128,-1,16
 129 1000 129 1000 150 1000 c 128,-1,17
 171 1000 171 1000 185.5 985.5 c 128,-1,18
 200 971 200 971 200 950 c 2,19,-1
 200 371 l 1,20,-1
 515 685 l 2,21,22
 530 700 530 700 550 700 c 128,-1,23
 570 700 570 700 585 685 c 128,-1,24
 600 670 600 670 600 650 c 128,-1,25
 600 630 600 630 585 615 c 2,26,-1
 411 440 l 1,27,-1
 595 72 l 2,28,29
 600 63 600 63 600 50 c 0,0,1
EndSplineSet
Validated: 1
EndChar

StartChar: l
Encoding: 108 108 79
Width: 390
Flags: W
LayerCount: 2
Fore
SplineSet
290 100 m 0,0,1
 311 100 311 100 325.5 85.5 c 128,-1,2
 340 71 340 71 340 50 c 128,-1,3
 340 29 340 29 325.5 14.5 c 128,-1,4
 311 0 311 0 290 0 c 0,5,6
 207 0 207 0 148.5 58.5 c 128,-1,7
 90 117 90 117 90 200 c 2,8,-1
 90 950 l 2,9,10
 90 971 90 971 104.5 985.5 c 128,-1,11
 119 1000 119 1000 140 1000 c 128,-1,12
 161 1000 161 1000 175.5 985.5 c 128,-1,13
 190 971 190 971 190 950 c 2,14,-1
 190 200 l 2,15,16
 190 158 190 158 219 129 c 128,-1,17
 248 100 248 100 290 100 c 0,0,1
EndSplineSet
Validated: 1
EndChar

StartChar: m
Encoding: 109 109 80
Width: 900
Flags: W
LayerCount: 2
Fore
SplineSet
700 500 m 2,0,1
 700 541 700 541 671 570.5 c 128,-1,2
 642 600 642 600 600 600 c 2,3,-1
 500 600 l 1,4,-1
 500 50 l 2,5,6
 500 29 500 29 485.5 14.5 c 128,-1,7
 471 0 471 0 450 0 c 128,-1,8
 429 0 429 0 414.5 14.5 c 128,-1,9
 400 29 400 29 400 50 c 2,10,-1
 400 600 l 1,11,-1
 200 600 l 1,12,-1
 200 50 l 2,13,14
 200 29 200 29 185.5 14.5 c 128,-1,15
 171 0 171 0 150 0 c 128,-1,16
 129 0 129 0 114.5 14.5 c 128,-1,17
 100 29 100 29 100 50 c 2,18,-1
 100 650 l 2,19,20
 100 671 100 671 114.5 685.5 c 128,-1,21
 129 700 129 700 150 700 c 2,22,-1
 600 700 l 2,23,24
 682 700 682 700 741 641 c 128,-1,25
 800 582 800 582 800 500 c 2,26,-1
 800 50 l 2,27,28
 800 29 800 29 785.5 14.5 c 128,-1,29
 771 0 771 0 750 0 c 128,-1,30
 729 0 729 0 714.5 14.5 c 128,-1,31
 700 29 700 29 700 50 c 2,32,-1
 700 500 l 2,0,1
EndSplineSet
Validated: 1
EndChar

StartChar: n
Encoding: 110 110 81
Width: 700
Flags: W
LayerCount: 2
Fore
SplineSet
500 500 m 2,0,1
 500 541 500 541 471 570.5 c 128,-1,2
 442 600 442 600 400 600 c 2,3,-1
 200 600 l 1,4,-1
 200 50 l 2,5,6
 200 29 200 29 185.5 14.5 c 128,-1,7
 171 0 171 0 150 0 c 128,-1,8
 129 0 129 0 114.5 14.5 c 128,-1,9
 100 29 100 29 100 50 c 2,10,-1
 100 650 l 2,11,12
 100 671 100 671 114.5 685.5 c 128,-1,13
 129 700 129 700 150 700 c 2,14,-1
 400 700 l 2,15,16
 482 700 482 700 541 641 c 128,-1,17
 600 582 600 582 600 500 c 2,18,-1
 600 50 l 2,19,20
 600 29 600 29 585.5 14.5 c 128,-1,21
 571 0 571 0 550 0 c 128,-1,22
 529 0 529 0 514.5 14.5 c 128,-1,23
 500 29 500 29 500 50 c 2,24,-1
 500 500 l 2,0,1
EndSplineSet
Validated: 1
EndChar

StartChar: o
Encoding: 111 111 82
Width: 680
Flags: W
LayerCount: 2
Fore
SplineSet
340 720 m 256,0,1
 444 720 444 720 517 647 c 128,-1,2
 590 574 590 574 590 470 c 2,3,-1
 590 230 l 2,4,5
 590 126 590 126 517 53 c 128,-1,6
 444 -20 444 -20 340 -20 c 256,7,8
 236 -20 236 -20 163 53 c 128,-1,9
 90 126 90 126 90 230 c 2,10,-1
 90 470 l 2,11,12
 90 574 90 574 163 647 c 128,-1,13
 236 720 236 720 340 720 c 256,0,1
340 620 m 256,14,15
 278 620 278 620 234 576 c 128,-1,16
 190 532 190 532 190 470 c 2,17,-1
 190 230 l 2,18,19
 190 168 190 168 234 124 c 128,-1,20
 278 80 278 80 340 80 c 256,21,22
 402 80 402 80 446 124 c 128,-1,23
 490 168 490 168 490 230 c 2,24,-1
 490 470 l 2,25,26
 490 532 490 532 446 576 c 128,-1,27
 402 620 402 620 340 620 c 256,14,15
EndSplineSet
Validated: 1
EndChar

StartChar: p
Encoding: 112 112 83
Width: 690
Flags: W
LayerCount: 2
Fore
SplineSet
150 700 m 2,0,-1
 400 700 l 2,1,2
 483 700 483 700 541.5 641.5 c 128,-1,3
 600 583 600 583 600 500 c 2,4,-1
 600 200 l 2,5,6
 600 117 600 117 541.5 58.5 c 128,-1,7
 483 0 483 0 400 0 c 2,8,-1
 200 0 l 1,9,-1
 200 -250 l 2,10,11
 200 -271 200 -271 185.5 -285.5 c 128,-1,12
 171 -300 171 -300 150 -300 c 128,-1,13
 129 -300 129 -300 114.5 -285.5 c 128,-1,14
 100 -271 100 -271 100 -250 c 2,15,-1
 100 650 l 2,16,17
 100 672 100 672 113.5 686 c 128,-1,18
 127 700 127 700 150 700 c 2,0,-1
200 600 m 1,19,-1
 200 100 l 1,20,-1
 400 100 l 2,21,22
 442 100 442 100 471 129 c 128,-1,23
 500 158 500 158 500 200 c 2,24,-1
 500 500 l 2,25,26
 500 542 500 542 471 571 c 128,-1,27
 442 600 442 600 400 600 c 2,28,-1
 200 600 l 1,19,-1
EndSplineSet
Validated: 1
EndChar

StartChar: q
Encoding: 113 113 84
Width: 690
Flags: W
LayerCount: 2
Fore
SplineSet
540 700 m 2,0,1
 563 700 563 700 576.5 686 c 128,-1,2
 590 672 590 672 590 650 c 2,3,-1
 590 -250 l 2,4,5
 590 -271 590 -271 575.5 -285.5 c 128,-1,6
 561 -300 561 -300 540 -300 c 128,-1,7
 519 -300 519 -300 504.5 -285.5 c 128,-1,8
 490 -271 490 -271 490 -250 c 2,9,-1
 490 0 l 1,10,-1
 290 0 l 2,11,12
 207 0 207 0 148.5 58.5 c 128,-1,13
 90 117 90 117 90 200 c 2,14,-1
 90 500 l 2,15,16
 90 583 90 583 148.5 641.5 c 128,-1,17
 207 700 207 700 290 700 c 2,18,-1
 540 700 l 2,0,1
490 600 m 1,19,-1
 290 600 l 2,20,21
 248 600 248 600 219 571 c 128,-1,22
 190 542 190 542 190 500 c 2,23,-1
 190 200 l 2,24,25
 190 158 190 158 219 129 c 128,-1,26
 248 100 248 100 290 100 c 2,27,-1
 490 100 l 1,28,-1
 490 600 l 1,19,-1
EndSplineSet
Validated: 1
EndChar

StartChar: r
Encoding: 114 114 85
Width: 550
Flags: W
LayerCount: 2
Fore
SplineSet
150 700 m 2,0,-1
 350 700 l 2,1,2
 412 700 412 700 456 656 c 128,-1,3
 500 612 500 612 500 550 c 0,4,5
 500 529 500 529 485.5 514.5 c 128,-1,6
 471 500 471 500 450 500 c 128,-1,7
 429 500 429 500 414.5 514.5 c 128,-1,8
 400 529 400 529 400 550 c 128,-1,9
 400 571 400 571 385.5 585.5 c 128,-1,10
 371 600 371 600 350 600 c 2,11,-1
 200 600 l 1,12,-1
 200 50 l 2,13,14
 200 29 200 29 185.5 14.5 c 128,-1,15
 171 0 171 0 150 0 c 128,-1,16
 129 0 129 0 114.5 14.5 c 128,-1,17
 100 29 100 29 100 50 c 2,18,-1
 100 650 l 2,19,20
 100 671 100 671 114.5 685.5 c 128,-1,21
 129 700 129 700 150 700 c 2,0,-1
EndSplineSet
Validated: 1
EndChar

StartChar: s
Encoding: 115 115 86
Width: 680
Flags: W
LayerCount: 2
Fore
SplineSet
340 720 m 0,0,1
 491 720 491 720 554 657 c 0,2,3
 570 641 570 641 570 620 c 128,-1,4
 570 599 570 599 555.5 584.5 c 128,-1,5
 541 570 541 570 520 570 c 128,-1,6
 499 570 499 570 484 585 c 0,7,8
 449 620 449 620 340 620 c 0,9,10
 261 620 261 620 221 600 c 0,11,12
 202 591 202 591 196 581.5 c 128,-1,13
 190 572 190 572 190 550 c 0,14,15
 190 526 190 526 196.5 516.5 c 128,-1,16
 203 507 203 507 227 492 c 2,17,-1
 497 322 l 2,18,19
 538 296 538 296 564 257 c 128,-1,20
 590 218 590 218 590 170 c 0,21,22
 590 78 590 78 527.5 29 c 128,-1,23
 465 -20 465 -20 340 -20 c 0,24,25
 280 -20 280 -20 215 2 c 128,-1,26
 150 24 150 24 106 63 c 0,27,28
 90 79 90 79 90 100 c 128,-1,29
 90 121 90 121 104.5 135.5 c 128,-1,30
 119 150 119 150 140 150 c 0,31,32
 154 150 154 150 166 143 c 0,33,34
 253 80 253 80 340 80 c 0,35,36
 490 80 490 80 490 170 c 0,37,38
 490 195 490 195 480 208 c 128,-1,39
 470 221 470 221 443 238 c 2,40,-1
 173 408 l 2,41,42
 137 430 137 430 113.5 467 c 128,-1,43
 90 504 90 504 90 550 c 0,44,45
 90 595 90 595 114 632 c 128,-1,46
 138 669 138 669 176 689 c 0,47,48
 234 720 234 720 340 720 c 0,0,1
EndSplineSet
Validated: 1
EndChar

StartChar: t
Encoding: 116 116 87
Width: 460
Flags: W
LayerCount: 2
Fore
SplineSet
180 1000 m 128,-1,1
 201 1000 201 1000 215.5 985.5 c 128,-1,2
 230 971 230 971 230 950 c 2,3,-1
 230 700 l 1,4,-1
 380 700 l 2,5,6
 401 700 401 700 415.5 685.5 c 128,-1,7
 430 671 430 671 430 650 c 128,-1,8
 430 629 430 629 415.5 614.5 c 128,-1,9
 401 600 401 600 380 600 c 2,10,-1
 230 600 l 1,11,-1
 230 50 l 2,12,13
 230 29 230 29 215.5 14.5 c 128,-1,14
 201 0 201 0 180 0 c 128,-1,15
 159 0 159 0 144.5 14.5 c 128,-1,16
 130 29 130 29 130 50 c 2,17,-1
 130 600 l 1,18,-1
 80 600 l 2,19,20
 59 600 59 600 44.5 614.5 c 128,-1,21
 30 629 30 629 30 650 c 128,-1,22
 30 671 30 671 44.5 685.5 c 128,-1,23
 59 700 59 700 80 700 c 2,24,-1
 130 700 l 1,25,-1
 130 950 l 2,26,27
 130 971 130 971 144.5 985.5 c 128,-1,0
 159 1000 159 1000 180 1000 c 128,-1,1
EndSplineSet
Validated: 1
EndChar

StartChar: v
Encoding: 118 118 89
Width: 620
Flags: W
LayerCount: 2
Fore
SplineSet
60 650 m 0,0,1
 60 670 60 670 74.5 685 c 128,-1,2
 89 700 89 700 111 700 c 0,3,4
 146 700 146 700 158 665 c 2,5,-1
 310 207 l 1,6,-1
 462 665 l 2,7,8
 474 700 474 700 509 700 c 0,9,10
 531 700 531 700 545.5 685 c 128,-1,11
 560 670 560 670 560 650 c 0,12,13
 560 642 560 642 557 634 c 2,14,-1
 359 40 l 2,15,16
 345 0 345 0 310 0 c 128,-1,17
 275 0 275 0 261 40 c 2,18,-1
 63 634 l 2,19,20
 60 642 60 642 60 650 c 0,0,1
EndSplineSet
Validated: 1
EndChar

StartChar: w
Encoding: 119 119 90
Width: 820
Flags: W
LayerCount: 2
Fore
SplineSet
560 0 m 0,0,1
 525 0 525 0 513 32 c 2,2,-1
 410 309 l 1,3,-1
 307 32 l 2,4,5
 295 0 295 0 260 0 c 0,6,7
 243 0 243 0 229 10.5 c 128,-1,8
 215 21 215 21 211 38 c 2,9,-1
 61 638 l 2,10,11
 60 642 60 642 60 651 c 0,12,13
 60 671 60 671 74 685.5 c 128,-1,14
 88 700 88 700 110 700 c 0,15,16
 127 700 127 700 140.5 689.5 c 128,-1,17
 154 679 154 679 158 662 c 2,18,-1
 269 217 l 1,19,-1
 363 467 l 2,20,21
 377 500 377 500 410 500 c 128,-1,22
 443 500 443 500 457 467 c 2,23,-1
 551 217 l 1,24,-1
 662 662 l 2,25,26
 666 679 666 679 679.5 689.5 c 128,-1,27
 693 700 693 700 710 700 c 0,28,29
 732 700 732 700 746 685.5 c 128,-1,30
 760 671 760 671 760 651 c 0,31,32
 760 642 760 642 759 638 c 2,33,-1
 609 38 l 2,34,35
 605 21 605 21 591 10.5 c 128,-1,36
 577 0 577 0 560 0 c 0,0,1
EndSplineSet
Validated: 1
EndChar

StartChar: x
Encoding: 120 120 91
Width: 640
Flags: W
LayerCount: 2
Fore
SplineSet
70 649 m 0,0,1
 70 669 70 669 85 684.5 c 128,-1,2
 100 700 100 700 121 700 c 0,3,4
 146 700 146 700 162 678 c 2,5,-1
 320 441 l 1,6,-1
 477 677 l 2,7,8
 492 700 492 700 519 700 c 0,9,10
 540 700 540 700 555 684 c 128,-1,11
 570 668 570 668 570 649 c 0,12,13
 570 633 570 633 561 621 c 2,14,-1
 380 350 l 1,15,-1
 561 79 l 2,16,17
 570 67 570 67 570 51 c 0,18,19
 570 32 570 32 555 16 c 128,-1,20
 540 0 540 0 519 0 c 0,21,22
 492 0 492 0 477 23 c 2,23,-1
 320 259 l 1,24,-1
 162 22 l 2,25,26
 146 0 146 0 121 0 c 0,27,28
 100 0 100 0 85 15.5 c 128,-1,29
 70 31 70 31 70 51 c 0,30,31
 70 66 70 66 79 78 c 2,32,-1
 260 350 l 1,33,-1
 79 622 l 2,34,35
 70 634 70 634 70 649 c 0,0,1
EndSplineSet
Validated: 1
EndChar

StartChar: y
Encoding: 121 121 92
Width: 630
Flags: W
LayerCount: 2
Fore
SplineSet
120 700 m 0,0,1
 155 700 155 700 167 666 c 2,2,-1
 320 208 l 1,3,-1
 473 666 l 2,4,5
 485 700 485 700 520 700 c 0,6,7
 541 700 541 700 555.5 685.5 c 128,-1,8
 570 671 570 671 570 650 c 0,9,10
 570 642 570 642 567 634 c 2,11,-1
 301 -166 l 2,12,13
 280 -229 280 -229 237 -263 c 0,14,15
 190 -300 190 -300 120 -300 c 0,16,17
 99 -300 99 -300 84.5 -285.5 c 128,-1,18
 70 -271 70 -271 70 -250 c 128,-1,19
 70 -229 70 -229 84.5 -214.5 c 128,-1,20
 99 -200 99 -200 120 -200 c 0,21,22
 157 -200 157 -200 175 -185 c 0,23,24
 194 -169 194 -169 206 -134 c 2,25,-1
 267 50 l 1,26,-1
 73 634 l 2,27,28
 70 642 70 642 70 650 c 0,29,30
 70 671 70 671 84.5 685.5 c 128,-1,31
 99 700 99 700 120 700 c 0,0,1
EndSplineSet
Validated: 1
EndChar

StartChar: z
Encoding: 122 122 93
Width: 650
Flags: W
LayerCount: 2
Fore
SplineSet
130 0 m 2,0,1
 109 0 109 0 94.5 15.5 c 128,-1,2
 80 31 80 31 80 50 c 0,3,4
 80 64 80 64 89 78 c 2,5,-1
 437 600 l 1,6,-1
 130 600 l 2,7,8
 109 600 109 600 94.5 614.5 c 128,-1,9
 80 629 80 629 80 650 c 128,-1,10
 80 671 80 671 94.5 685.5 c 128,-1,11
 109 700 109 700 130 700 c 2,12,-1
 530 700 l 2,13,14
 551 700 551 700 565.5 685.5 c 128,-1,15
 580 671 580 671 580 650 c 0,16,17
 580 634 580 634 571 621 c 2,18,-1
 224 100 l 1,19,-1
 530 100 l 2,20,21
 551 100 551 100 565.5 85.5 c 128,-1,22
 580 71 580 71 580 50 c 128,-1,23
 580 29 580 29 565.5 14.5 c 128,-1,24
 551 0 551 0 530 0 c 2,25,-1
 130 0 l 2,0,1
EndSplineSet
Validated: 1
EndChar

StartChar: braceleft
Encoding: 123 123 94
Width: 500
Flags: W
LayerCount: 2
Fore
SplineSet
350 1100 m 0,0,1
 371 1100 371 1100 385.5 1085.5 c 128,-1,2
 400 1071 400 1071 400 1050 c 128,-1,3
 400 1029 400 1029 385.5 1014.5 c 128,-1,4
 371 1000 371 1000 350 1000 c 128,-1,5
 329 1000 329 1000 314.5 985.5 c 128,-1,6
 300 971 300 971 300 950 c 2,7,-1
 300 600 l 2,8,9
 300 543 300 543 262 500 c 1,10,11
 300 457 300 457 300 400 c 2,12,-1
 300 50 l 2,13,14
 300 29 300 29 314.5 14.5 c 128,-1,15
 329 0 329 0 350 0 c 128,-1,16
 371 0 371 0 385.5 -14.5 c 128,-1,17
 400 -29 400 -29 400 -50 c 128,-1,18
 400 -71 400 -71 385.5 -85.5 c 128,-1,19
 371 -100 371 -100 350 -100 c 0,20,21
 288 -100 288 -100 244 -56 c 128,-1,22
 200 -12 200 -12 200 50 c 2,23,-1
 200 400 l 2,24,25
 200 421 200 421 185.5 435.5 c 128,-1,26
 171 450 171 450 150 450 c 128,-1,27
 129 450 129 450 114.5 464.5 c 128,-1,28
 100 479 100 479 100 500 c 128,-1,29
 100 521 100 521 114.5 535.5 c 128,-1,30
 129 550 129 550 150 550 c 128,-1,31
 171 550 171 550 185.5 564.5 c 128,-1,32
 200 579 200 579 200 600 c 2,33,-1
 200 950 l 2,34,35
 200 1012 200 1012 244 1056 c 128,-1,36
 288 1100 288 1100 350 1100 c 0,0,1
EndSplineSet
Validated: 1
EndChar

StartChar: bar
Encoding: 124 124 95
Width: 300
Flags: W
LayerCount: 2
Fore
SplineSet
150 1100 m 128,-1,1
 171 1100 171 1100 185.5 1085.5 c 128,-1,2
 200 1071 200 1071 200 1050 c 2,3,-1
 200 -50 l 2,4,5
 200 -71 200 -71 185.5 -85.5 c 128,-1,6
 171 -100 171 -100 150 -100 c 128,-1,7
 129 -100 129 -100 114.5 -85.5 c 128,-1,8
 100 -71 100 -71 100 -50 c 2,9,-1
 100 1050 l 2,10,11
 100 1071 100 1071 114.5 1085.5 c 128,-1,0
 129 1100 129 1100 150 1100 c 128,-1,1
EndSplineSet
Validated: 1
EndChar

StartChar: braceright
Encoding: 125 125 96
Width: 500
Flags: W
LayerCount: 2
Fore
SplineSet
150 1100 m 0,0,1
 212 1100 212 1100 256 1056 c 128,-1,2
 300 1012 300 1012 300 950 c 2,3,-1
 300 600 l 2,4,5
 300 579 300 579 314.5 564.5 c 128,-1,6
 329 550 329 550 350 550 c 128,-1,7
 371 550 371 550 385.5 535.5 c 128,-1,8
 400 521 400 521 400 500 c 128,-1,9
 400 479 400 479 385.5 464.5 c 128,-1,10
 371 450 371 450 350 450 c 128,-1,11
 329 450 329 450 314.5 435.5 c 128,-1,12
 300 421 300 421 300 400 c 2,13,-1
 300 50 l 2,14,15
 300 -12 300 -12 256 -56 c 128,-1,16
 212 -100 212 -100 150 -100 c 0,17,18
 129 -100 129 -100 114.5 -85.5 c 128,-1,19
 100 -71 100 -71 100 -50 c 128,-1,20
 100 -29 100 -29 114.5 -14.5 c 128,-1,21
 129 0 129 0 150 0 c 128,-1,22
 171 0 171 0 185.5 14.5 c 128,-1,23
 200 29 200 29 200 50 c 2,24,-1
 200 400 l 2,25,26
 200 457 200 457 238 500 c 1,27,28
 200 543 200 543 200 600 c 2,29,-1
 200 950 l 2,30,31
 200 971 200 971 185.5 985.5 c 128,-1,32
 171 1000 171 1000 150 1000 c 128,-1,33
 129 1000 129 1000 114.5 1014.5 c 128,-1,34
 100 1029 100 1029 100 1050 c 128,-1,35
 100 1071 100 1071 114.5 1085.5 c 128,-1,36
 129 1100 129 1100 150 1100 c 0,0,1
EndSplineSet
Validated: 1
EndChar

StartChar: asciitilde
Encoding: 126 126 97
Width: 800
Flags: W
LayerCount: 2
Fore
SplineSet
275 450 m 128,-1,1
 368 450 368 450 435 386 c 0,2,3
 472 350 472 350 525 350 c 128,-1,4
 578 350 578 350 615 386 c 0,5,6
 629 400 629 400 650 400 c 128,-1,7
 671 400 671 400 685.5 385.5 c 128,-1,8
 700 371 700 371 700 350 c 128,-1,9
 700 329 700 329 684 313 c 0,10,11
 618 250 618 250 525 250 c 128,-1,12
 432 250 432 250 365 314 c 0,13,14
 328 350 328 350 275 350 c 0,15,16
 223 350 223 350 185 315 c 0,17,18
 168 300 168 300 150 300 c 0,19,20
 129 300 129 300 114.5 314.5 c 128,-1,21
 100 329 100 329 100 350 c 128,-1,22
 100 371 100 371 116 387 c 0,23,0
 182 450 182 450 275 450 c 128,-1,1
EndSplineSet
Validated: 1
EndChar

StartChar: exclamdown
Encoding: 161 161 99
Width: 300
Flags: W
LayerCount: 2
Fore
SplineSet
150 0 m 128,-1,1
 129 0 129 0 114.5 14.5 c 128,-1,2
 100 29 100 29 100 50 c 2,3,-1
 100 700 l 2,4,5
 100 721 100 721 114.5 735.5 c 128,-1,6
 129 750 129 750 150 750 c 128,-1,7
 171 750 171 750 185.5 735.5 c 128,-1,8
 200 721 200 721 200 700 c 2,9,-1
 200 50 l 2,10,11
 200 29 200 29 185.5 14.5 c 128,-1,0
 171 0 171 0 150 0 c 128,-1,1
100 950 m 128,-1,13
 100 971 100 971 114.5 985.5 c 128,-1,14
 129 1000 129 1000 150 1000 c 128,-1,15
 171 1000 171 1000 185.5 985.5 c 128,-1,16
 200 971 200 971 200 950 c 128,-1,17
 200 929 200 929 185.5 914.5 c 128,-1,18
 171 900 171 900 150 900 c 128,-1,19
 129 900 129 900 114.5 914.5 c 128,-1,12
 100 929 100 929 100 950 c 128,-1,13
EndSplineSet
Validated: 1
EndChar

StartChar: cent
Encoding: 162 162 100
Width: 700
Flags: W
LayerCount: 2
Fore
SplineSet
400 850 m 128,-1,1
 421 850 421 850 435.5 835.5 c 128,-1,2
 450 821 450 821 450 800 c 2,3,-1
 450 700 l 1,4,-1
 550 700 l 2,5,6
 571 700 571 700 585.5 685.5 c 128,-1,7
 600 671 600 671 600 650 c 128,-1,8
 600 629 600 629 585.5 614.5 c 128,-1,9
 571 600 571 600 550 600 c 2,10,-1
 450 600 l 1,11,-1
 450 100 l 1,12,-1
 550 100 l 2,13,14
 571 100 571 100 585.5 85.5 c 128,-1,15
 600 71 600 71 600 50 c 128,-1,16
 600 29 600 29 585.5 14.5 c 128,-1,17
 571 0 571 0 550 0 c 2,18,-1
 450 0 l 1,19,-1
 450 -100 l 2,20,21
 450 -121 450 -121 435.5 -135.5 c 128,-1,22
 421 -150 421 -150 400 -150 c 128,-1,23
 379 -150 379 -150 364.5 -135.5 c 128,-1,24
 350 -121 350 -121 350 -100 c 2,25,-1
 350 0 l 1,26,-1
 300 0 l 2,27,28
 218 0 218 0 159 59 c 128,-1,29
 100 118 100 118 100 200 c 2,30,-1
 100 500 l 2,31,32
 100 582 100 582 159 641 c 128,-1,33
 218 700 218 700 300 700 c 2,34,-1
 350 700 l 1,35,-1
 350 800 l 2,36,37
 350 821 350 821 364.5 835.5 c 128,-1,0
 379 850 379 850 400 850 c 128,-1,1
300 600 m 2,38,39
 259 600 259 600 229.5 570.5 c 128,-1,40
 200 541 200 541 200 500 c 2,41,-1
 200 200 l 2,42,43
 200 159 200 159 229.5 129.5 c 128,-1,44
 259 100 259 100 300 100 c 2,45,-1
 350 100 l 1,46,-1
 350 600 l 1,47,-1
 300 600 l 2,38,39
EndSplineSet
Validated: 1
EndChar

StartChar: sterling
Encoding: 163 163 101
Width: 900
Flags: W
LayerCount: 2
Fore
SplineSet
500 1030 m 128,-1,1
 604 1030 604 1030 677 957 c 128,-1,2
 750 884 750 884 750 780 c 0,3,4
 750 759 750 759 735.5 744.5 c 128,-1,5
 721 730 721 730 700 730 c 128,-1,6
 679 730 679 730 664.5 744.5 c 128,-1,7
 650 759 650 759 650 780 c 0,8,9
 650 842 650 842 606 886 c 128,-1,10
 562 930 562 930 500 930 c 128,-1,11
 438 930 438 930 394 886 c 128,-1,12
 350 842 350 842 350 780 c 2,13,-1
 350 550 l 1,14,-1
 500 550 l 2,15,16
 521 550 521 550 535.5 535.5 c 128,-1,17
 550 521 550 521 550 500 c 128,-1,18
 550 479 550 479 535.5 464.5 c 128,-1,19
 521 450 521 450 500 450 c 2,20,-1
 350 450 l 1,21,-1
 350 200 l 2,22,23
 350 146 350 146 323 100 c 1,24,-1
 600 100 l 2,25,26
 641 100 641 100 670.5 129.5 c 128,-1,27
 700 159 700 159 700 200 c 0,28,29
 700 221 700 221 714.5 235.5 c 128,-1,30
 729 250 729 250 750 250 c 128,-1,31
 771 250 771 250 785.5 235.5 c 128,-1,32
 800 221 800 221 800 200 c 0,33,34
 800 118 800 118 741 59 c 128,-1,35
 682 0 682 0 600 0 c 2,36,-1
 150 0 l 2,37,38
 129 0 129 0 114.5 14.5 c 128,-1,39
 100 29 100 29 100 50 c 128,-1,40
 100 71 100 71 114.5 85.5 c 128,-1,41
 129 100 129 100 150 100 c 0,42,43
 191 100 191 100 220.5 129.5 c 128,-1,44
 250 159 250 159 250 200 c 2,45,-1
 250 450 l 1,46,-1
 150 450 l 2,47,48
 129 450 129 450 114.5 464.5 c 128,-1,49
 100 479 100 479 100 500 c 128,-1,50
 100 521 100 521 114.5 535.5 c 128,-1,51
 129 550 129 550 150 550 c 2,52,-1
 250 550 l 1,53,-1
 250 780 l 2,54,55
 250 884 250 884 323 957 c 128,-1,0
 396 1030 396 1030 500 1030 c 128,-1,1
EndSplineSet
Validated: 1
EndChar

StartChar: currency
Encoding: 164 164 102
Width: 1000
Flags: W
LayerCount: 2
Fore
SplineSet
150 900 m 0,0,1
 170 900 170 900 185 885 c 2,2,-1
 255 816 l 1,3,4
 363 900 363 900 500 900 c 128,-1,5
 637 900 637 900 745 816 c 1,6,-1
 815 885 l 2,7,8
 830 900 830 900 850 900 c 0,9,10
 871 900 871 900 885.5 885.5 c 128,-1,11
 900 871 900 871 900 850 c 0,12,13
 900 830 900 830 885 815 c 2,14,-1
 816 745 l 1,15,16
 900 637 900 637 900 500 c 128,-1,17
 900 363 900 363 816 255 c 1,18,-1
 885 185 l 2,19,20
 900 170 900 170 900 150 c 0,21,22
 900 129 900 129 885.5 114.5 c 128,-1,23
 871 100 871 100 850 100 c 0,24,25
 830 100 830 100 815 115 c 2,26,-1
 745 184 l 1,27,28
 637 100 637 100 500 100 c 128,-1,29
 363 100 363 100 255 184 c 1,30,-1
 185 115 l 2,31,32
 170 100 170 100 150 100 c 0,33,34
 129 100 129 100 114.5 114.5 c 128,-1,35
 100 129 100 129 100 150 c 0,36,37
 100 170 100 170 115 185 c 2,38,-1
 184 255 l 1,39,40
 100 363 100 363 100 500 c 128,-1,41
 100 637 100 637 184 745 c 1,42,-1
 115 815 l 2,43,44
 100 830 100 830 100 850 c 0,45,46
 100 871 100 871 114.5 885.5 c 128,-1,47
 129 900 129 900 150 900 c 0,0,1
500 800 m 128,-1,49
 376 800 376 800 288 712 c 128,-1,50
 200 624 200 624 200 500 c 128,-1,51
 200 376 200 376 288 288 c 128,-1,52
 376 200 376 200 500 200 c 128,-1,53
 624 200 624 200 712 288 c 128,-1,54
 800 376 800 376 800 500 c 128,-1,55
 800 624 800 624 712 712 c 128,-1,48
 624 800 624 800 500 800 c 128,-1,49
EndSplineSet
Validated: 1
EndChar

StartChar: yen
Encoding: 165 165 103
Width: 900
Flags: W
LayerCount: 2
Fore
SplineSet
150 1000 m 0,0,1
 175 1000 175 1000 190 980 c 2,2,-1
 450 633 l 1,3,-1
 710 980 l 2,4,5
 725 1000 725 1000 750 1000 c 0,6,7
 771 1000 771 1000 785.5 985.5 c 128,-1,8
 800 971 800 971 800 950 c 0,9,10
 800 933 800 933 790 920 c 2,11,-1
 550 600 l 1,12,-1
 700 600 l 2,13,14
 721 600 721 600 735.5 585.5 c 128,-1,15
 750 571 750 571 750 550 c 128,-1,16
 750 529 750 529 735.5 514.5 c 128,-1,17
 721 500 721 500 700 500 c 2,18,-1
 500 500 l 1,19,-1
 500 400 l 1,20,-1
 700 400 l 2,21,22
 721 400 721 400 735.5 385.5 c 128,-1,23
 750 371 750 371 750 350 c 128,-1,24
 750 329 750 329 735.5 314.5 c 128,-1,25
 721 300 721 300 700 300 c 2,26,-1
 500 300 l 1,27,-1
 500 50 l 2,28,29
 500 29 500 29 485.5 14.5 c 128,-1,30
 471 0 471 0 450 0 c 128,-1,31
 429 0 429 0 414.5 14.5 c 128,-1,32
 400 29 400 29 400 50 c 2,33,-1
 400 300 l 1,34,-1
 200 300 l 2,35,36
 179 300 179 300 164.5 314.5 c 128,-1,37
 150 329 150 329 150 350 c 128,-1,38
 150 371 150 371 164.5 385.5 c 128,-1,39
 179 400 179 400 200 400 c 2,40,-1
 400 400 l 1,41,-1
 400 500 l 1,42,-1
 200 500 l 2,43,44
 179 500 179 500 164.5 514.5 c 128,-1,45
 150 529 150 529 150 550 c 128,-1,46
 150 571 150 571 164.5 585.5 c 128,-1,47
 179 600 179 600 200 600 c 2,48,-1
 350 600 l 1,49,-1
 110 920 l 2,50,51
 100 933 100 933 100 950 c 0,52,53
 100 971 100 971 114.5 985.5 c 128,-1,54
 129 1000 129 1000 150 1000 c 0,0,1
EndSplineSet
Validated: 1
EndChar

StartChar: brokenbar
Encoding: 166 166 104
Width: 300
Flags: W
LayerCount: 2
Fore
SplineSet
150 1100 m 128,-1,1
 171 1100 171 1100 185.5 1085.5 c 128,-1,2
 200 1071 200 1071 200 1050 c 2,3,-1
 200 600 l 2,4,5
 200 579 200 579 185.5 564.5 c 128,-1,6
 171 550 171 550 150 550 c 128,-1,7
 129 550 129 550 114.5 564.5 c 128,-1,8
 100 579 100 579 100 600 c 2,9,-1
 100 1050 l 2,10,11
 100 1071 100 1071 114.5 1085.5 c 128,-1,0
 129 1100 129 1100 150 1100 c 128,-1,1
150 450 m 128,-1,13
 171 450 171 450 185.5 435.5 c 128,-1,14
 200 421 200 421 200 400 c 2,15,-1
 200 -50 l 2,16,17
 200 -71 200 -71 185.5 -85.5 c 128,-1,18
 171 -100 171 -100 150 -100 c 128,-1,19
 129 -100 129 -100 114.5 -85.5 c 128,-1,20
 100 -71 100 -71 100 -50 c 2,21,-1
 100 400 l 2,22,23
 100 421 100 421 114.5 435.5 c 128,-1,12
 129 450 129 450 150 450 c 128,-1,13
EndSplineSet
Validated: 1
EndChar

StartChar: section
Encoding: 167 167 105
Width: 700
Flags: W
LayerCount: 2
Fore
SplineSet
350 1100 m 0,0,1
 455 1100 455 1100 531 1039 c 0,2,3
 550 1023 550 1023 550 1000 c 0,4,5
 550 979 550 979 535.5 964.5 c 128,-1,6
 521 950 521 950 500 950 c 0,7,8
 483 950 483 950 468 962 c 0,9,10
 419 1000 419 1000 350 1000 c 0,11,12
 309 1000 309 1000 279.5 970.5 c 128,-1,13
 250 941 250 941 250 900 c 0,14,15
 250 858 250 858 279 829 c 2,16,-1
 541 567 l 2,17,18
 600 508 600 508 600 426 c 0,19,20
 600 343 600 343 541 284 c 2,21,-1
 495 238 l 1,22,23
 550 180 550 180 550 100 c 0,24,25
 550 18 550 18 491 -41 c 128,-1,26
 432 -100 432 -100 350 -100 c 0,27,28
 245 -100 245 -100 169 -39 c 0,29,30
 150 -23 150 -23 150 0 c 0,31,32
 150 21 150 21 164.5 35.5 c 128,-1,33
 179 50 179 50 200 50 c 0,34,35
 217 50 217 50 232 38 c 0,36,37
 281 0 281 0 350 0 c 0,38,39
 391 0 391 0 420.5 29.5 c 128,-1,40
 450 59 450 59 450 100 c 0,41,42
 450 142 450 142 421 171 c 2,43,-1
 159 433 l 2,44,45
 100 492 100 492 100 574 c 0,46,47
 100 657 100 657 159 716 c 2,48,-1
 205 762 l 1,49,50
 150 820 150 820 150 900 c 0,51,52
 150 982 150 982 209 1041 c 128,-1,53
 268 1100 268 1100 350 1100 c 0,0,1
276 691 m 1,54,-1
 229 645 l 2,55,56
 200 616 200 616 200 574 c 0,57,58
 200 533 200 533 229 504 c 2,59,-1
 424 309 l 1,60,-1
 471 355 l 2,61,62
 500 384 500 384 500 426 c 0,63,64
 500 467 500 467 471 496 c 2,65,-1
 276 691 l 1,54,-1
EndSplineSet
Validated: 1
EndChar

StartChar: dieresis
Encoding: 168 168 106
Width: 500
Flags: W
LayerCount: 2
Fore
SplineSet
200 950 m 128,-1,1
 200 929 200 929 185.5 914.5 c 128,-1,2
 171 900 171 900 150 900 c 128,-1,3
 129 900 129 900 114.5 914.5 c 128,-1,4
 100 929 100 929 100 950 c 128,-1,5
 100 971 100 971 114.5 985.5 c 128,-1,6
 129 1000 129 1000 150 1000 c 128,-1,7
 171 1000 171 1000 185.5 985.5 c 128,-1,0
 200 971 200 971 200 950 c 128,-1,1
400 950 m 128,-1,9
 400 929 400 929 385.5 914.5 c 128,-1,10
 371 900 371 900 350 900 c 128,-1,11
 329 900 329 900 314.5 914.5 c 128,-1,12
 300 929 300 929 300 950 c 128,-1,13
 300 971 300 971 314.5 985.5 c 128,-1,14
 329 1000 329 1000 350 1000 c 128,-1,15
 371 1000 371 1000 385.5 985.5 c 128,-1,8
 400 971 400 971 400 950 c 128,-1,9
EndSplineSet
Validated: 1
EndChar

StartChar: copyright
Encoding: 169 169 107
Width: 1260
Flags: W
LayerCount: 2
Fore
SplineSet
630 1030 m 128,-1,1
 774 1030 774 1030 896 959 c 128,-1,2
 1018 888 1018 888 1089 766 c 128,-1,3
 1160 644 1160 644 1160 500 c 128,-1,4
 1160 356 1160 356 1089 234 c 128,-1,5
 1018 112 1018 112 896 41 c 128,-1,6
 774 -30 774 -30 630 -30 c 128,-1,7
 486 -30 486 -30 364 41 c 128,-1,8
 242 112 242 112 171 234 c 128,-1,9
 100 356 100 356 100 500 c 128,-1,10
 100 644 100 644 171 766 c 128,-1,11
 242 888 242 888 364 959 c 128,-1,0
 486 1030 486 1030 630 1030 c 128,-1,1
630 960 m 128,-1,13
 440 960 440 960 305 825 c 128,-1,14
 170 690 170 690 170 500 c 128,-1,15
 170 310 170 310 305 175 c 128,-1,16
 440 40 440 40 630 40 c 128,-1,17
 820 40 820 40 955 175 c 128,-1,18
 1090 310 1090 310 1090 500 c 128,-1,19
 1090 690 1090 690 955 825 c 128,-1,12
 820 960 820 960 630 960 c 128,-1,13
610 850 m 2,20,-1
 715 850 l 2,21,22
 729 850 729 850 739.5 839.5 c 128,-1,23
 750 829 750 829 750 815 c 128,-1,24
 750 801 750 801 739.5 790.5 c 128,-1,25
 729 780 729 780 715 780 c 2,26,-1
 610 780 l 2,27,28
 552 780 552 780 511 739 c 128,-1,29
 470 698 470 698 470 640 c 2,30,-1
 470 360 l 2,31,32
 470 302 470 302 511 261 c 128,-1,33
 552 220 552 220 610 220 c 2,34,-1
 715 220 l 2,35,36
 729 220 729 220 739.5 209.5 c 128,-1,37
 750 199 750 199 750 185 c 128,-1,38
 750 171 750 171 739.5 160.5 c 128,-1,39
 729 150 729 150 715 150 c 2,40,-1
 610 150 l 2,41,42
 523 150 523 150 461.5 211.5 c 128,-1,43
 400 273 400 273 400 360 c 2,44,-1
 400 640 l 2,45,46
 400 727 400 727 461.5 788.5 c 128,-1,47
 523 850 523 850 610 850 c 2,20,-1
EndSplineSet
Validated: 1
EndChar

StartChar: ordfeminine
Encoding: 170 170 108
Width: 570
Flags: W
LayerCount: 2
Fore
SplineSet
240 1000 m 2,0,-1
 415 1000 l 2,1,2
 429 1000 429 1000 439.5 989.5 c 128,-1,3
 450 979 450 979 450 965 c 2,4,-1
 450 615 l 2,5,6
 450 601 450 601 460.5 590.5 c 128,-1,7
 471 580 471 580 485 580 c 128,-1,8
 499 580 499 580 509.5 569.5 c 128,-1,9
 520 559 520 559 520 545 c 128,-1,10
 520 531 520 531 509.5 520.5 c 128,-1,11
 499 510 499 510 485 510 c 0,12,13
 433 510 433 510 402 551 c 1,14,15
 350 496 350 496 275 496 c 0,16,17
 202 496 202 496 151 547 c 128,-1,18
 100 598 100 598 100 671 c 2,19,-1
 100 860 l 2,20,21
 100 918 100 918 141 959 c 128,-1,22
 182 1000 182 1000 240 1000 c 2,0,-1
240 930 m 2,23,24
 211 930 211 930 190.5 909.5 c 128,-1,25
 170 889 170 889 170 860 c 2,26,-1
 170 671 l 2,27,28
 170 628 170 628 201 597 c 128,-1,29
 232 566 232 566 275 566 c 128,-1,30
 318 566 318 566 349 597 c 128,-1,31
 380 628 380 628 380 671 c 2,32,-1
 380 930 l 1,33,-1
 240 930 l 2,23,24
EndSplineSet
Validated: 1
EndChar

StartChar: guillemotleft
Encoding: 171 171 109
Width: 700
Flags: W
LayerCount: 2
Fore
SplineSet
300 600 m 0,0,1
 321 600 321 600 335.5 585.5 c 128,-1,2
 350 571 350 571 350 550 c 0,3,4
 350 533 350 533 340 520 c 2,5,-1
 212 350 l 1,6,-1
 340 180 l 2,7,8
 350 167 350 167 350 150 c 0,9,10
 350 129 350 129 335.5 114.5 c 128,-1,11
 321 100 321 100 300 100 c 0,12,13
 275 100 275 100 260 120 c 2,14,-1
 110 320 l 2,15,16
 100 333 100 333 100 350 c 128,-1,17
 100 367 100 367 110 380 c 2,18,-1
 260 580 l 2,19,20
 275 600 275 600 300 600 c 0,0,1
550 600 m 0,21,22
 571 600 571 600 585.5 585.5 c 128,-1,23
 600 571 600 571 600 550 c 0,24,25
 600 533 600 533 590 520 c 2,26,-1
 462 350 l 1,27,-1
 590 180 l 2,28,29
 600 167 600 167 600 150 c 0,30,31
 600 129 600 129 585.5 114.5 c 128,-1,32
 571 100 571 100 550 100 c 0,33,34
 525 100 525 100 510 120 c 2,35,-1
 360 320 l 2,36,37
 350 333 350 333 350 350 c 128,-1,38
 350 367 350 367 360 380 c 2,39,-1
 510 580 l 2,40,41
 525 600 525 600 550 600 c 0,21,22
EndSplineSet
Validated: 1
EndChar

StartChar: logicalnot
Encoding: 172 172 110
Width: 800
Flags: W
LayerCount: 2
Fore
SplineSet
150 500 m 2,0,-1
 650 500 l 2,1,2
 671 500 671 500 685.5 485.5 c 128,-1,3
 700 471 700 471 700 450 c 2,4,-1
 700 250 l 2,5,6
 700 229 700 229 685.5 214.5 c 128,-1,7
 671 200 671 200 650 200 c 128,-1,8
 629 200 629 200 614.5 214.5 c 128,-1,9
 600 229 600 229 600 250 c 2,10,-1
 600 400 l 1,11,-1
 150 400 l 2,12,13
 129 400 129 400 114.5 414.5 c 128,-1,14
 100 429 100 429 100 450 c 128,-1,15
 100 471 100 471 114.5 485.5 c 128,-1,16
 129 500 129 500 150 500 c 2,0,-1
EndSplineSet
Validated: 1
EndChar

StartChar: registered
Encoding: 174 174 112
Width: 1260
Flags: W
LayerCount: 2
Fore
SplineSet
475 850 m 2,0,-1
 650 850 l 2,1,2
 737 850 737 850 798.5 788.5 c 128,-1,3
 860 727 860 727 860 640 c 0,4,5
 860 569 860 569 817.5 513 c 128,-1,6
 775 457 775 457 708 438 c 1,7,-1
 855 204 l 2,8,9
 860 196 860 196 860 185 c 0,10,11
 860 171 860 171 849.5 160.5 c 128,-1,12
 839 150 839 150 825 150 c 0,13,14
 805 150 805 150 795 166 c 2,15,-1
 631 430 l 1,16,-1
 510 430 l 1,17,-1
 510 185 l 2,18,19
 510 171 510 171 499.5 160.5 c 128,-1,20
 489 150 489 150 475 150 c 128,-1,21
 461 150 461 150 450.5 160.5 c 128,-1,22
 440 171 440 171 440 185 c 2,23,-1
 440 815 l 2,24,25
 440 829 440 829 450.5 839.5 c 128,-1,26
 461 850 461 850 475 850 c 2,0,-1
510 780 m 1,27,-1
 510 500 l 1,28,-1
 650 500 l 2,29,30
 708 500 708 500 749 541 c 128,-1,31
 790 582 790 582 790 640 c 128,-1,32
 790 698 790 698 749 739 c 128,-1,33
 708 780 708 780 650 780 c 2,34,-1
 510 780 l 1,27,-1
630 1030 m 128,-1,36
 774 1030 774 1030 896 959 c 128,-1,37
 1018 888 1018 888 1089 766 c 128,-1,38
 1160 644 1160 644 1160 500 c 128,-1,39
 1160 356 1160 356 1089 234 c 128,-1,40
 1018 112 1018 112 896 41 c 128,-1,41
 774 -30 774 -30 630 -30 c 128,-1,42
 486 -30 486 -30 364 41 c 128,-1,43
 242 112 242 112 171 234 c 128,-1,44
 100 356 100 356 100 500 c 128,-1,45
 100 644 100 644 171 766 c 128,-1,46
 242 888 242 888 364 959 c 128,-1,35
 486 1030 486 1030 630 1030 c 128,-1,36
630 960 m 128,-1,48
 440 960 440 960 305 825 c 128,-1,49
 170 690 170 690 170 500 c 128,-1,50
 170 310 170 310 305 175 c 128,-1,51
 440 40 440 40 630 40 c 128,-1,52
 820 40 820 40 955 175 c 128,-1,53
 1090 310 1090 310 1090 500 c 128,-1,54
 1090 690 1090 690 955 825 c 128,-1,47
 820 960 820 960 630 960 c 128,-1,48
EndSplineSet
Validated: 1
EndChar

StartChar: macron
Encoding: 175 175 113
Width: 500
Flags: W
LayerCount: 2
Fore
SplineSet
150 1000 m 2,0,-1
 350 1000 l 2,1,2
 371 1000 371 1000 385.5 985.5 c 128,-1,3
 400 971 400 971 400 950 c 128,-1,4
 400 929 400 929 385.5 914.5 c 128,-1,5
 371 900 371 900 350 900 c 2,6,-1
 150 900 l 2,7,8
 129 900 129 900 114.5 914.5 c 128,-1,9
 100 929 100 929 100 950 c 128,-1,10
 100 971 100 971 114.5 985.5 c 128,-1,11
 129 1000 129 1000 150 1000 c 2,0,-1
EndSplineSet
Validated: 1
EndChar

StartChar: degree
Encoding: 176 176 114
Width: 600
Flags: W
LayerCount: 2
Fore
SplineSet
300 1000 m 128,-1,1
 382 1000 382 1000 441 941 c 128,-1,2
 500 882 500 882 500 800 c 128,-1,3
 500 718 500 718 441 659 c 128,-1,4
 382 600 382 600 300 600 c 128,-1,5
 218 600 218 600 159 659 c 128,-1,6
 100 718 100 718 100 800 c 128,-1,7
 100 882 100 882 159 941 c 128,-1,0
 218 1000 218 1000 300 1000 c 128,-1,1
300 900 m 128,-1,9
 259 900 259 900 229.5 870.5 c 128,-1,10
 200 841 200 841 200 800 c 128,-1,11
 200 759 200 759 229.5 729.5 c 128,-1,12
 259 700 259 700 300 700 c 128,-1,13
 341 700 341 700 370.5 729.5 c 128,-1,14
 400 759 400 759 400 800 c 128,-1,15
 400 841 400 841 370.5 870.5 c 128,-1,8
 341 900 341 900 300 900 c 128,-1,9
EndSplineSet
Validated: 1
EndChar

StartChar: plusminus
Encoding: 177 177 115
Width: 700
Flags: W
LayerCount: 2
Fore
SplineSet
150 200 m 2,0,-1
 550 200 l 2,1,2
 571 200 571 200 585.5 185.5 c 128,-1,3
 600 171 600 171 600 150 c 128,-1,4
 600 129 600 129 585.5 114.5 c 128,-1,5
 571 100 571 100 550 100 c 2,6,-1
 150 100 l 2,7,8
 129 100 129 100 114.5 114.5 c 128,-1,9
 100 129 100 129 100 150 c 128,-1,10
 100 171 100 171 114.5 185.5 c 128,-1,11
 129 200 129 200 150 200 c 2,0,-1
350 850 m 128,-1,13
 371 850 371 850 385.5 835.5 c 128,-1,14
 400 821 400 821 400 800 c 2,15,-1
 400 650 l 1,16,-1
 550 650 l 2,17,18
 571 650 571 650 585.5 635.5 c 128,-1,19
 600 621 600 621 600 600 c 128,-1,20
 600 579 600 579 585.5 564.5 c 128,-1,21
 571 550 571 550 550 550 c 2,22,-1
 400 550 l 1,23,-1
 400 400 l 2,24,25
 400 379 400 379 385.5 364.5 c 128,-1,26
 371 350 371 350 350 350 c 128,-1,27
 329 350 329 350 314.5 364.5 c 128,-1,28
 300 379 300 379 300 400 c 2,29,-1
 300 550 l 1,30,-1
 150 550 l 2,31,32
 129 550 129 550 114.5 564.5 c 128,-1,33
 100 579 100 579 100 600 c 128,-1,34
 100 621 100 621 114.5 635.5 c 128,-1,35
 129 650 129 650 150 650 c 2,36,-1
 300 650 l 1,37,-1
 300 800 l 2,38,39
 300 821 300 821 314.5 835.5 c 128,-1,12
 329 850 329 850 350 850 c 128,-1,13
EndSplineSet
Validated: 1
EndChar

StartChar: uni00B2
Encoding: 178 178 116
Width: 510
Flags: W
LayerCount: 2
Fore
SplineSet
255 1371 m 0,0,1
 328 1371 328 1371 379 1320 c 128,-1,2
 430 1269 430 1269 430 1196 c 0,3,4
 430 1149 430 1149 406 1107 c 2,5,-1
 176 720 l 1,6,-1
 395 720 l 2,7,8
 409 720 409 720 419.5 709.5 c 128,-1,9
 430 699 430 699 430 685 c 128,-1,10
 430 671 430 671 419.5 660.5 c 128,-1,11
 409 650 409 650 395 650 c 2,12,-1
 115 650 l 2,13,14
 101 650 101 650 90.5 660.5 c 128,-1,15
 80 671 80 671 80 685 c 0,16,17
 80 695 80 695 85 703 c 2,18,-1
 345 1143 l 2,19,20
 360 1170 360 1170 360 1196 c 0,21,22
 360 1240 360 1240 329 1270.5 c 128,-1,23
 298 1301 298 1301 255 1301 c 128,-1,24
 212 1301 212 1301 187 1283 c 0,25,26
 166 1268 166 1268 146 1229 c 0,27,28
 136 1210 136 1210 115 1210 c 0,29,30
 101 1210 101 1210 90.5 1220.5 c 128,-1,31
 80 1231 80 1231 80 1245 c 0,32,33
 80 1251 80 1251 84 1261 c 0,34,35
 110 1314 110 1314 146 1340 c 0,36,37
 189 1371 189 1371 255 1371 c 0,0,1
EndSplineSet
Validated: 1
EndChar

StartChar: uni00B3
Encoding: 179 179 117
Width: 510
Flags: W
LayerCount: 2
Fore
SplineSet
115 1350 m 2,0,-1
 255 1350 l 2,1,2
 328 1350 328 1350 379 1299 c 128,-1,3
 430 1248 430 1248 430 1175 c 0,4,5
 430 1088 430 1088 360 1035 c 1,6,7
 430 982 430 982 430 895 c 2,8,-1
 430 825 l 2,9,10
 430 752 430 752 379 701 c 128,-1,11
 328 650 328 650 255 650 c 2,12,-1
 115 650 l 2,13,14
 101 650 101 650 90.5 660.5 c 128,-1,15
 80 671 80 671 80 685 c 128,-1,16
 80 699 80 699 90.5 709.5 c 128,-1,17
 101 720 101 720 115 720 c 2,18,-1
 255 720 l 2,19,20
 298 720 298 720 329 751 c 128,-1,21
 360 782 360 782 360 825 c 2,22,-1
 360 895 l 2,23,24
 360 938 360 938 329 969 c 128,-1,25
 298 1000 298 1000 255 1000 c 2,26,-1
 185 1000 l 2,27,28
 171 1000 171 1000 160.5 1010.5 c 128,-1,29
 150 1021 150 1021 150 1035 c 128,-1,30
 150 1049 150 1049 160.5 1059.5 c 128,-1,31
 171 1070 171 1070 185 1070 c 2,32,-1
 255 1070 l 2,33,34
 298 1070 298 1070 329 1101 c 128,-1,35
 360 1132 360 1132 360 1175 c 128,-1,36
 360 1218 360 1218 329 1249 c 128,-1,37
 298 1280 298 1280 255 1280 c 2,38,-1
 115 1280 l 2,39,40
 101 1280 101 1280 90.5 1290.5 c 128,-1,41
 80 1301 80 1301 80 1315 c 128,-1,42
 80 1329 80 1329 90.5 1339.5 c 128,-1,43
 101 1350 101 1350 115 1350 c 2,0,-1
EndSplineSet
Validated: 1
EndChar

StartChar: acute
Encoding: 180 180 118
Width: 250
Flags: W
LayerCount: 2
Fore
SplineSet
150 1000 m 0,0,1
 171 1000 171 1000 185.5 985.5 c 128,-1,2
 200 971 200 971 200 950 c 0,3,4
 200 940 200 940 195 928 c 2,5,-1
 145 828 l 2,6,7
 131 800 131 800 100 800 c 4,8,9
 79 800 79 800 64.5 814.5 c 128,-1,10
 50 829 50 829 50 850 c 0,11,12
 50 860 50 860 55 872 c 2,13,-1
 105 972 l 2,14,15
 119 1000 119 1000 150 1000 c 0,0,1
EndSplineSet
Validated: 1
EndChar

StartChar: paragraph
Encoding: 182 182 120
Width: 1000
Flags: W
LayerCount: 2
Fore
SplineSet
400 1000 m 2,0,-1
 850 1000 l 2,1,2
 871 1000 871 1000 885.5 985.5 c 128,-1,3
 900 971 900 971 900 950 c 128,-1,4
 900 929 900 929 885.5 914.5 c 128,-1,5
 871 900 871 900 850 900 c 2,6,-1
 800 900 l 1,7,-1
 800 -250 l 2,8,9
 800 -271 800 -271 785.5 -285.5 c 128,-1,10
 771 -300 771 -300 750 -300 c 128,-1,11
 729 -300 729 -300 714.5 -285.5 c 128,-1,12
 700 -271 700 -271 700 -250 c 2,13,-1
 700 900 l 1,14,-1
 500 900 l 1,15,-1
 500 -250 l 2,16,17
 500 -271 500 -271 485.5 -285.5 c 128,-1,18
 471 -300 471 -300 450 -300 c 128,-1,19
 429 -300 429 -300 414.5 -285.5 c 128,-1,20
 400 -271 400 -271 400 -250 c 2,21,-1
 400 400 l 1,22,23
 276 400 276 400 188 488 c 128,-1,24
 100 576 100 576 100 700 c 128,-1,25
 100 824 100 824 188 912 c 128,-1,26
 276 1000 276 1000 400 1000 c 2,0,-1
400 900 m 1,27,28
 318 900 318 900 259 841 c 128,-1,29
 200 782 200 782 200 700 c 128,-1,30
 200 618 200 618 259 559 c 128,-1,31
 318 500 318 500 400 500 c 1,32,-1
 400 900 l 1,27,28
EndSplineSet
Validated: 1
EndChar

StartChar: uni00B9
Encoding: 185 185 122
Width: 340
Flags: W
LayerCount: 2
Fore
SplineSet
225 1350 m 0,0,1
 239 1350 239 1350 249.5 1339.5 c 128,-1,2
 260 1329 260 1329 260 1315 c 2,3,-1
 260 685 l 2,4,5
 260 671 260 671 249.5 660.5 c 128,-1,6
 239 650 239 650 225 650 c 128,-1,7
 211 650 211 650 200.5 660.5 c 128,-1,8
 190 671 190 671 190 685 c 2,9,-1
 190 1231 l 1,10,-1
 110 1150 l 2,11,12
 100 1140 100 1140 85 1140 c 0,13,14
 71 1140 71 1140 60.5 1150.5 c 128,-1,15
 50 1161 50 1161 50 1175 c 0,16,17
 50 1190 50 1190 60 1200 c 2,18,-1
 200 1340 l 2,19,20
 210 1350 210 1350 225 1350 c 0,0,1
EndSplineSet
Validated: 1
EndChar

StartChar: ordmasculine
Encoding: 186 186 123
Width: 550
Flags: W
LayerCount: 2
Fore
SplineSet
275 1014 m 128,-1,1
 348 1014 348 1014 399 963 c 128,-1,2
 450 912 450 912 450 839 c 2,3,-1
 450 671 l 2,4,5
 450 598 450 598 399 547 c 128,-1,6
 348 496 348 496 275 496 c 128,-1,7
 202 496 202 496 151 547 c 128,-1,8
 100 598 100 598 100 671 c 2,9,-1
 100 839 l 2,10,11
 100 912 100 912 151 963 c 128,-1,0
 202 1014 202 1014 275 1014 c 128,-1,1
275 944 m 128,-1,13
 232 944 232 944 201 913 c 128,-1,14
 170 882 170 882 170 839 c 2,15,-1
 170 671 l 2,16,17
 170 628 170 628 201 597 c 128,-1,18
 232 566 232 566 275 566 c 128,-1,19
 318 566 318 566 349 597 c 128,-1,20
 380 628 380 628 380 671 c 2,21,-1
 380 839 l 2,22,23
 380 882 380 882 349 913 c 128,-1,12
 318 944 318 944 275 944 c 128,-1,13
EndSplineSet
Validated: 1
EndChar

StartChar: guillemotright
Encoding: 187 187 124
Width: 700
Flags: W
LayerCount: 2
Fore
SplineSet
400 600 m 0,0,1
 425 600 425 600 440 580 c 2,2,-1
 590 380 l 2,3,4
 600 367 600 367 600 350 c 128,-1,5
 600 333 600 333 590 320 c 2,6,-1
 440 120 l 2,7,8
 425 100 425 100 400 100 c 0,9,10
 379 100 379 100 364.5 114.5 c 128,-1,11
 350 129 350 129 350 150 c 0,12,13
 350 167 350 167 360 180 c 2,14,-1
 488 350 l 1,15,-1
 360 520 l 2,16,17
 350 533 350 533 350 550 c 0,18,19
 350 571 350 571 364.5 585.5 c 128,-1,20
 379 600 379 600 400 600 c 0,0,1
150 600 m 0,21,22
 175 600 175 600 190 580 c 2,23,-1
 340 380 l 2,24,25
 350 367 350 367 350 350 c 128,-1,26
 350 333 350 333 340 320 c 2,27,-1
 190 120 l 2,28,29
 175 100 175 100 150 100 c 0,30,31
 129 100 129 100 114.5 114.5 c 128,-1,32
 100 129 100 129 100 150 c 0,33,34
 100 167 100 167 110 180 c 2,35,-1
 238 350 l 1,36,-1
 110 520 l 2,37,38
 100 533 100 533 100 550 c 0,39,40
 100 571 100 571 114.5 585.5 c 128,-1,41
 129 600 129 600 150 600 c 0,21,22
EndSplineSet
Validated: 1
EndChar

StartChar: onequarter
Encoding: 188 188 125
Width: 1050
Flags: W
LayerCount: 2
Fore
SplineSet
275 1330 m 0,0,1
 289 1330 289 1330 299.5 1319.5 c 128,-1,2
 310 1309 310 1309 310 1295 c 2,3,-1
 310 665 l 2,4,5
 310 651 310 651 299.5 640.5 c 128,-1,6
 289 630 289 630 275 630 c 128,-1,7
 261 630 261 630 250.5 640.5 c 128,-1,8
 240 651 240 651 240 665 c 2,9,-1
 240 1211 l 1,10,-1
 160 1130 l 2,11,12
 150 1120 150 1120 135 1120 c 0,13,14
 121 1120 121 1120 110.5 1130.5 c 128,-1,15
 100 1141 100 1141 100 1155 c 0,16,17
 100 1170 100 1170 110 1180 c 2,18,-1
 250 1320 l 2,19,20
 260 1330 260 1330 275 1330 c 0,0,1
695 1330 m 0,21,22
 709 1330 709 1330 719.5 1319.5 c 128,-1,23
 730 1309 730 1309 730 1295 c 0,24,25
 730 1290 730 1290 728 1284 c 2,26,-1
 308 24 l 2,27,28
 299 0 299 0 275 0 c 0,29,30
 261 0 261 0 250.5 10.5 c 128,-1,31
 240 21 240 21 240 35 c 0,32,33
 240 40 240 40 242 46 c 2,34,-1
 662 1306 l 2,35,36
 671 1330 671 1330 695 1330 c 0,21,22
705 700 m 0,37,38
 719 700 719 700 729.5 689.5 c 128,-1,39
 740 679 740 679 740 665 c 0,40,41
 740 658 740 658 739 655 c 2,42,-1
 611 210 l 1,43,-1
 775 210 l 1,44,-1
 775 315 l 2,45,46
 775 329 775 329 785.5 339.5 c 128,-1,47
 796 350 796 350 810 350 c 128,-1,48
 824 350 824 350 834.5 339.5 c 128,-1,49
 845 329 845 329 845 315 c 2,50,-1
 845 210 l 1,51,-1
 915 210 l 2,52,53
 929 210 929 210 939.5 199.5 c 128,-1,54
 950 189 950 189 950 175 c 128,-1,55
 950 161 950 161 939.5 150.5 c 128,-1,56
 929 140 929 140 915 140 c 2,57,-1
 845 140 l 1,58,-1
 845 35 l 2,59,60
 845 21 845 21 834.5 10.5 c 128,-1,61
 824 0 824 0 810 0 c 128,-1,62
 796 0 796 0 785.5 10.5 c 128,-1,63
 775 21 775 21 775 35 c 2,64,-1
 775 140 l 1,65,-1
 565 140 l 2,66,67
 551 140 551 140 540.5 150.5 c 128,-1,68
 530 161 530 161 530 175 c 0,69,70
 530 182 530 182 531 185 c 2,71,-1
 671 675 l 2,72,73
 678 700 678 700 705 700 c 0,37,38
EndSplineSet
Validated: 1
EndChar

StartChar: onehalf
Encoding: 189 189 126
Width: 1080
Flags: W
LayerCount: 2
Fore
SplineSet
275 1330 m 0,0,1
 289 1330 289 1330 299.5 1319.5 c 128,-1,2
 310 1309 310 1309 310 1295 c 2,3,-1
 310 665 l 2,4,5
 310 651 310 651 299.5 640.5 c 128,-1,6
 289 630 289 630 275 630 c 128,-1,7
 261 630 261 630 250.5 640.5 c 128,-1,8
 240 651 240 651 240 665 c 2,9,-1
 240 1211 l 1,10,-1
 160 1130 l 2,11,12
 150 1120 150 1120 135 1120 c 0,13,14
 121 1120 121 1120 110.5 1130.5 c 128,-1,15
 100 1141 100 1141 100 1155 c 0,16,17
 100 1170 100 1170 110 1180 c 2,18,-1
 250 1320 l 2,19,20
 260 1330 260 1330 275 1330 c 0,0,1
695 1330 m 0,21,22
 709 1330 709 1330 719.5 1319.5 c 128,-1,23
 730 1309 730 1309 730 1295 c 0,24,25
 730 1290 730 1290 728 1284 c 2,26,-1
 308 24 l 2,27,28
 299 0 299 0 275 0 c 0,29,30
 261 0 261 0 250.5 10.5 c 128,-1,31
 240 21 240 21 240 35 c 0,32,33
 240 40 240 40 242 46 c 2,34,-1
 662 1306 l 2,35,36
 671 1330 671 1330 695 1330 c 0,21,22
805 721 m 0,37,38
 878 721 878 721 929 670 c 128,-1,39
 980 619 980 619 980 546 c 0,40,41
 980 499 980 499 956 457 c 2,42,-1
 726 70 l 1,43,-1
 945 70 l 2,44,45
 959 70 959 70 969.5 59.5 c 128,-1,46
 980 49 980 49 980 35 c 128,-1,47
 980 21 980 21 969.5 10.5 c 128,-1,48
 959 0 959 0 945 0 c 2,49,-1
 665 0 l 2,50,51
 651 0 651 0 640.5 10.5 c 128,-1,52
 630 21 630 21 630 35 c 0,53,54
 630 45 630 45 635 53 c 2,55,-1
 895 493 l 2,56,57
 910 520 910 520 910 546 c 0,58,59
 910 590 910 590 879 620.5 c 128,-1,60
 848 651 848 651 805 651 c 128,-1,61
 762 651 762 651 737 633 c 0,62,63
 716 618 716 618 696 579 c 0,64,65
 686 560 686 560 665 560 c 0,66,67
 651 560 651 560 640.5 570.5 c 128,-1,68
 630 581 630 581 630 595 c 0,69,70
 630 601 630 601 634 611 c 0,71,72
 660 664 660 664 696 690 c 0,73,74
 739 721 739 721 805 721 c 0,37,38
EndSplineSet
Validated: 1
EndChar

StartChar: threequarters
Encoding: 190 190 127
Width: 1140
Flags: W
LayerCount: 2
Fore
SplineSet
785 1330 m 0,0,1
 799 1330 799 1330 809.5 1319.5 c 128,-1,2
 820 1309 820 1309 820 1295 c 0,3,4
 820 1290 820 1290 818 1284 c 2,5,-1
 398 24 l 2,6,7
 389 0 389 0 365 0 c 0,8,9
 351 0 351 0 340.5 10.5 c 128,-1,10
 330 21 330 21 330 35 c 0,11,12
 330 40 330 40 332 46 c 2,13,-1
 752 1306 l 2,14,15
 761 1330 761 1330 785 1330 c 0,0,1
795 700 m 0,16,17
 809 700 809 700 819.5 689.5 c 128,-1,18
 830 679 830 679 830 665 c 0,19,20
 830 658 830 658 829 655 c 2,21,-1
 701 210 l 1,22,-1
 865 210 l 1,23,-1
 865 315 l 2,24,25
 865 329 865 329 875.5 339.5 c 128,-1,26
 886 350 886 350 900 350 c 128,-1,27
 914 350 914 350 924.5 339.5 c 128,-1,28
 935 329 935 329 935 315 c 2,29,-1
 935 210 l 1,30,-1
 1005 210 l 2,31,32
 1019 210 1019 210 1029.5 199.5 c 128,-1,33
 1040 189 1040 189 1040 175 c 128,-1,34
 1040 161 1040 161 1029.5 150.5 c 128,-1,35
 1019 140 1019 140 1005 140 c 2,36,-1
 935 140 l 1,37,-1
 935 35 l 2,38,39
 935 21 935 21 924.5 10.5 c 128,-1,40
 914 0 914 0 900 0 c 128,-1,41
 886 0 886 0 875.5 10.5 c 128,-1,42
 865 21 865 21 865 35 c 2,43,-1
 865 140 l 1,44,-1
 655 140 l 2,45,46
 641 140 641 140 630.5 150.5 c 128,-1,47
 620 161 620 161 620 175 c 0,48,49
 620 182 620 182 621 185 c 2,50,-1
 761 675 l 2,51,52
 768 700 768 700 795 700 c 0,16,17
135 1330 m 2,53,-1
 275 1330 l 2,54,55
 348 1330 348 1330 399 1279 c 128,-1,56
 450 1228 450 1228 450 1155 c 0,57,58
 450 1068 450 1068 380 1015 c 1,59,60
 450 962 450 962 450 875 c 2,61,-1
 450 805 l 2,62,63
 450 732 450 732 399 681 c 128,-1,64
 348 630 348 630 275 630 c 2,65,-1
 135 630 l 2,66,67
 121 630 121 630 110.5 640.5 c 128,-1,68
 100 651 100 651 100 665 c 128,-1,69
 100 679 100 679 110.5 689.5 c 128,-1,70
 121 700 121 700 135 700 c 2,71,-1
 275 700 l 2,72,73
 318 700 318 700 349 731 c 128,-1,74
 380 762 380 762 380 805 c 2,75,-1
 380 875 l 2,76,77
 380 918 380 918 349 949 c 128,-1,78
 318 980 318 980 275 980 c 2,79,-1
 205 980 l 2,80,81
 191 980 191 980 180.5 990.5 c 128,-1,82
 170 1001 170 1001 170 1015 c 128,-1,83
 170 1029 170 1029 180.5 1039.5 c 128,-1,84
 191 1050 191 1050 205 1050 c 2,85,-1
 275 1050 l 2,86,87
 318 1050 318 1050 349 1081 c 128,-1,88
 380 1112 380 1112 380 1155 c 128,-1,89
 380 1198 380 1198 349 1229 c 128,-1,90
 318 1260 318 1260 275 1260 c 2,91,-1
 135 1260 l 2,92,93
 121 1260 121 1260 110.5 1270.5 c 128,-1,94
 100 1281 100 1281 100 1295 c 128,-1,95
 100 1309 100 1309 110.5 1319.5 c 128,-1,96
 121 1330 121 1330 135 1330 c 2,53,-1
EndSplineSet
Validated: 1
EndChar

StartChar: multiply
Encoding: 215 215 132
Width: 700
Flags: W
LayerCount: 2
Fore
SplineSet
600 550 m 128,-1,1
 600 529 600 529 586 515 c 2,2,-1
 421 350 l 1,3,-1
 586 185 l 2,4,5
 600 171 600 171 600 150 c 128,-1,6
 600 129 600 129 585.5 114.5 c 128,-1,7
 571 100 571 100 550 100 c 128,-1,8
 529 100 529 100 515 114 c 2,9,-1
 350 279 l 1,10,-1
 185 114 l 2,11,12
 171 100 171 100 150 100 c 128,-1,13
 129 100 129 100 114.5 114.5 c 128,-1,14
 100 129 100 129 100 150 c 128,-1,15
 100 171 100 171 114 185 c 2,16,-1
 279 350 l 1,17,-1
 114 515 l 2,18,19
 100 529 100 529 100 550 c 128,-1,20
 100 571 100 571 114.5 585.5 c 128,-1,21
 129 600 129 600 150 600 c 128,-1,22
 171 600 171 600 185 586 c 2,23,-1
 350 421 l 1,24,-1
 515 586 l 2,25,26
 529 600 529 600 550 600 c 128,-1,27
 571 600 571 600 585.5 585.5 c 128,-1,0
 600 571 600 571 600 550 c 128,-1,1
EndSplineSet
Validated: 1
EndChar

StartChar: dotlessi
Encoding: 305 305 137
Width: 300
Flags: W
LayerCount: 2
Fore
SplineSet
150 700 m 128,-1,1
 171 700 171 700 185.5 685.5 c 128,-1,2
 200 671 200 671 200 650 c 2,3,-1
 200 50 l 2,4,5
 200 29 200 29 185.5 14.5 c 128,-1,6
 171 0 171 0 150 0 c 128,-1,7
 129 0 129 0 114.5 14.5 c 128,-1,8
 100 29 100 29 100 50 c 2,9,-1
 100 650 l 2,10,11
 100 671 100 671 114.5 685.5 c 128,-1,0
 129 700 129 700 150 700 c 128,-1,1
EndSplineSet
Validated: 1
EndChar

StartChar: circumflex
Encoding: 710 710 138
Width: 500
Flags: W
LayerCount: 2
Fore
SplineSet
250 1000 m 128,-1,1
 270 1000 270 1000 285 985 c 2,2,-1
 385 885 l 2,3,4
 400 870 400 870 400 850 c 0,5,6
 400 829 400 829 385.5 814.5 c 128,-1,7
 371 800 371 800 350 800 c 0,8,9
 330 800 330 800 315 815 c 2,10,-1
 250 879 l 1,11,-1
 185 815 l 2,12,13
 170 800 170 800 150 800 c 0,14,15
 129 800 129 800 114.5 814.5 c 128,-1,16
 100 829 100 829 100 850 c 0,17,18
 100 870 100 870 115 885 c 2,19,-1
 215 985 l 2,20,0
 230 1000 230 1000 250 1000 c 128,-1,1
EndSplineSet
Validated: 1
EndChar

StartChar: caron
Encoding: 711 711 139
Width: 500
Flags: W
LayerCount: 2
Fore
SplineSet
250 800 m 128,-1,1
 230 800 230 800 215 815 c 2,2,-1
 115 915 l 2,3,4
 100 930 100 930 100 950 c 0,5,6
 100 971 100 971 114.5 985.5 c 128,-1,7
 129 1000 129 1000 150 1000 c 0,8,9
 170 1000 170 1000 185 985 c 2,10,-1
 250 921 l 1,11,-1
 315 985 l 2,12,13
 330 1000 330 1000 350 1000 c 0,14,15
 371 1000 371 1000 385.5 985.5 c 128,-1,16
 400 971 400 971 400 950 c 0,17,18
 400 930 400 930 385 915 c 2,19,-1
 285 815 l 2,20,0
 270 800 270 800 250 800 c 128,-1,1
EndSplineSet
Validated: 1
EndChar

StartChar: breve
Encoding: 728 728 140
Width: 500
Flags: W
LayerCount: 2
Fore
SplineSet
150 1000 m 128,-1,1
 171 1000 171 1000 185.5 985.5 c 128,-1,2
 200 971 200 971 200 950 c 128,-1,3
 200 929 200 929 214.5 914.5 c 128,-1,4
 229 900 229 900 250 900 c 128,-1,5
 271 900 271 900 285.5 914.5 c 128,-1,6
 300 929 300 929 300 950 c 128,-1,7
 300 971 300 971 314.5 985.5 c 128,-1,8
 329 1000 329 1000 350 1000 c 128,-1,9
 371 1000 371 1000 385.5 985.5 c 128,-1,10
 400 971 400 971 400 950 c 0,11,12
 400 888 400 888 356 844 c 128,-1,13
 312 800 312 800 250 800 c 128,-1,14
 188 800 188 800 144 844 c 128,-1,15
 100 888 100 888 100 950 c 0,16,17
 100 971 100 971 114.5 985.5 c 128,-1,0
 129 1000 129 1000 150 1000 c 128,-1,1
EndSplineSet
Validated: 1
EndChar

StartChar: ring
Encoding: 730 730 142
Width: 500
Flags: W
LayerCount: 2
Fore
SplineSet
250 1000 m 128,-1,1
 312 1000 312 1000 356 956 c 128,-1,2
 400 912 400 912 400 850 c 128,-1,3
 400 788 400 788 356 744 c 128,-1,4
 312 700 312 700 250 700 c 128,-1,5
 188 700 188 700 144 744 c 128,-1,6
 100 788 100 788 100 850 c 128,-1,7
 100 912 100 912 144 956 c 128,-1,0
 188 1000 188 1000 250 1000 c 128,-1,1
250 900 m 128,-1,9
 229 900 229 900 214.5 885.5 c 128,-1,10
 200 871 200 871 200 850 c 128,-1,11
 200 829 200 829 214.5 814.5 c 128,-1,12
 229 800 229 800 250 800 c 128,-1,13
 271 800 271 800 285.5 814.5 c 128,-1,14
 300 829 300 829 300 850 c 128,-1,15
 300 871 300 871 285.5 885.5 c 128,-1,8
 271 900 271 900 250 900 c 128,-1,9
EndSplineSet
Validated: 1
EndChar

StartChar: tilde
Encoding: 732 732 143
Width: 600
Flags: W
LayerCount: 2
Fore
SplineSet
225 1000 m 0,0,1
 282 1000 282 1000 330 965 c 0,2,3
 350 950 350 950 375 950 c 128,-1,4
 400 950 400 950 420 965 c 0,5,6
 433 975 433 975 450 975 c 0,7,8
 471 975 471 975 485.5 960.5 c 128,-1,9
 500 946 500 946 500 925 c 0,10,11
 500 897 500 897 478 883 c 0,12,13
 432 850 432 850 375 850 c 128,-1,14
 318 850 318 850 270 885 c 0,15,16
 250 900 250 900 225 900 c 128,-1,17
 200 900 200 900 180 885 c 0,18,19
 167 875 167 875 150 875 c 0,20,21
 129 875 129 875 114.5 889.5 c 128,-1,22
 100 904 100 904 100 925 c 0,23,24
 100 952 100 952 123 967 c 0,25,26
 172 1000 172 1000 225 1000 c 0,0,1
EndSplineSet
Validated: 1
EndChar

StartChar: Delta
Encoding: 916 916 148
Width: 800
Flags: W
LayerCount: 2
Fore
SplineSet
170 100 m 1,0,-1
 630 100 l 1,1,-1
 400 792 l 1,2,-1
 170 100 l 1,0,-1
700 0 m 2,3,-1
 100 0 l 2,4,5
 78 0 78 0 64 14.5 c 128,-1,6
 50 29 50 29 50 49 c 0,7,8
 50 58 50 58 53 65 c 2,9,-1
 352 965 l 2,10,11
 364 1000 364 1000 400 1000 c 0,12,13
 435 1000 435 1000 449 960 c 2,14,-1
 747 65 l 2,15,16
 750 58 750 58 750 49 c 0,17,18
 750 29 750 29 736 14.5 c 128,-1,19
 722 0 722 0 700 0 c 2,3,-1
EndSplineSet
Validated: 1
EndChar

StartChar: Theta
Encoding: 920 920 152
Width: 780
Flags: W
LayerCount: 2
Fore
SplineSet
390 1030 m 128,-1,1
 514 1030 514 1030 602 942 c 128,-1,2
 690 854 690 854 690 730 c 2,3,-1
 690 270 l 2,4,5
 690 146 690 146 602 58 c 128,-1,6
 514 -30 514 -30 390 -30 c 128,-1,7
 266 -30 266 -30 178 58 c 128,-1,8
 90 146 90 146 90 270 c 2,9,-1
 90 730 l 2,10,11
 90 854 90 854 178 942 c 128,-1,0
 266 1030 266 1030 390 1030 c 128,-1,1
390 930 m 128,-1,13
 308 930 308 930 249 871 c 128,-1,14
 190 812 190 812 190 730 c 2,15,-1
 190 270 l 2,16,17
 190 188 190 188 249 129 c 128,-1,18
 308 70 308 70 390 70 c 128,-1,19
 472 70 472 70 531 129 c 128,-1,20
 590 188 590 188 590 270 c 2,21,-1
 590 730 l 2,22,23
 590 812 590 812 531 871 c 128,-1,12
 472 930 472 930 390 930 c 128,-1,13
340 600 m 2,24,-1
 440 600 l 2,25,26
 461 600 461 600 475.5 585.5 c 128,-1,27
 490 571 490 571 490 550 c 128,-1,28
 490 529 490 529 475.5 514.5 c 128,-1,29
 461 500 461 500 440 500 c 2,30,-1
 340 500 l 2,31,32
 319 500 319 500 304.5 514.5 c 128,-1,33
 290 529 290 529 290 550 c 128,-1,34
 290 571 290 571 304.5 585.5 c 128,-1,35
 319 600 319 600 340 600 c 2,24,-1
EndSplineSet
Validated: 1
EndChar

StartChar: Lambda
Encoding: 923 923 155
Width: 800
Flags: W
LayerCount: 2
Fore
SplineSet
100 0 m 0,0,1
 78 0 78 0 64 14.5 c 128,-1,2
 50 29 50 29 50 49 c 0,3,4
 50 58 50 58 53 65 c 2,5,-1
 352 965 l 2,6,7
 364 1000 364 1000 400 1000 c 0,8,9
 435 1000 435 1000 449 960 c 2,10,-1
 747 65 l 2,11,12
 750 58 750 58 750 49 c 0,13,14
 750 29 750 29 736 14.5 c 128,-1,15
 722 0 722 0 700 0 c 0,16,17
 684 0 684 0 670.5 9.5 c 128,-1,18
 657 19 657 19 652 34 c 2,19,-1
 400 792 l 1,20,-1
 148 34 l 2,21,22
 143 19 143 19 129.5 9.5 c 128,-1,23
 116 0 116 0 100 0 c 0,0,1
EndSplineSet
Validated: 1
EndChar

StartChar: Xi
Encoding: 926 926 158
Width: 740
Flags: W
LayerCount: 2
Fore
SplineSet
120 1000 m 2,0,-1
 620 1000 l 2,1,2
 641 1000 641 1000 655.5 985.5 c 128,-1,3
 670 971 670 971 670 950 c 128,-1,4
 670 929 670 929 655.5 914.5 c 128,-1,5
 641 900 641 900 620 900 c 2,6,-1
 120 900 l 2,7,8
 99 900 99 900 84.5 914.5 c 128,-1,9
 70 929 70 929 70 950 c 128,-1,10
 70 971 70 971 84.5 985.5 c 128,-1,11
 99 1000 99 1000 120 1000 c 2,0,-1
220 600 m 2,12,-1
 520 600 l 2,13,14
 541 600 541 600 555.5 585.5 c 128,-1,15
 570 571 570 571 570 550 c 128,-1,16
 570 529 570 529 555.5 514.5 c 128,-1,17
 541 500 541 500 520 500 c 2,18,-1
 220 500 l 2,19,20
 199 500 199 500 184.5 514.5 c 128,-1,21
 170 529 170 529 170 550 c 128,-1,22
 170 571 170 571 184.5 585.5 c 128,-1,23
 199 600 199 600 220 600 c 2,12,-1
120 100 m 2,24,-1
 620 100 l 2,25,26
 641 100 641 100 655.5 85.5 c 128,-1,27
 670 71 670 71 670 50 c 128,-1,28
 670 29 670 29 655.5 14.5 c 128,-1,29
 641 0 641 0 620 0 c 2,30,-1
 120 0 l 2,31,32
 99 0 99 0 84.5 14.5 c 128,-1,33
 70 29 70 29 70 50 c 128,-1,34
 70 71 70 71 84.5 85.5 c 128,-1,35
 99 100 99 100 120 100 c 2,24,-1
EndSplineSet
Validated: 1
EndChar

StartChar: Sigma
Encoding: 931 931 162
Width: 770
Flags: W
LayerCount: 2
Fore
SplineSet
140 1000 m 2,0,-1
 640 1000 l 2,1,2
 661 1000 661 1000 675.5 985.5 c 128,-1,3
 690 971 690 971 690 950 c 128,-1,4
 690 929 690 929 675.5 914.5 c 128,-1,5
 661 900 661 900 640 900 c 2,6,-1
 217 900 l 1,7,-1
 386 520 l 2,8,9
 390 512 390 512 390 500 c 128,-1,10
 390 488 390 488 386 480 c 2,11,-1
 217 100 l 1,12,-1
 640 100 l 2,13,14
 661 100 661 100 675.5 85.5 c 128,-1,15
 690 71 690 71 690 50 c 128,-1,16
 690 29 690 29 675.5 14.5 c 128,-1,17
 661 0 661 0 640 0 c 2,18,-1
 140 0 l 2,19,20
 119 0 119 0 104.5 14.5 c 128,-1,21
 90 29 90 29 90 50 c 0,22,23
 90 62 90 62 94 70 c 2,24,-1
 285 500 l 1,25,-1
 94 930 l 2,26,27
 90 938 90 938 90 950 c 0,28,29
 90 971 90 971 104.5 985.5 c 128,-1,30
 119 1000 119 1000 140 1000 c 2,0,-1
EndSplineSet
Validated: 1
EndChar

StartChar: Phi
Encoding: 934 934 165
Width: 1000
Flags: W
LayerCount: 2
Fore
SplineSet
500 1000 m 128,-1,1
 521 1000 521 1000 535.5 985.5 c 128,-1,2
 550 971 550 971 550 950 c 2,3,-1
 550 850 l 1,4,-1
 600 850 l 2,5,6
 745 850 745 850 847.5 747.5 c 128,-1,7
 950 645 950 645 950 500 c 128,-1,8
 950 355 950 355 847.5 252.5 c 128,-1,9
 745 150 745 150 600 150 c 2,10,-1
 550 150 l 1,11,-1
 550 50 l 2,12,13
 550 29 550 29 535.5 14.5 c 128,-1,14
 521 0 521 0 500 0 c 128,-1,15
 479 0 479 0 464.5 14.5 c 128,-1,16
 450 29 450 29 450 50 c 2,17,-1
 450 150 l 1,18,-1
 400 150 l 2,19,20
 255 150 255 150 152.5 252.5 c 128,-1,21
 50 355 50 355 50 500 c 128,-1,22
 50 645 50 645 152.5 747.5 c 128,-1,23
 255 850 255 850 400 850 c 2,24,-1
 450 850 l 1,25,-1
 450 950 l 2,26,27
 450 971 450 971 464.5 985.5 c 128,-1,0
 479 1000 479 1000 500 1000 c 128,-1,1
400 750 m 2,28,29
 296 750 296 750 223 677 c 128,-1,30
 150 604 150 604 150 500 c 128,-1,31
 150 396 150 396 223 323 c 128,-1,32
 296 250 296 250 400 250 c 2,33,-1
 450 250 l 1,34,-1
 450 750 l 1,35,-1
 400 750 l 2,28,29
550 750 m 1,36,-1
 550 250 l 1,37,-1
 600 250 l 2,38,39
 704 250 704 250 777 323 c 128,-1,40
 850 396 850 396 850 500 c 128,-1,41
 850 604 850 604 777 677 c 128,-1,42
 704 750 704 750 600 750 c 2,43,-1
 550 750 l 1,36,-1
EndSplineSet
Validated: 1
EndChar

StartChar: Psi
Encoding: 936 936 167
Width: 880
Flags: W
LayerCount: 2
Fore
SplineSet
140 1000 m 128,-1,1
 161 1000 161 1000 175.5 985.5 c 128,-1,2
 190 971 190 971 190 950 c 2,3,-1
 190 600 l 2,4,5
 190 510 190 510 247 441 c 128,-1,6
 304 372 304 372 390 355 c 1,7,-1
 390 950 l 2,8,9
 390 971 390 971 404.5 985.5 c 128,-1,10
 419 1000 419 1000 440 1000 c 128,-1,11
 461 1000 461 1000 475.5 985.5 c 128,-1,12
 490 971 490 971 490 950 c 2,13,-1
 490 355 l 1,14,15
 576 372 576 372 633 441 c 128,-1,16
 690 510 690 510 690 600 c 2,17,-1
 690 950 l 2,18,19
 690 971 690 971 704.5 985.5 c 128,-1,20
 719 1000 719 1000 740 1000 c 128,-1,21
 761 1000 761 1000 775.5 985.5 c 128,-1,22
 790 971 790 971 790 950 c 2,23,-1
 790 600 l 2,24,25
 790 469 790 469 704 370.5 c 128,-1,26
 618 272 618 272 490 254 c 1,27,-1
 490 50 l 2,28,29
 490 29 490 29 475.5 14.5 c 128,-1,30
 461 0 461 0 440 0 c 128,-1,31
 419 0 419 0 404.5 14.5 c 128,-1,32
 390 29 390 29 390 50 c 2,33,-1
 390 254 l 1,34,35
 262 272 262 272 176 370.5 c 128,-1,36
 90 469 90 469 90 600 c 2,37,-1
 90 950 l 2,38,39
 90 971 90 971 104.5 985.5 c 128,-1,0
 119 1000 119 1000 140 1000 c 128,-1,1
EndSplineSet
Validated: 1
EndChar

StartChar: Omega
Encoding: 937 937 168
Width: 880
Flags: W
LayerCount: 2
Fore
SplineSet
440 1030 m 128,-1,1
 585 1030 585 1030 687.5 927.5 c 128,-1,2
 790 825 790 825 790 680 c 2,3,-1
 790 400 l 2,4,5
 790 310 790 310 733 241 c 128,-1,6
 676 172 676 172 590 155 c 1,7,-1
 590 100 l 1,8,-1
 690 100 l 2,9,10
 711 100 711 100 725.5 85.5 c 128,-1,11
 740 71 740 71 740 50 c 128,-1,12
 740 29 740 29 725.5 14.5 c 128,-1,13
 711 0 711 0 690 0 c 2,14,-1
 540 0 l 2,15,16
 519 0 519 0 504.5 14.5 c 128,-1,17
 490 29 490 29 490 50 c 2,18,-1
 490 200 l 2,19,20
 490 221 490 221 504.5 235.5 c 128,-1,21
 519 250 519 250 540 250 c 0,22,23
 602 250 602 250 646 294 c 128,-1,24
 690 338 690 338 690 400 c 2,25,-1
 690 680 l 2,26,27
 690 784 690 784 617 857 c 128,-1,28
 544 930 544 930 440 930 c 128,-1,29
 336 930 336 930 263 857 c 128,-1,30
 190 784 190 784 190 680 c 2,31,-1
 190 400 l 2,32,33
 190 338 190 338 234 294 c 128,-1,34
 278 250 278 250 340 250 c 0,35,36
 361 250 361 250 375.5 235.5 c 128,-1,37
 390 221 390 221 390 200 c 2,38,-1
 390 50 l 2,39,40
 390 29 390 29 375.5 14.5 c 128,-1,41
 361 0 361 0 340 0 c 2,42,-1
 190 0 l 2,43,44
 169 0 169 0 154.5 14.5 c 128,-1,45
 140 29 140 29 140 50 c 128,-1,46
 140 71 140 71 154.5 85.5 c 128,-1,47
 169 100 169 100 190 100 c 2,48,-1
 290 100 l 1,49,-1
 290 155 l 1,50,51
 204 172 204 172 147 241 c 128,-1,52
 90 310 90 310 90 400 c 2,53,-1
 90 680 l 2,54,55
 90 825 90 825 192.5 927.5 c 128,-1,0
 295 1030 295 1030 440 1030 c 128,-1,1
EndSplineSet
Validated: 1
EndChar

StartChar: alpha
Encoding: 945 945 169
Width: 770
Flags: W
LayerCount: 2
Fore
SplineSet
290 720 m 0,0,1
 352 720 352 720 402.5 685 c 128,-1,2
 453 650 453 650 476 594 c 2,3,-1
 520 484 l 1,4,-1
 594 669 l 2,5,6
 606 700 606 700 640 700 c 0,7,8
 661 700 661 700 675.5 685.5 c 128,-1,9
 690 671 690 671 690 650 c 0,10,11
 690 643 690 643 686 631 c 2,12,-1
 574 350 l 1,13,-1
 667 116 l 2,14,15
 674 100 674 100 690 100 c 0,16,17
 711 100 711 100 725.5 85.5 c 128,-1,18
 740 71 740 71 740 50 c 128,-1,19
 740 29 740 29 725.5 14.5 c 128,-1,20
 711 0 711 0 690 0 c 2,21,-1
 670 0 l 2,22,23
 606 0 606 0 574 80 c 2,24,-1
 520 216 l 1,25,-1
 476 106 l 2,26,27
 454 50 454 50 403 15 c 128,-1,28
 352 -20 352 -20 290 -20 c 0,29,30
 208 -20 208 -20 149 39 c 128,-1,31
 90 98 90 98 90 180 c 2,32,-1
 90 520 l 2,33,34
 90 602 90 602 149 661 c 128,-1,35
 208 720 208 720 290 720 c 0,0,1
290 620 m 0,36,37
 249 620 249 620 219.5 590.5 c 128,-1,38
 190 561 190 561 190 520 c 2,39,-1
 190 180 l 2,40,41
 190 139 190 139 219.5 109.5 c 128,-1,42
 249 80 249 80 290 80 c 0,43,44
 321 80 321 80 346.5 97.5 c 128,-1,45
 372 115 372 115 383 143 c 2,46,-1
 466 350 l 1,47,-1
 383 557 l 2,48,49
 372 585 372 585 346.5 602.5 c 128,-1,50
 321 620 321 620 290 620 c 0,36,37
EndSplineSet
Validated: 1
EndChar

StartChar: beta
Encoding: 946 946 170
Width: 690
Flags: W
LayerCount: 2
Fore
SplineSet
325 1020 m 128,-1,1
 418 1020 418 1020 484 954 c 128,-1,2
 550 888 550 888 550 795 c 2,3,-1
 550 700 l 2,4,5
 550 615 550 615 490 557 c 1,6,7
 541 523 541 523 570.5 468 c 128,-1,8
 600 413 600 413 600 350 c 2,9,-1
 600 250 l 2,10,11
 600 146 600 146 527 73 c 128,-1,12
 454 0 454 0 350 0 c 0,13,14
 329 0 329 0 314.5 14.5 c 128,-1,15
 300 29 300 29 300 50 c 128,-1,16
 300 71 300 71 314.5 85.5 c 128,-1,17
 329 100 329 100 350 100 c 0,18,19
 412 100 412 100 456 144 c 128,-1,20
 500 188 500 188 500 250 c 2,21,-1
 500 350 l 2,22,23
 500 412 500 412 456 456 c 128,-1,24
 412 500 412 500 350 500 c 0,25,26
 329 500 329 500 314.5 514.5 c 128,-1,27
 300 529 300 529 300 550 c 128,-1,28
 300 571 300 571 314.5 585.5 c 128,-1,29
 329 600 329 600 350 600 c 0,30,31
 391 600 391 600 420.5 629.5 c 128,-1,32
 450 659 450 659 450 700 c 2,33,-1
 450 795 l 2,34,35
 450 847 450 847 413.5 883.5 c 128,-1,36
 377 920 377 920 325 920 c 128,-1,37
 273 920 273 920 236.5 883.5 c 128,-1,38
 200 847 200 847 200 795 c 2,39,-1
 200 -250 l 2,40,41
 200 -271 200 -271 185.5 -285.5 c 128,-1,42
 171 -300 171 -300 150 -300 c 128,-1,43
 129 -300 129 -300 114.5 -285.5 c 128,-1,44
 100 -271 100 -271 100 -250 c 2,45,-1
 100 795 l 2,46,47
 100 888 100 888 166 954 c 128,-1,0
 232 1020 232 1020 325 1020 c 128,-1,1
EndSplineSet
Validated: 1
EndChar

StartChar: gamma
Encoding: 947 947 171
Width: 580
Flags: W
LayerCount: 2
Fore
SplineSet
80 700 m 0,0,1
 150 700 150 700 205 645 c 0,2,3
 289 561 289 561 332 479 c 1,4,5
 379 577 379 577 437 676 c 0,6,7
 451 700 451 700 480 700 c 0,8,9
 501 700 501 700 515.5 685.5 c 128,-1,10
 530 671 530 671 530 650 c 0,11,12
 530 638 530 638 523 624 c 0,13,14
 440 486 440 486 386 354 c 1,15,16
 430 231 430 231 430 50 c 0,17,18
 430 -40 430 -40 412 -153 c 0,19,20
 404 -203 404 -203 394 -234 c 0,21,22
 390 -249 390 -249 382 -265 c 0,23,24
 373 -280 373 -280 370 -283 c 0,25,26
 353 -300 353 -300 330 -300 c 128,-1,27
 307 -300 307 -300 290 -283 c 0,28,29
 287 -280 287 -280 278 -265 c 0,30,31
 270 -249 270 -249 266 -234 c 0,32,33
 256 -203 256 -203 248 -153 c 0,34,35
 230 -40 230 -40 230 50 c 0,36,37
 230 228 230 228 278 355 c 1,38,39
 245 437 245 437 218.5 477.5 c 128,-1,40
 192 518 192 518 135 575 c 0,41,42
 129 581 129 581 112 590.5 c 128,-1,43
 95 600 95 600 80 600 c 0,44,45
 59 600 59 600 44.5 614.5 c 128,-1,46
 30 629 30 629 30 650 c 128,-1,47
 30 671 30 671 44.5 685.5 c 128,-1,48
 59 700 59 700 80 700 c 0,0,1
EndSplineSet
Validated: 1
EndChar

StartChar: delta
Encoding: 948 948 172
Width: 680
Flags: W
LayerCount: 2
Fore
SplineSet
310 1020 m 0,0,1
 425 1020 425 1020 522 938 c 0,2,3
 540 923 540 923 540 900 c 0,4,5
 540 879 540 879 525.5 864.5 c 128,-1,6
 511 850 511 850 490 850 c 0,7,8
 472 850 472 850 458 862 c 0,9,10
 418 896 418 896 387 908 c 128,-1,11
 356 920 356 920 310 920 c 0,12,13
 271 920 271 920 252 905 c 0,14,15
 240 896 240 896 240 880 c 0,16,17
 240 859 240 859 256 848 c 2,18,-1
 489 671 l 2,19,20
 536 636 536 636 563 583 c 128,-1,21
 590 530 590 530 590 470 c 2,22,-1
 590 230 l 2,23,24
 590 126 590 126 517 53 c 128,-1,25
 444 -20 444 -20 340 -20 c 128,-1,26
 236 -20 236 -20 163 53 c 128,-1,27
 90 126 90 126 90 230 c 2,28,-1
 90 470 l 2,29,30
 90 555 90 555 141 621.5 c 128,-1,31
 192 688 192 688 272 711 c 1,32,-1
 195 769 l 2,33,34
 140 811 140 811 140 880 c 0,35,36
 140 944 140 944 188 983 c 0,37,38
 234 1020 234 1020 310 1020 c 0,0,1
340 620 m 128,-1,40
 278 620 278 620 234 576 c 128,-1,41
 190 532 190 532 190 470 c 2,42,-1
 190 230 l 2,43,44
 190 168 190 168 234 124 c 128,-1,45
 278 80 278 80 340 80 c 128,-1,46
 402 80 402 80 446 124 c 128,-1,47
 490 168 490 168 490 230 c 2,48,-1
 490 470 l 2,49,50
 490 532 490 532 446 576 c 128,-1,39
 402 620 402 620 340 620 c 128,-1,40
EndSplineSet
Validated: 1
EndChar

StartChar: epsilon
Encoding: 949 949 173
Width: 670
Flags: W
LayerCount: 2
Fore
SplineSet
300 720 m 0,0,1
 427 720 427 720 542 689 c 0,2,3
 559 684 559 684 569.5 670.5 c 128,-1,4
 580 657 580 657 580 640 c 0,5,6
 580 619 580 619 565.5 604.5 c 128,-1,7
 551 590 551 590 530 590 c 0,8,9
 524 590 524 590 516 592 c 0,10,11
 419 620 419 620 300 620 c 0,12,13
 254 620 254 620 222 588 c 128,-1,14
 190 556 190 556 190 510 c 128,-1,15
 190 464 190 464 222 432 c 128,-1,16
 254 400 254 400 300 400 c 2,17,-1
 340 400 l 2,18,19
 361 400 361 400 375.5 385.5 c 128,-1,20
 390 371 390 371 390 350 c 128,-1,21
 390 329 390 329 375.5 314.5 c 128,-1,22
 361 300 361 300 340 300 c 2,23,-1
 300 300 l 2,24,25
 254 300 254 300 222 268 c 128,-1,26
 190 236 190 236 190 190 c 128,-1,27
 190 144 190 144 222 112 c 128,-1,28
 254 80 254 80 300 80 c 0,29,30
 375 80 375 80 421.5 89 c 128,-1,31
 468 98 468 98 517 124 c 0,32,33
 528 130 528 130 540 130 c 0,34,35
 561 130 561 130 575.5 115.5 c 128,-1,36
 590 101 590 101 590 80 c 0,37,38
 590 49 590 49 562 35 c 0,39,40
 457 -20 457 -20 300 -20 c 0,41,42
 213 -20 213 -20 151.5 41.5 c 128,-1,43
 90 103 90 103 90 190 c 0,44,45
 90 286 90 286 164 350 c 1,46,47
 90 414 90 414 90 510 c 0,48,49
 90 597 90 597 151.5 658.5 c 128,-1,50
 213 720 213 720 300 720 c 0,0,1
EndSplineSet
Validated: 1
EndChar

StartChar: zeta
Encoding: 950 950 174
Width: 620
Flags: W
LayerCount: 2
Fore
SplineSet
140 1000 m 128,-1,1
 161 1000 161 1000 175.5 985.5 c 128,-1,2
 190 971 190 971 190 950 c 0,3,4
 190 909 190 909 219.5 879.5 c 128,-1,5
 249 850 249 850 290 850 c 2,6,-1
 490 850 l 2,7,8
 511 850 511 850 525.5 835.5 c 128,-1,9
 540 821 540 821 540 800 c 0,10,11
 540 773 540 773 517 758 c 0,12,13
 365 660 365 660 277.5 519.5 c 128,-1,14
 190 379 190 379 190 200 c 0,15,16
 190 159 190 159 219.5 129.5 c 128,-1,17
 249 100 249 100 290 100 c 2,18,-1
 390 100 l 2,19,20
 472 100 472 100 531 41 c 128,-1,21
 590 -18 590 -18 590 -100 c 128,-1,22
 590 -182 590 -182 531 -241 c 128,-1,23
 472 -300 472 -300 390 -300 c 2,24,-1
 240 -300 l 2,25,26
 219 -300 219 -300 204.5 -285.5 c 128,-1,27
 190 -271 190 -271 190 -250 c 128,-1,28
 190 -229 190 -229 204.5 -214.5 c 128,-1,29
 219 -200 219 -200 240 -200 c 2,30,-1
 390 -200 l 2,31,32
 431 -200 431 -200 460.5 -170.5 c 128,-1,33
 490 -141 490 -141 490 -100 c 128,-1,34
 490 -59 490 -59 460.5 -29.5 c 128,-1,35
 431 0 431 0 390 0 c 2,36,-1
 290 0 l 2,37,38
 208 0 208 0 149 59 c 128,-1,39
 90 118 90 118 90 200 c 0,40,41
 90 521 90 521 343 750 c 1,42,-1
 290 750 l 2,43,44
 208 750 208 750 149 809 c 128,-1,45
 90 868 90 868 90 950 c 0,46,47
 90 971 90 971 104.5 985.5 c 128,-1,0
 119 1000 119 1000 140 1000 c 128,-1,1
EndSplineSet
Validated: 1
EndChar

StartChar: eta
Encoding: 951 951 175
Width: 720
Flags: W
LayerCount: 2
Fore
SplineSet
380 720 m 0,0,1
 484 720 484 720 557 647 c 128,-1,2
 630 574 630 574 630 470 c 2,3,-1
 630 -250 l 2,4,5
 630 -271 630 -271 615.5 -285.5 c 128,-1,6
 601 -300 601 -300 580 -300 c 128,-1,7
 559 -300 559 -300 544.5 -285.5 c 128,-1,8
 530 -271 530 -271 530 -250 c 2,9,-1
 530 470 l 2,10,11
 530 532 530 532 486 576 c 128,-1,12
 442 620 442 620 380 620 c 128,-1,13
 318 620 318 620 274 576 c 128,-1,14
 230 532 230 532 230 470 c 2,15,-1
 230 50 l 2,16,17
 230 29 230 29 215.5 14.5 c 128,-1,18
 201 0 201 0 180 0 c 128,-1,19
 159 0 159 0 144.5 14.5 c 128,-1,20
 130 29 130 29 130 50 c 2,21,-1
 130 550 l 2,22,23
 130 571 130 571 115.5 585.5 c 128,-1,24
 101 600 101 600 80 600 c 128,-1,25
 59 600 59 600 44.5 614.5 c 128,-1,26
 30 629 30 629 30 650 c 128,-1,27
 30 671 30 671 44.5 685.5 c 128,-1,28
 59 700 59 700 80 700 c 0,29,30
 153 700 153 700 198 642 c 1,31,32
 273 720 273 720 380 720 c 0,0,1
EndSplineSet
Validated: 1
EndChar

StartChar: theta
Encoding: 952 952 176
Width: 830
Flags: W
LayerCount: 2
Fore
SplineSet
450 1020 m 128,-1,1
 554 1020 554 1020 627 947 c 128,-1,2
 700 874 700 874 700 770 c 2,3,-1
 700 600 l 1,4,-1
 750 600 l 2,5,6
 771 600 771 600 785.5 585.5 c 128,-1,7
 800 571 800 571 800 550 c 128,-1,8
 800 529 800 529 785.5 514.5 c 128,-1,9
 771 500 771 500 750 500 c 2,10,-1
 700 500 l 1,11,-1
 700 180 l 2,12,13
 700 98 700 98 641 39 c 128,-1,14
 582 -20 582 -20 500 -20 c 0,15,16
 439 -20 439 -20 388.5 14 c 128,-1,17
 338 48 338 48 315 103 c 2,18,-1
 246 269 l 2,19,20
 232 300 232 300 200 300 c 0,21,22
 179 300 179 300 164.5 285.5 c 128,-1,23
 150 271 150 271 150 250 c 128,-1,24
 150 229 150 229 135.5 214.5 c 128,-1,25
 121 200 121 200 100 200 c 128,-1,26
 79 200 79 200 64.5 214.5 c 128,-1,27
 50 229 50 229 50 250 c 0,28,29
 50 312 50 312 94 356 c 128,-1,30
 138 400 138 400 200 400 c 0,31,32
 246 400 246 400 283 374.5 c 128,-1,33
 320 349 320 349 338 308 c 2,34,-1
 408 142 l 2,35,36
 420 114 420 114 444.5 97 c 128,-1,37
 469 80 469 80 500 80 c 0,38,39
 541 80 541 80 570.5 109.5 c 128,-1,40
 600 139 600 139 600 180 c 2,41,-1
 600 500 l 1,42,-1
 450 500 l 2,43,44
 346 500 346 500 273 573 c 128,-1,45
 200 646 200 646 200 750 c 2,46,-1
 200 770 l 2,47,48
 200 874 200 874 273 947 c 128,-1,0
 346 1020 346 1020 450 1020 c 128,-1,1
450 920 m 128,-1,50
 388 920 388 920 344 876 c 128,-1,51
 300 832 300 832 300 770 c 2,52,-1
 300 750 l 2,53,54
 300 688 300 688 344 644 c 128,-1,55
 388 600 388 600 450 600 c 2,56,-1
 600 600 l 1,57,-1
 600 770 l 2,58,59
 600 832 600 832 556 876 c 128,-1,49
 512 920 512 920 450 920 c 128,-1,50
EndSplineSet
Validated: 1
EndChar

StartChar: iota
Encoding: 953 953 177
Width: 470
Flags: W
LayerCount: 2
Fore
SplineSet
140 700 m 128,-1,1
 161 700 161 700 175.5 685.5 c 128,-1,2
 190 671 190 671 190 650 c 2,3,-1
 190 170 l 2,4,5
 190 132 190 132 216 106 c 128,-1,6
 242 80 242 80 280 80 c 0,7,8
 328 80 328 80 349 109 c 0,9,10
 364 130 364 130 390 130 c 0,11,12
 411 130 411 130 425.5 115.5 c 128,-1,13
 440 101 440 101 440 80 c 0,14,15
 440 63 440 63 431 51 c 0,16,17
 379 -20 379 -20 280 -20 c 0,18,19
 201 -20 201 -20 145.5 35.5 c 128,-1,20
 90 91 90 91 90 170 c 2,21,-1
 90 650 l 2,22,23
 90 671 90 671 104.5 685.5 c 128,-1,0
 119 700 119 700 140 700 c 128,-1,1
EndSplineSet
Validated: 1
EndChar

StartChar: kappa
Encoding: 954 954 178
Width: 710
Flags: W
LayerCount: 2
Fore
SplineSet
80 700 m 0,0,1
 142 700 142 700 186 656 c 128,-1,2
 230 612 230 612 230 550 c 2,3,-1
 230 371 l 1,4,-1
 545 685 l 2,5,6
 560 700 560 700 580 700 c 0,7,8
 601 700 601 700 615.5 685.5 c 128,-1,9
 630 671 630 671 630 650 c 0,10,11
 630 630 630 630 615 615 c 2,12,-1
 410 409 l 1,13,-1
 537 140 l 2,14,15
 555 100 555 100 600 100 c 2,16,-1
 630 100 l 2,17,18
 651 100 651 100 665.5 85.5 c 128,-1,19
 680 71 680 71 680 50 c 128,-1,20
 680 29 680 29 665.5 14.5 c 128,-1,21
 651 0 651 0 630 0 c 2,22,-1
 600 0 l 2,23,24
 550 0 550 0 508.5 27 c 128,-1,25
 467 54 467 54 446 98 c 2,26,-1
 335 334 l 1,27,-1
 230 229 l 1,28,-1
 230 50 l 2,29,30
 230 29 230 29 215.5 14.5 c 128,-1,31
 201 0 201 0 180 0 c 128,-1,32
 159 0 159 0 144.5 14.5 c 128,-1,33
 130 29 130 29 130 50 c 2,34,-1
 130 550 l 2,35,36
 130 571 130 571 115.5 585.5 c 128,-1,37
 101 600 101 600 80 600 c 128,-1,38
 59 600 59 600 44.5 614.5 c 128,-1,39
 30 629 30 629 30 650 c 128,-1,40
 30 671 30 671 44.5 685.5 c 128,-1,41
 59 700 59 700 80 700 c 0,0,1
EndSplineSet
Validated: 1
EndChar

StartChar: lambda
Encoding: 955 955 179
Width: 650
Flags: W
LayerCount: 2
Fore
SplineSet
170 1000 m 2,0,-1
 180 1000 l 2,1,2
 256 1000 256 1000 286 910 c 2,3,-1
 550 119 l 2,4,5
 556 100 556 100 570 100 c 0,6,7
 591 100 591 100 605.5 85.5 c 128,-1,8
 620 71 620 71 620 50 c 128,-1,9
 620 29 620 29 605.5 14.5 c 128,-1,10
 591 0 591 0 570 0 c 2,11,-1
 560 0 l 2,12,13
 484 0 484 0 454 90 c 2,14,-1
 320 492 l 1,15,-1
 167 34 l 2,16,17
 155 0 155 0 120 0 c 0,18,19
 99 0 99 0 84.5 14.5 c 128,-1,20
 70 29 70 29 70 50 c 0,21,22
 70 58 70 58 73 66 c 2,23,-1
 267 650 l 1,24,-1
 190 881 l 2,25,26
 184 900 184 900 170 900 c 0,27,28
 149 900 149 900 134.5 914.5 c 128,-1,29
 120 929 120 929 120 950 c 128,-1,30
 120 971 120 971 134.5 985.5 c 128,-1,31
 149 1000 149 1000 170 1000 c 2,0,-1
EndSplineSet
Validated: 1
EndChar

StartChar: mu
Encoding: 956 956 180
Width: 730
Flags: W
LayerCount: 2
Fore
SplineSet
150 700 m 128,-1,1
 171 700 171 700 185.5 685.5 c 128,-1,2
 200 671 200 671 200 650 c 2,3,-1
 200 230 l 2,4,5
 200 168 200 168 244 124 c 128,-1,6
 288 80 288 80 350 80 c 128,-1,7
 412 80 412 80 456 124 c 128,-1,8
 500 168 500 168 500 230 c 2,9,-1
 500 650 l 2,10,11
 500 671 500 671 514.5 685.5 c 128,-1,12
 529 700 529 700 550 700 c 128,-1,13
 571 700 571 700 585.5 685.5 c 128,-1,14
 600 671 600 671 600 650 c 2,15,-1
 600 150 l 2,16,17
 600 129 600 129 614.5 114.5 c 128,-1,18
 629 100 629 100 650 100 c 128,-1,19
 671 100 671 100 685.5 85.5 c 128,-1,20
 700 71 700 71 700 50 c 128,-1,21
 700 29 700 29 685.5 14.5 c 128,-1,22
 671 0 671 0 650 0 c 0,23,24
 577 0 577 0 532 58 c 1,25,26
 457 -20 457 -20 350 -20 c 0,27,28
 268 -20 268 -20 200 30 c 1,29,-1
 200 -250 l 2,30,31
 200 -271 200 -271 185.5 -285.5 c 128,-1,32
 171 -300 171 -300 150 -300 c 128,-1,33
 129 -300 129 -300 114.5 -285.5 c 128,-1,34
 100 -271 100 -271 100 -250 c 2,35,-1
 100 650 l 2,36,37
 100 671 100 671 114.5 685.5 c 128,-1,0
 129 700 129 700 150 700 c 128,-1,1
EndSplineSet
Validated: 1
EndChar

StartChar: nu
Encoding: 957 957 181
Width: 610
Flags: W
LayerCount: 2
Fore
SplineSet
90 700 m 0,0,1
 131 700 131 700 160.5 670.5 c 128,-1,2
 190 641 190 641 190 600 c 0,3,4
 190 506 190 506 215.5 365 c 128,-1,5
 241 224 241 224 266 135 c 1,6,7
 440 301 440 301 440 650 c 0,8,9
 440 671 440 671 454.5 685.5 c 128,-1,10
 469 700 469 700 490 700 c 128,-1,11
 511 700 511 700 525.5 685.5 c 128,-1,12
 540 671 540 671 540 650 c 0,13,14
 540 422 540 422 468 258 c 128,-1,15
 396 94 396 94 268 8 c 0,16,17
 255 0 255 0 240 0 c 0,18,19
 205 0 205 0 193 34 c 0,20,21
 154 151 154 151 124 307 c 128,-1,22
 94 463 94 463 90 580 c 0,23,24
 89 597 89 597 70 604 c 0,25,26
 40 617 40 617 40 650 c 0,27,28
 40 671 40 671 54.5 685.5 c 128,-1,29
 69 700 69 700 90 700 c 0,0,1
EndSplineSet
Validated: 1
EndChar

StartChar: xi
Encoding: 958 958 182
Width: 800
Flags: W
LayerCount: 2
Fore
SplineSet
150 1000 m 128,-1,1
 171 1000 171 1000 185.5 985.5 c 128,-1,2
 200 971 200 971 200 950 c 128,-1,3
 200 929 200 929 214.5 914.5 c 128,-1,4
 229 900 229 900 250 900 c 2,5,-1
 550 900 l 2,6,7
 571 900 571 900 585.5 885.5 c 128,-1,8
 600 871 600 871 600 850 c 128,-1,9
 600 829 600 829 585.5 814.5 c 128,-1,10
 571 800 571 800 550 800 c 2,11,-1
 400 800 l 2,12,13
 359 800 359 800 329.5 770.5 c 128,-1,14
 300 741 300 741 300 700 c 128,-1,15
 300 659 300 659 329.5 629.5 c 128,-1,16
 359 600 359 600 400 600 c 2,17,-1
 550 600 l 2,18,19
 571 600 571 600 585.5 585.5 c 128,-1,20
 600 571 600 571 600 550 c 128,-1,21
 600 529 600 529 585.5 514.5 c 128,-1,22
 571 500 571 500 550 500 c 2,23,-1
 400 500 l 2,24,25
 318 500 318 500 259 441 c 128,-1,26
 200 382 200 382 200 300 c 128,-1,27
 200 218 200 218 259 159 c 128,-1,28
 318 100 318 100 400 100 c 2,29,-1
 500 100 l 2,30,31
 582 100 582 100 641 41 c 128,-1,32
 700 -18 700 -18 700 -100 c 128,-1,33
 700 -182 700 -182 641 -241 c 128,-1,34
 582 -300 582 -300 500 -300 c 2,35,-1
 250 -300 l 2,36,37
 229 -300 229 -300 214.5 -285.5 c 128,-1,38
 200 -271 200 -271 200 -250 c 128,-1,39
 200 -229 200 -229 214.5 -214.5 c 128,-1,40
 229 -200 229 -200 250 -200 c 2,41,-1
 500 -200 l 2,42,43
 541 -200 541 -200 570.5 -170.5 c 128,-1,44
 600 -141 600 -141 600 -100 c 128,-1,45
 600 -59 600 -59 570.5 -29.5 c 128,-1,46
 541 0 541 0 500 0 c 2,47,-1
 400 0 l 2,48,49
 276 0 276 0 188 88 c 128,-1,50
 100 176 100 176 100 300 c 0,51,52
 100 383 100 383 142.5 453.5 c 128,-1,53
 185 524 185 524 255 563 c 1,54,55
 200 621 200 621 200 700 c 0,56,57
 200 755 200 755 228 802 c 1,58,59
 174 810 174 810 137 852 c 128,-1,60
 100 894 100 894 100 950 c 0,61,62
 100 971 100 971 114.5 985.5 c 128,-1,0
 129 1000 129 1000 150 1000 c 128,-1,1
EndSplineSet
Validated: 1
EndChar

StartChar: pi
Encoding: 960 960 184
Width: 750
Flags: W
LayerCount: 2
Fore
SplineSet
680 750 m 0,0,1
 701 750 701 750 715.5 735.5 c 128,-1,2
 730 721 730 721 730 700 c 0,3,4
 730 674 730 674 711 660 c 0,5,6
 651 615 651 615 580 604 c 1,7,-1
 580 150 l 2,8,9
 580 129 580 129 594.5 114.5 c 128,-1,10
 609 100 609 100 630 100 c 128,-1,11
 651 100 651 100 665.5 85.5 c 128,-1,12
 680 71 680 71 680 50 c 128,-1,13
 680 29 680 29 665.5 14.5 c 128,-1,14
 651 0 651 0 630 0 c 0,15,16
 568 0 568 0 524 44 c 128,-1,17
 480 88 480 88 480 150 c 2,18,-1
 480 600 l 1,19,-1
 280 600 l 1,20,-1
 280 150 l 2,21,22
 280 88 280 88 236 44 c 128,-1,23
 192 0 192 0 130 0 c 0,24,25
 109 0 109 0 94.5 14.5 c 128,-1,26
 80 29 80 29 80 50 c 128,-1,27
 80 71 80 71 94.5 85.5 c 128,-1,28
 109 100 109 100 130 100 c 128,-1,29
 151 100 151 100 165.5 114.5 c 128,-1,30
 180 129 180 129 180 150 c 2,31,-1
 180 600 l 1,32,-1
 80 600 l 2,33,34
 59 600 59 600 44.5 614.5 c 128,-1,35
 30 629 30 629 30 650 c 128,-1,36
 30 671 30 671 44.5 685.5 c 128,-1,37
 59 700 59 700 80 700 c 2,38,-1
 530 700 l 2,39,40
 598 700 598 700 649 740 c 0,41,42
 662 750 662 750 680 750 c 0,0,1
EndSplineSet
Validated: 1
EndChar

StartChar: rho
Encoding: 961 961 185
Width: 680
Flags: W
LayerCount: 2
Fore
SplineSet
340 720 m 128,-1,1
 444 720 444 720 517 647 c 128,-1,2
 590 574 590 574 590 470 c 2,3,-1
 590 230 l 2,4,5
 590 126 590 126 517 53 c 128,-1,6
 444 -20 444 -20 340 -20 c 2,7,-1
 333 -20 l 1,8,9
 350 -62 350 -62 354 -100 c 0,10,11
 357 -122 357 -122 357 -145 c 0,12,13
 357 -203 357 -203 338 -264 c 0,14,15
 333 -280 333 -280 320 -290 c 128,-1,16
 307 -300 307 -300 290 -300 c 0,17,18
 269 -300 269 -300 254.5 -285.5 c 128,-1,19
 240 -271 240 -271 240 -250 c 0,20,21
 240 -244 240 -244 242 -236 c 0,22,23
 257 -180 257 -180 257 -143 c 0,24,25
 257 -133 257 -133 255 -113 c 0,26,27
 242 -25 242 -25 163 53 c 0,28,29
 90 126 90 126 90 230 c 2,30,-1
 90 470 l 2,31,32
 90 574 90 574 163 647 c 128,-1,0
 236 720 236 720 340 720 c 128,-1,1
340 620 m 128,-1,34
 278 620 278 620 234 576 c 128,-1,35
 190 532 190 532 190 470 c 2,36,-1
 190 230 l 2,37,38
 190 168 190 168 234 124 c 128,-1,39
 278 80 278 80 340 80 c 128,-1,40
 402 80 402 80 446 124 c 128,-1,41
 490 168 490 168 490 230 c 2,42,-1
 490 470 l 2,43,44
 490 532 490 532 446 576 c 128,-1,33
 402 620 402 620 340 620 c 128,-1,34
EndSplineSet
Validated: 1
EndChar

StartChar: sigma1
Encoding: 962 962 186
Width: 580
Flags: W
LayerCount: 2
Fore
SplineSet
290 700 m 2,0,-1
 440 700 l 2,1,2
 461 700 461 700 475.5 685.5 c 128,-1,3
 490 671 490 671 490 650 c 128,-1,4
 490 629 490 629 475.5 614.5 c 128,-1,5
 461 600 461 600 440 600 c 2,6,-1
 290 600 l 2,7,8
 249 600 249 600 219.5 570.5 c 128,-1,9
 190 541 190 541 190 500 c 2,10,-1
 190 200 l 2,11,12
 190 159 190 159 219.5 129.5 c 128,-1,13
 249 100 249 100 290 100 c 2,14,-1
 340 100 l 2,15,16
 422 100 422 100 481 41 c 128,-1,17
 540 -18 540 -18 540 -100 c 128,-1,18
 540 -182 540 -182 481 -241 c 128,-1,19
 422 -300 422 -300 340 -300 c 2,20,-1
 240 -300 l 2,21,22
 219 -300 219 -300 204.5 -285.5 c 128,-1,23
 190 -271 190 -271 190 -250 c 128,-1,24
 190 -229 190 -229 204.5 -214.5 c 128,-1,25
 219 -200 219 -200 240 -200 c 2,26,-1
 340 -200 l 2,27,28
 381 -200 381 -200 410.5 -170.5 c 128,-1,29
 440 -141 440 -141 440 -100 c 128,-1,30
 440 -59 440 -59 410.5 -29.5 c 128,-1,31
 381 0 381 0 340 0 c 2,32,-1
 290 0 l 2,33,34
 208 0 208 0 149 59 c 128,-1,35
 90 118 90 118 90 200 c 2,36,-1
 90 500 l 2,37,38
 90 582 90 582 149 641 c 128,-1,39
 208 700 208 700 290 700 c 2,0,-1
EndSplineSet
Validated: 1
EndChar

StartChar: sigma
Encoding: 963 963 187
Width: 710
Flags: W
LayerCount: 2
Fore
SplineSet
640 750 m 0,0,1
 661 750 661 750 675.5 735.5 c 128,-1,2
 690 721 690 721 690 700 c 0,3,4
 690 674 690 674 671 660 c 0,5,6
 617 619 617 619 550 606 c 1,7,8
 590 544 590 544 590 470 c 2,9,-1
 590 230 l 2,10,11
 590 126 590 126 517 53 c 128,-1,12
 444 -20 444 -20 340 -20 c 128,-1,13
 236 -20 236 -20 163 53 c 128,-1,14
 90 126 90 126 90 230 c 2,15,-1
 90 470 l 2,16,17
 90 574 90 574 163 647 c 128,-1,18
 236 720 236 720 340 720 c 0,19,20
 379 720 379 720 410 710 c 0,21,22
 443 700 443 700 490 700 c 0,23,24
 558 700 558 700 609 740 c 0,25,26
 622 750 622 750 640 750 c 0,0,1
340 620 m 128,-1,28
 278 620 278 620 234 576 c 128,-1,29
 190 532 190 532 190 470 c 2,30,-1
 190 230 l 2,31,32
 190 168 190 168 234 124 c 128,-1,33
 278 80 278 80 340 80 c 128,-1,34
 402 80 402 80 446 124 c 128,-1,35
 490 168 490 168 490 230 c 2,36,-1
 490 470 l 2,37,38
 490 532 490 532 446 576 c 128,-1,27
 402 620 402 620 340 620 c 128,-1,28
EndSplineSet
Validated: 1
EndChar

StartChar: tau
Encoding: 964 964 188
Width: 700
Flags: W
LayerCount: 2
Fore
SplineSet
630 750 m 0,0,1
 651 750 651 750 665.5 735.5 c 128,-1,2
 680 721 680 721 680 700 c 0,3,4
 680 674 680 674 661 660 c 0,5,6
 581 600 581 600 480 600 c 2,7,-1
 380 600 l 1,8,-1
 380 180 l 2,9,10
 380 147 380 147 403.5 123.5 c 128,-1,11
 427 100 427 100 460 100 c 2,12,-1
 480 100 l 2,13,14
 501 100 501 100 515.5 85.5 c 128,-1,15
 530 71 530 71 530 50 c 128,-1,16
 530 29 530 29 515.5 14.5 c 128,-1,17
 501 0 501 0 480 0 c 2,18,-1
 460 0 l 2,19,20
 386 0 386 0 333 53 c 128,-1,21
 280 106 280 106 280 180 c 2,22,-1
 280 600 l 1,23,-1
 80 600 l 2,24,25
 59 600 59 600 44.5 614.5 c 128,-1,26
 30 629 30 629 30 650 c 128,-1,27
 30 671 30 671 44.5 685.5 c 128,-1,28
 59 700 59 700 80 700 c 2,29,-1
 480 700 l 2,30,31
 548 700 548 700 599 740 c 0,32,33
 612 750 612 750 630 750 c 0,0,1
EndSplineSet
Validated: 1
EndChar

StartChar: upsilon
Encoding: 965 965 189
Width: 640
Flags: W
LayerCount: 2
Fore
SplineSet
100 700 m 0,0,1
 141 700 141 700 170.5 670.5 c 128,-1,2
 200 641 200 641 200 600 c 2,3,-1
 200 180 l 2,4,5
 200 139 200 139 229.5 109.5 c 128,-1,6
 259 80 259 80 300 80 c 0,7,8
 342 80 342 80 370 105 c 0,9,10
 400 132 400 132 417 177 c 0,11,12
 450 260 450 260 450 400 c 0,13,14
 450 521 450 521 404 629 c 0,15,16
 400 637 400 637 400 650 c 0,17,18
 400 671 400 671 414.5 685.5 c 128,-1,19
 429 700 429 700 450 700 c 0,20,21
 483 700 483 700 496 670 c 0,22,23
 550 545 550 545 550 400 c 0,24,25
 550 243 550 243 510 141 c 0,26,27
 483 69 483 69 436 29 c 0,28,29
 379 -20 379 -20 300 -20 c 0,30,31
 218 -20 218 -20 159 39 c 128,-1,32
 100 98 100 98 100 180 c 2,33,-1
 100 580 l 2,34,35
 100 596 100 596 80 604 c 0,36,37
 50 617 50 617 50 650 c 0,38,39
 50 671 50 671 64.5 685.5 c 128,-1,40
 79 700 79 700 100 700 c 0,0,1
EndSplineSet
Validated: 1
EndChar

StartChar: phi
Encoding: 966 966 190
Width: 880
Flags: W
LayerCount: 2
Fore
SplineSet
580 720 m 0,0,1
 650 720 650 720 697 679 c 0,2,3
 738 644 738 644 760 580 c 0,4,5
 790 493 790 493 790 330 c 0,6,7
 790 199 790 199 704 100.5 c 128,-1,8
 618 2 618 2 490 -16 c 1,9,-1
 490 -250 l 2,10,11
 490 -271 490 -271 475.5 -285.5 c 128,-1,12
 461 -300 461 -300 440 -300 c 128,-1,13
 419 -300 419 -300 404.5 -285.5 c 128,-1,14
 390 -271 390 -271 390 -250 c 2,15,-1
 390 -16 l 1,16,17
 262 2 262 2 176 100.5 c 128,-1,18
 90 199 90 199 90 330 c 0,19,20
 90 515 90 515 143 667 c 0,21,22
 155 700 155 700 190 700 c 0,23,24
 211 700 211 700 225.5 685.5 c 128,-1,25
 240 671 240 671 240 650 c 0,26,27
 240 640 240 640 237 633 c 0,28,29
 190 499 190 499 190 330 c 0,30,31
 190 240 190 240 247 171 c 128,-1,32
 304 102 304 102 390 85 c 1,33,-1
 390 530 l 2,34,35
 390 609 390 609 445.5 664.5 c 128,-1,36
 501 720 501 720 580 720 c 0,0,1
580 620 m 0,37,38
 542 620 542 620 516 594 c 128,-1,39
 490 568 490 568 490 530 c 2,40,-1
 490 85 l 1,41,42
 576 102 576 102 633 171 c 128,-1,43
 690 240 690 240 690 330 c 0,44,45
 690 477 690 477 665 547 c 0,46,47
 652 586 652 586 631 603 c 0,48,49
 611 620 611 620 580 620 c 0,37,38
EndSplineSet
Validated: 1
EndChar

StartChar: chi
Encoding: 967 967 191
Width: 690
Flags: W
LayerCount: 2
Fore
SplineSet
110 700 m 2,0,-1
 120 700 l 2,1,2
 192 700 192 700 232 610 c 2,3,-1
 360 323 l 1,4,-1
 514 670 l 2,5,6
 528 700 528 700 560 700 c 0,7,8
 581 700 581 700 595.5 685.5 c 128,-1,9
 610 671 610 671 610 650 c 0,10,11
 610 638 610 638 606 630 c 2,12,-1
 415 200 l 1,13,-1
 584 -180 l 2,14,15
 593 -200 593 -200 610 -200 c 0,16,17
 631 -200 631 -200 645.5 -214.5 c 128,-1,18
 660 -229 660 -229 660 -250 c 128,-1,19
 660 -271 660 -271 645.5 -285.5 c 128,-1,20
 631 -300 631 -300 610 -300 c 2,21,-1
 600 -300 l 2,22,23
 528 -300 528 -300 488 -210 c 2,24,-1
 360 77 l 1,25,-1
 206 -270 l 2,26,27
 192 -300 192 -300 160 -300 c 0,28,29
 139 -300 139 -300 124.5 -285.5 c 128,-1,30
 110 -271 110 -271 110 -250 c 0,31,32
 110 -238 110 -238 114 -230 c 2,33,-1
 305 200 l 1,34,-1
 136 580 l 2,35,36
 127 600 127 600 110 600 c 0,37,38
 89 600 89 600 74.5 614.5 c 128,-1,39
 60 629 60 629 60 650 c 128,-1,40
 60 671 60 671 74.5 685.5 c 128,-1,41
 89 700 89 700 110 700 c 2,0,-1
EndSplineSet
Validated: 1
EndChar

StartChar: psi
Encoding: 968 968 192
Width: 880
Flags: W
LayerCount: 2
Fore
SplineSet
440 900 m 128,-1,1
 461 900 461 900 475.5 885.5 c 128,-1,2
 490 871 490 871 490 850 c 2,3,-1
 490 85 l 1,4,5
 576 102 576 102 633 171 c 128,-1,6
 690 240 690 240 690 330 c 2,7,-1
 690 650 l 2,8,9
 690 671 690 671 704.5 685.5 c 128,-1,10
 719 700 719 700 740 700 c 128,-1,11
 761 700 761 700 775.5 685.5 c 128,-1,12
 790 671 790 671 790 650 c 2,13,-1
 790 330 l 2,14,15
 790 199 790 199 704 100.5 c 128,-1,16
 618 2 618 2 490 -16 c 1,17,-1
 490 -250 l 2,18,19
 490 -271 490 -271 475.5 -285.5 c 128,-1,20
 461 -300 461 -300 440 -300 c 128,-1,21
 419 -300 419 -300 404.5 -285.5 c 128,-1,22
 390 -271 390 -271 390 -250 c 2,23,-1
 390 -16 l 1,24,25
 262 2 262 2 176 100.5 c 128,-1,26
 90 199 90 199 90 330 c 2,27,-1
 90 650 l 2,28,29
 90 671 90 671 104.5 685.5 c 128,-1,30
 119 700 119 700 140 700 c 128,-1,31
 161 700 161 700 175.5 685.5 c 128,-1,32
 190 671 190 671 190 650 c 2,33,-1
 190 330 l 2,34,35
 190 240 190 240 247 171 c 128,-1,36
 304 102 304 102 390 85 c 1,37,-1
 390 850 l 2,38,39
 390 871 390 871 404.5 885.5 c 128,-1,0
 419 900 419 900 440 900 c 128,-1,1
EndSplineSet
Validated: 1
EndChar

StartChar: omega
Encoding: 969 969 193
Width: 980
Flags: W
LayerCount: 2
Fore
SplineSet
190 700 m 0,0,1
 211 700 211 700 225.5 685.5 c 128,-1,2
 240 671 240 671 240 650 c 0,3,4
 240 640 240 640 238 635 c 0,5,6
 190 484 190 484 190 250 c 2,7,-1
 190 205 l 2,8,9
 190 153 190 153 226.5 116.5 c 128,-1,10
 263 80 263 80 315 80 c 128,-1,11
 367 80 367 80 403.5 116.5 c 128,-1,12
 440 153 440 153 440 205 c 2,13,-1
 440 350 l 2,14,15
 440 371 440 371 454.5 385.5 c 128,-1,16
 469 400 469 400 490 400 c 128,-1,17
 511 400 511 400 525.5 385.5 c 128,-1,18
 540 371 540 371 540 350 c 2,19,-1
 540 205 l 2,20,21
 540 153 540 153 576.5 116.5 c 128,-1,22
 613 80 613 80 665 80 c 128,-1,23
 717 80 717 80 753.5 116.5 c 128,-1,24
 790 153 790 153 790 205 c 2,25,-1
 790 250 l 2,26,27
 790 484 790 484 742 635 c 0,28,29
 740 640 740 640 740 650 c 0,30,31
 740 671 740 671 754.5 685.5 c 128,-1,32
 769 700 769 700 790 700 c 0,33,34
 826 700 826 700 838 665 c 0,35,36
 890 500 890 500 890 250 c 2,37,-1
 890 205 l 2,38,39
 890 112 890 112 824 46 c 128,-1,40
 758 -20 758 -20 665 -20 c 0,41,42
 558 -20 558 -20 490 64 c 1,43,44
 422 -20 422 -20 315 -20 c 0,45,46
 222 -20 222 -20 156 46 c 128,-1,47
 90 112 90 112 90 205 c 2,48,-1
 90 250 l 2,49,50
 90 500 90 500 142 665 c 0,51,52
 154 700 154 700 190 700 c 0,0,1
EndSplineSet
Validated: 1
EndChar

StartChar: afii10053
Encoding: 1028 1028 197
Width: 770
Flags: W
LayerCount: 2
Fore
SplineSet
640 1000 m 2,0,1
 661 1000 661 1000 675.5 985.5 c 128,-1,2
 690 971 690 971 690 950 c 128,-1,3
 690 929 690 929 675.5 914.5 c 128,-1,4
 661 900 661 900 640 900 c 2,5,-1
 390 900 l 2,6,7
 308 900 308 900 249 841 c 128,-1,8
 190 782 190 782 190 700 c 2,9,-1
 190 600 l 1,10,-1
 440 600 l 2,11,12
 461 600 461 600 475.5 585.5 c 128,-1,13
 490 571 490 571 490 550 c 128,-1,14
 490 529 490 529 475.5 514.5 c 128,-1,15
 461 500 461 500 440 500 c 2,16,-1
 190 500 l 1,17,-1
 190 300 l 2,18,19
 190 218 190 218 249 159 c 128,-1,20
 308 100 308 100 390 100 c 2,21,-1
 640 100 l 2,22,23
 661 100 661 100 675.5 85.5 c 128,-1,24
 690 71 690 71 690 50 c 128,-1,25
 690 29 690 29 675.5 14.5 c 128,-1,26
 661 0 661 0 640 0 c 2,27,-1
 390 0 l 2,28,29
 266 0 266 0 178 88 c 128,-1,30
 90 176 90 176 90 300 c 2,31,-1
 90 700 l 2,32,33
 90 824 90 824 178 912 c 128,-1,34
 266 1000 266 1000 390 1000 c 2,35,-1
 640 1000 l 2,0,1
EndSplineSet
Validated: 1
EndChar

StartChar: afii10058
Encoding: 1033 1033 202
Width: 1240
Flags: W
LayerCount: 2
Fore
SplineSet
360 1000 m 2,0,-1
 610 1000 l 2,1,2
 631 1000 631 1000 645.5 985.5 c 128,-1,3
 660 971 660 971 660 950 c 2,4,-1
 660 600 l 1,5,-1
 860 600 l 2,6,7
 984 600 984 600 1072 512 c 128,-1,8
 1160 424 1160 424 1160 300 c 128,-1,9
 1160 176 1160 176 1072 88 c 128,-1,10
 984 0 984 0 860 0 c 2,11,-1
 610 0 l 2,12,13
 589 0 589 0 574.5 14.5 c 128,-1,14
 560 29 560 29 560 50 c 2,15,-1
 560 900 l 1,16,-1
 398 900 l 1,17,-1
 158 37 l 2,18,19
 153 21 153 21 140 10.5 c 128,-1,20
 127 0 127 0 110 0 c 0,21,22
 89 0 89 0 74.5 14.5 c 128,-1,23
 60 29 60 29 60 50 c 0,24,25
 60 55 60 55 62 63 c 2,26,-1
 312 963 l 2,27,28
 317 979 317 979 330 989.5 c 128,-1,29
 343 1000 343 1000 360 1000 c 2,0,-1
660 500 m 1,30,-1
 660 100 l 1,31,-1
 860 100 l 2,32,33
 942 100 942 100 1001 159 c 128,-1,34
 1060 218 1060 218 1060 300 c 128,-1,35
 1060 382 1060 382 1001 441 c 128,-1,36
 942 500 942 500 860 500 c 2,37,-1
 660 500 l 1,30,-1
EndSplineSet
Validated: 1
EndChar

StartChar: afii10059
Encoding: 1034 1034 203
Width: 1280
Flags: W
LayerCount: 2
Fore
SplineSet
150 1000 m 128,-1,1
 171 1000 171 1000 185.5 985.5 c 128,-1,2
 200 971 200 971 200 950 c 2,3,-1
 200 600 l 1,4,-1
 600 600 l 1,5,-1
 600 950 l 2,6,7
 600 971 600 971 614.5 985.5 c 128,-1,8
 629 1000 629 1000 650 1000 c 128,-1,9
 671 1000 671 1000 685.5 985.5 c 128,-1,10
 700 971 700 971 700 950 c 2,11,-1
 700 600 l 1,12,-1
 900 600 l 2,13,14
 1024 600 1024 600 1112 512 c 128,-1,15
 1200 424 1200 424 1200 300 c 128,-1,16
 1200 176 1200 176 1112 88 c 128,-1,17
 1024 0 1024 0 900 0 c 2,18,-1
 650 0 l 2,19,20
 629 0 629 0 614.5 14.5 c 128,-1,21
 600 29 600 29 600 50 c 2,22,-1
 600 500 l 1,23,-1
 200 500 l 1,24,-1
 200 50 l 2,25,26
 200 29 200 29 185.5 14.5 c 128,-1,27
 171 0 171 0 150 0 c 128,-1,28
 129 0 129 0 114.5 14.5 c 128,-1,29
 100 29 100 29 100 50 c 2,30,-1
 100 950 l 2,31,32
 100 971 100 971 114.5 985.5 c 128,-1,0
 129 1000 129 1000 150 1000 c 128,-1,1
700 500 m 1,33,-1
 700 100 l 1,34,-1
 900 100 l 2,35,36
 982 100 982 100 1041 159 c 128,-1,37
 1100 218 1100 218 1100 300 c 128,-1,38
 1100 382 1100 382 1041 441 c 128,-1,39
 982 500 982 500 900 500 c 2,40,-1
 700 500 l 1,33,-1
EndSplineSet
Validated: 1
EndChar

StartChar: afii10062
Encoding: 1038 1038 206
Width: 790
Flags: W
LayerCount: 2
Fore
SplineSet
140 1000 m 128,-1,1
 161 1000 161 1000 175.5 985.5 c 128,-1,2
 190 971 190 971 190 950 c 2,3,-1
 190 700 l 2,4,5
 190 618 190 618 249 559 c 128,-1,6
 308 500 308 500 390 500 c 2,7,-1
 590 500 l 1,8,-1
 590 950 l 2,9,10
 590 971 590 971 604.5 985.5 c 128,-1,11
 619 1000 619 1000 640 1000 c 128,-1,12
 661 1000 661 1000 675.5 985.5 c 128,-1,13
 690 971 690 971 690 950 c 2,14,-1
 690 250 l 2,15,16
 690 146 690 146 617 73 c 128,-1,17
 544 0 544 0 440 0 c 2,18,-1
 240 0 l 2,19,20
 219 0 219 0 204.5 14.5 c 128,-1,21
 190 29 190 29 190 50 c 128,-1,22
 190 71 190 71 204.5 85.5 c 128,-1,23
 219 100 219 100 240 100 c 2,24,-1
 440 100 l 2,25,26
 502 100 502 100 546 144 c 128,-1,27
 590 188 590 188 590 250 c 2,28,-1
 590 400 l 1,29,-1
 390 400 l 2,30,31
 266 400 266 400 178 488 c 128,-1,32
 90 576 90 576 90 700 c 2,33,-1
 90 950 l 2,34,35
 90 971 90 971 104.5 985.5 c 128,-1,0
 119 1000 119 1000 140 1000 c 128,-1,1
290 1200 m 2,36,-1
 490 1200 l 2,37,38
 511 1200 511 1200 525.5 1185.5 c 128,-1,39
 540 1171 540 1171 540 1150 c 128,-1,40
 540 1129 540 1129 525.5 1114.5 c 128,-1,41
 511 1100 511 1100 490 1100 c 2,42,-1
 290 1100 l 2,43,44
 269 1100 269 1100 254.5 1114.5 c 128,-1,45
 240 1129 240 1129 240 1150 c 128,-1,46
 240 1171 240 1171 254.5 1185.5 c 128,-1,47
 269 1200 269 1200 290 1200 c 2,36,-1
EndSplineSet
Validated: 1
EndChar

StartChar: afii10145
Encoding: 1039 1039 207
Width: 800
Flags: W
LayerCount: 2
Fore
SplineSet
150 1000 m 128,-1,1
 171 1000 171 1000 185.5 985.5 c 128,-1,2
 200 971 200 971 200 950 c 2,3,-1
 200 100 l 1,4,-1
 600 100 l 1,5,-1
 600 950 l 2,6,7
 600 971 600 971 614.5 985.5 c 128,-1,8
 629 1000 629 1000 650 1000 c 128,-1,9
 671 1000 671 1000 685.5 985.5 c 128,-1,10
 700 971 700 971 700 950 c 2,11,-1
 700 50 l 2,12,13
 700 29 700 29 685.5 14.5 c 128,-1,14
 671 0 671 0 650 0 c 2,15,-1
 450 0 l 1,16,-1
 450 -150 l 2,17,18
 450 -171 450 -171 435.5 -185.5 c 128,-1,19
 421 -200 421 -200 400 -200 c 128,-1,20
 379 -200 379 -200 364.5 -185.5 c 128,-1,21
 350 -171 350 -171 350 -150 c 2,22,-1
 350 0 l 1,23,-1
 150 0 l 2,24,25
 129 0 129 0 114.5 14.5 c 128,-1,26
 100 29 100 29 100 50 c 2,27,-1
 100 950 l 2,28,29
 100 971 100 971 114.5 985.5 c 128,-1,0
 129 1000 129 1000 150 1000 c 128,-1,1
EndSplineSet
Validated: 1
EndChar

StartChar: afii10018
Encoding: 1041 1041 209
Width: 780
Flags: W
LayerCount: 2
Fore
SplineSet
150 1000 m 2,0,-1
 550 1000 l 2,1,2
 571 1000 571 1000 585.5 985.5 c 128,-1,3
 600 971 600 971 600 950 c 128,-1,4
 600 929 600 929 585.5 914.5 c 128,-1,5
 571 900 571 900 550 900 c 2,6,-1
 200 900 l 1,7,-1
 200 600 l 1,8,-1
 400 600 l 2,9,10
 524 600 524 600 612 512 c 128,-1,11
 700 424 700 424 700 300 c 128,-1,12
 700 176 700 176 612 88 c 128,-1,13
 524 0 524 0 400 0 c 2,14,-1
 150 0 l 2,15,16
 129 0 129 0 114.5 14.5 c 128,-1,17
 100 29 100 29 100 50 c 2,18,-1
 100 950 l 2,19,20
 100 971 100 971 114.5 985.5 c 128,-1,21
 129 1000 129 1000 150 1000 c 2,0,-1
200 500 m 1,22,-1
 200 100 l 1,23,-1
 400 100 l 2,24,25
 482 100 482 100 541 159 c 128,-1,26
 600 218 600 218 600 300 c 128,-1,27
 600 382 600 382 541 441 c 128,-1,28
 482 500 482 500 400 500 c 2,29,-1
 200 500 l 1,22,-1
EndSplineSet
Validated: 1
EndChar

StartChar: afii10020
Encoding: 1043 1043 211
Width: 650
Flags: W
LayerCount: 2
Fore
SplineSet
150 1000 m 2,0,-1
 550 1000 l 2,1,2
 571 1000 571 1000 585.5 985.5 c 128,-1,3
 600 971 600 971 600 950 c 128,-1,4
 600 929 600 929 585.5 914.5 c 128,-1,5
 571 900 571 900 550 900 c 2,6,-1
 200 900 l 1,7,-1
 200 50 l 2,8,9
 200 29 200 29 185.5 14.5 c 128,-1,10
 171 0 171 0 150 0 c 128,-1,11
 129 0 129 0 114.5 14.5 c 128,-1,12
 100 29 100 29 100 50 c 2,13,-1
 100 950 l 2,14,15
 100 971 100 971 114.5 985.5 c 128,-1,16
 129 1000 129 1000 150 1000 c 2,0,-1
EndSplineSet
Validated: 1
EndChar

StartChar: afii10021
Encoding: 1044 1044 212
Width: 750
Flags: W
LayerCount: 2
Fore
SplineSet
220 956 m 2,0,1
 225 1000 225 1000 276 1000 c 2,2,-1
 570 1000 l 2,3,4
 591 1000 591 1000 605.5 985.5 c 128,-1,5
 620 971 620 971 620 950 c 2,6,-1
 620 100 l 1,7,-1
 670 100 l 2,8,9
 691 100 691 100 705.5 85.5 c 128,-1,10
 720 71 720 71 720 50 c 2,11,-1
 720 -50 l 2,12,13
 720 -71 720 -71 705.5 -85.5 c 128,-1,14
 691 -100 691 -100 670 -100 c 128,-1,15
 649 -100 649 -100 634.5 -85.5 c 128,-1,16
 620 -71 620 -71 620 -50 c 2,17,-1
 620 0 l 1,18,-1
 120 0 l 1,19,-1
 120 -50 l 2,20,21
 120 -71 120 -71 105.5 -85.5 c 128,-1,22
 91 -100 91 -100 70 -100 c 128,-1,23
 49 -100 49 -100 34.5 -85.5 c 128,-1,24
 20 -71 20 -71 20 -50 c 2,25,-1
 20 50 l 2,26,27
 20 71 20 71 34.5 85.5 c 128,-1,28
 49 100 49 100 70 100 c 2,29,-1
 125 100 l 1,30,-1
 220 956 l 2,0,1
520 100 m 1,31,-1
 520 900 l 1,32,-1
 315 900 l 1,33,-1
 225 100 l 1,34,-1
 520 100 l 1,31,-1
EndSplineSet
Validated: 1
EndChar

StartChar: afii10024
Encoding: 1046 1046 214
Width: 920
Flags: W
LayerCount: 2
Fore
SplineSet
110 1000 m 0,0,1
 136 1000 136 1000 151 978 c 2,2,-1
 410 602 l 1,3,-1
 410 950 l 2,4,5
 410 971 410 971 424.5 985.5 c 128,-1,6
 439 1000 439 1000 460 1000 c 128,-1,7
 481 1000 481 1000 495.5 985.5 c 128,-1,8
 510 971 510 971 510 950 c 2,9,-1
 510 602 l 1,10,-1
 769 978 l 2,11,12
 784 1000 784 1000 810 1000 c 0,13,14
 831 1000 831 1000 845.5 985.5 c 128,-1,15
 860 971 860 971 860 950 c 0,16,17
 860 934 860 934 851 922 c 2,18,-1
 594 547 l 1,19,-1
 854 74 l 2,20,21
 860 64 860 64 860 50 c 0,22,23
 860 29 860 29 845.5 14.5 c 128,-1,24
 831 0 831 0 810 0 c 0,25,26
 780 0 780 0 766 26 c 2,27,-1
 510 492 l 1,28,-1
 510 50 l 2,29,30
 510 29 510 29 495.5 14.5 c 128,-1,31
 481 0 481 0 460 0 c 128,-1,32
 439 0 439 0 424.5 14.5 c 128,-1,33
 410 29 410 29 410 50 c 2,34,-1
 410 492 l 1,35,-1
 154 26 l 2,36,37
 140 0 140 0 110 0 c 0,38,39
 89 0 89 0 74.5 14.5 c 128,-1,40
 60 29 60 29 60 50 c 0,41,42
 60 64 60 64 66 74 c 2,43,-1
 326 547 l 1,44,-1
 69 922 l 2,45,46
 60 934 60 934 60 950 c 0,47,48
 60 971 60 971 74.5 985.5 c 128,-1,49
 89 1000 89 1000 110 1000 c 0,0,1
EndSplineSet
Validated: 1
EndChar

StartChar: afii10025
Encoding: 1047 1047 215
Width: 650
Flags: W
LayerCount: 2
Fore
SplineSet
310 1030 m 0,0,1
 419 1030 419 1030 489.5 959.5 c 128,-1,2
 560 889 560 889 560 765 c 0,3,4
 560 619 560 619 462 547 c 1,5,6
 520 503 520 503 555 434.5 c 128,-1,7
 590 366 590 366 590 285 c 0,8,9
 590 134 590 134 510.5 52 c 128,-1,10
 431 -30 431 -30 310 -30 c 0,11,12
 225 -30 225 -30 158.5 17 c 128,-1,13
 92 64 92 64 65 128 c 0,14,15
 60 141 60 141 60 150 c 0,16,17
 60 171 60 171 74.5 185.5 c 128,-1,18
 89 200 89 200 110 200 c 0,19,20
 125 200 125 200 137.5 192 c 128,-1,21
 150 184 150 184 155 172 c 0,22,23
 174 129 174 129 218 99.5 c 128,-1,24
 262 70 262 70 310 70 c 0,25,26
 390 70 390 70 440 123.5 c 128,-1,27
 490 177 490 177 490 285 c 0,28,29
 490 338 490 338 470.5 381.5 c 128,-1,30
 451 425 451 425 422 449.5 c 128,-1,31
 393 474 393 474 363.5 487 c 128,-1,32
 334 500 334 500 310 500 c 2,33,-1
 210 500 l 2,34,35
 189 500 189 500 174.5 514.5 c 128,-1,36
 160 529 160 529 160 550 c 128,-1,37
 160 571 160 571 174.5 585.5 c 128,-1,38
 189 600 189 600 210 600 c 2,39,-1
 310 600 l 2,40,41
 379 600 379 600 419.5 642 c 128,-1,42
 460 684 460 684 460 765 c 128,-1,43
 460 846 460 846 419.5 888 c 128,-1,44
 379 930 379 930 310 930 c 0,45,46
 278 930 278 930 247.5 914 c 128,-1,47
 217 898 217 898 202 872 c 0,48,49
 189 850 189 850 160 850 c 0,50,51
 139 850 139 850 124.5 864.5 c 128,-1,52
 110 879 110 879 110 900 c 0,53,54
 110 914 110 914 119 928 c 0,55,56
 149 977 149 977 200.5 1003.5 c 128,-1,57
 252 1030 252 1030 310 1030 c 0,0,1
EndSplineSet
Validated: 1
EndChar

StartChar: afii10026
Encoding: 1048 1048 216
Width: 800
Flags: W
LayerCount: 2
Fore
SplineSet
150 0 m 0,0,1
 129 0 129 0 114.5 14.5 c 128,-1,2
 100 29 100 29 100 50 c 2,3,-1
 100 950 l 2,4,5
 100 971 100 971 114.5 985.5 c 128,-1,6
 129 1000 129 1000 150 1000 c 128,-1,7
 171 1000 171 1000 185.5 985.5 c 128,-1,8
 200 971 200 971 200 950 c 2,9,-1
 200 243 l 1,10,-1
 604 970 l 2,11,12
 620 1000 620 1000 650 1000 c 0,13,14
 671 1000 671 1000 685.5 985.5 c 128,-1,15
 700 971 700 971 700 950 c 2,16,-1
 700 50 l 2,17,18
 700 29 700 29 685.5 14.5 c 128,-1,19
 671 0 671 0 650 0 c 128,-1,20
 629 0 629 0 614.5 14.5 c 128,-1,21
 600 29 600 29 600 50 c 2,22,-1
 600 757 l 1,23,-1
 194 27 l 2,24,25
 176 0 176 0 150 0 c 0,0,1
EndSplineSet
Validated: 1
EndChar

StartChar: afii10027
Encoding: 1049 1049 217
Width: 800
Flags: W
LayerCount: 2
Fore
SplineSet
150 0 m 0,0,1
 129 0 129 0 114.5 14.5 c 128,-1,2
 100 29 100 29 100 50 c 2,3,-1
 100 950 l 2,4,5
 100 971 100 971 114.5 985.5 c 128,-1,6
 129 1000 129 1000 150 1000 c 128,-1,7
 171 1000 171 1000 185.5 985.5 c 128,-1,8
 200 971 200 971 200 950 c 2,9,-1
 200 243 l 1,10,-1
 604 970 l 2,11,12
 620 1000 620 1000 650 1000 c 0,13,14
 671 1000 671 1000 685.5 985.5 c 128,-1,15
 700 971 700 971 700 950 c 2,16,-1
 700 50 l 2,17,18
 700 29 700 29 685.5 14.5 c 128,-1,19
 671 0 671 0 650 0 c 128,-1,20
 629 0 629 0 614.5 14.5 c 128,-1,21
 600 29 600 29 600 50 c 2,22,-1
 600 757 l 1,23,-1
 194 27 l 2,24,25
 176 0 176 0 150 0 c 0,0,1
300 1200 m 2,26,-1
 500 1200 l 2,27,28
 521 1200 521 1200 535.5 1185.5 c 128,-1,29
 550 1171 550 1171 550 1150 c 128,-1,30
 550 1129 550 1129 535.5 1114.5 c 128,-1,31
 521 1100 521 1100 500 1100 c 2,32,-1
 300 1100 l 2,33,34
 279 1100 279 1100 264.5 1114.5 c 128,-1,35
 250 1129 250 1129 250 1150 c 128,-1,36
 250 1171 250 1171 264.5 1185.5 c 128,-1,37
 279 1200 279 1200 300 1200 c 2,26,-1
EndSplineSet
Validated: 1
EndChar

StartChar: afii10029
Encoding: 1051 1051 219
Width: 760
Flags: W
LayerCount: 2
Fore
SplineSet
60 50 m 0,0,1
 60 55 60 55 62 63 c 2,2,-1
 311 958 l 2,3,4
 324 1000 324 1000 360 1000 c 2,5,-1
 610 1000 l 2,6,7
 631 1000 631 1000 645.5 985.5 c 128,-1,8
 660 971 660 971 660 950 c 2,9,-1
 660 50 l 2,10,11
 660 29 660 29 645.5 14.5 c 128,-1,12
 631 0 631 0 610 0 c 128,-1,13
 589 0 589 0 574.5 14.5 c 128,-1,14
 560 29 560 29 560 50 c 2,15,-1
 560 900 l 1,16,-1
 399 900 l 1,17,-1
 158 37 l 2,18,19
 148 0 148 0 110 0 c 0,20,21
 88 0 88 0 74 15 c 128,-1,22
 60 30 60 30 60 50 c 0,0,1
EndSplineSet
Validated: 1
EndChar

StartChar: afii10033
Encoding: 1055 1055 223
Width: 800
Flags: W
LayerCount: 2
Fore
SplineSet
150 1000 m 2,0,-1
 650 1000 l 2,1,2
 671 1000 671 1000 685.5 985.5 c 128,-1,3
 700 971 700 971 700 950 c 2,4,-1
 700 50 l 2,5,6
 700 29 700 29 685.5 14.5 c 128,-1,7
 671 0 671 0 650 0 c 128,-1,8
 629 0 629 0 614.5 14.5 c 128,-1,9
 600 29 600 29 600 50 c 2,10,-1
 600 900 l 1,11,-1
 200 900 l 1,12,-1
 200 50 l 2,13,14
 200 29 200 29 185.5 14.5 c 128,-1,15
 171 0 171 0 150 0 c 128,-1,16
 129 0 129 0 114.5 14.5 c 128,-1,17
 100 29 100 29 100 50 c 2,18,-1
 100 950 l 2,19,20
 100 971 100 971 114.5 985.5 c 128,-1,21
 129 1000 129 1000 150 1000 c 2,0,-1
EndSplineSet
Validated: 1
EndChar

StartChar: afii10037
Encoding: 1059 1059 227
Width: 790
Flags: W
LayerCount: 2
Fore
SplineSet
140 1000 m 128,-1,1
 161 1000 161 1000 175.5 985.5 c 128,-1,2
 190 971 190 971 190 950 c 2,3,-1
 190 700 l 2,4,5
 190 618 190 618 249 559 c 128,-1,6
 308 500 308 500 390 500 c 2,7,-1
 590 500 l 1,8,-1
 590 950 l 2,9,10
 590 971 590 971 604.5 985.5 c 128,-1,11
 619 1000 619 1000 640 1000 c 128,-1,12
 661 1000 661 1000 675.5 985.5 c 128,-1,13
 690 971 690 971 690 950 c 2,14,-1
 690 250 l 2,15,16
 690 146 690 146 617 73 c 128,-1,17
 544 0 544 0 440 0 c 2,18,-1
 240 0 l 2,19,20
 219 0 219 0 204.5 14.5 c 128,-1,21
 190 29 190 29 190 50 c 128,-1,22
 190 71 190 71 204.5 85.5 c 128,-1,23
 219 100 219 100 240 100 c 2,24,-1
 440 100 l 2,25,26
 502 100 502 100 546 144 c 128,-1,27
 590 188 590 188 590 250 c 2,28,-1
 590 400 l 1,29,-1
 390 400 l 2,30,31
 266 400 266 400 178 488 c 128,-1,32
 90 576 90 576 90 700 c 2,33,-1
 90 950 l 2,34,35
 90 971 90 971 104.5 985.5 c 128,-1,0
 119 1000 119 1000 140 1000 c 128,-1,1
EndSplineSet
Validated: 1
EndChar

StartChar: afii10038
Encoding: 1060 1060 228
Width: 900
Flags: W
LayerCount: 2
Fore
SplineSet
450 1000 m 128,-1,1
 471 1000 471 1000 485.5 985.5 c 128,-1,2
 500 971 500 971 500 950 c 2,3,-1
 500 848 l 1,4,5
 653 839 653 839 742 767 c 0,6,7
 850 680 850 680 850 525 c 128,-1,8
 850 370 850 370 742 283 c 0,9,10
 653 211 653 211 500 202 c 1,11,-1
 500 50 l 2,12,13
 500 29 500 29 485.5 14.5 c 128,-1,14
 471 0 471 0 450 0 c 128,-1,15
 429 0 429 0 414.5 14.5 c 128,-1,16
 400 29 400 29 400 50 c 2,17,-1
 400 202 l 1,18,19
 247 211 247 211 158 283 c 0,20,21
 50 370 50 370 50 525 c 128,-1,22
 50 680 50 680 158 767 c 0,23,24
 247 839 247 839 400 848 c 1,25,-1
 400 950 l 2,26,27
 400 971 400 971 414.5 985.5 c 128,-1,0
 429 1000 429 1000 450 1000 c 128,-1,1
400 748 m 1,28,29
 284 739 284 739 220 689 c 0,30,31
 150 634 150 634 150 525 c 128,-1,32
 150 416 150 416 220 361 c 0,33,34
 284 311 284 311 400 302 c 1,35,-1
 400 748 l 1,28,29
500 748 m 1,36,-1
 500 302 l 1,37,38
 616 311 616 311 680 361 c 0,39,40
 750 416 750 416 750 525 c 128,-1,41
 750 634 750 634 680 689 c 0,42,43
 616 739 616 739 500 748 c 1,36,-1
EndSplineSet
Validated: 1
EndChar

StartChar: afii10040
Encoding: 1062 1062 230
Width: 830
Flags: W
LayerCount: 2
Fore
SplineSet
150 0 m 2,0,1
 129 0 129 0 114.5 14.5 c 128,-1,2
 100 29 100 29 100 50 c 2,3,-1
 100 950 l 2,4,5
 100 971 100 971 114.5 985.5 c 128,-1,6
 129 1000 129 1000 150 1000 c 128,-1,7
 171 1000 171 1000 185.5 985.5 c 128,-1,8
 200 971 200 971 200 950 c 2,9,-1
 200 100 l 1,10,-1
 600 100 l 1,11,-1
 600 950 l 2,12,13
 600 971 600 971 614.5 985.5 c 128,-1,14
 629 1000 629 1000 650 1000 c 128,-1,15
 671 1000 671 1000 685.5 985.5 c 128,-1,16
 700 971 700 971 700 950 c 2,17,-1
 700 100 l 1,18,-1
 750 100 l 2,19,20
 771 100 771 100 785.5 85.5 c 128,-1,21
 800 71 800 71 800 50 c 2,22,-1
 800 -150 l 2,23,24
 800 -171 800 -171 785.5 -185.5 c 128,-1,25
 771 -200 771 -200 750 -200 c 128,-1,26
 729 -200 729 -200 714.5 -185.5 c 128,-1,27
 700 -171 700 -171 700 -150 c 2,28,-1
 700 0 l 1,29,-1
 150 0 l 2,0,1
EndSplineSet
Validated: 1
EndChar

StartChar: afii10041
Encoding: 1063 1063 231
Width: 790
Flags: W
LayerCount: 2
Fore
SplineSet
140 1000 m 128,-1,1
 161 1000 161 1000 175.5 985.5 c 128,-1,2
 190 971 190 971 190 950 c 2,3,-1
 190 700 l 2,4,5
 190 618 190 618 249 559 c 128,-1,6
 308 500 308 500 390 500 c 2,7,-1
 590 500 l 1,8,-1
 590 950 l 2,9,10
 590 971 590 971 604.5 985.5 c 128,-1,11
 619 1000 619 1000 640 1000 c 128,-1,12
 661 1000 661 1000 675.5 985.5 c 128,-1,13
 690 971 690 971 690 950 c 2,14,-1
 690 50 l 2,15,16
 690 29 690 29 675.5 14.5 c 128,-1,17
 661 0 661 0 640 0 c 128,-1,18
 619 0 619 0 604.5 14.5 c 128,-1,19
 590 29 590 29 590 50 c 2,20,-1
 590 400 l 1,21,-1
 390 400 l 2,22,23
 266 400 266 400 178 488 c 128,-1,24
 90 576 90 576 90 700 c 2,25,-1
 90 950 l 2,26,27
 90 971 90 971 104.5 985.5 c 128,-1,0
 119 1000 119 1000 140 1000 c 128,-1,1
EndSplineSet
Validated: 1
EndChar

StartChar: afii10042
Encoding: 1064 1064 232
Width: 1000
Flags: W
LayerCount: 2
Fore
SplineSet
100 50 m 2,0,-1
 100 950 l 2,1,2
 100 971 100 971 114.5 985.5 c 128,-1,3
 129 1000 129 1000 150 1000 c 128,-1,4
 171 1000 171 1000 185.5 985.5 c 128,-1,5
 200 971 200 971 200 950 c 2,6,-1
 200 100 l 1,7,-1
 450 100 l 1,8,-1
 450 950 l 2,9,10
 450 971 450 971 464.5 985.5 c 128,-1,11
 479 1000 479 1000 500 1000 c 128,-1,12
 521 1000 521 1000 535.5 985.5 c 128,-1,13
 550 971 550 971 550 950 c 2,14,-1
 550 100 l 1,15,-1
 800 100 l 1,16,-1
 800 950 l 2,17,18
 800 971 800 971 814.5 985.5 c 128,-1,19
 829 1000 829 1000 850 1000 c 128,-1,20
 871 1000 871 1000 885.5 985.5 c 128,-1,21
 900 971 900 971 900 950 c 2,22,-1
 900 50 l 2,23,24
 900 29 900 29 885.5 14.5 c 128,-1,25
 871 0 871 0 850 0 c 2,26,-1
 150 0 l 2,27,28
 129 0 129 0 114.5 14.5 c 128,-1,29
 100 29 100 29 100 50 c 2,0,-1
EndSplineSet
Validated: 1
EndChar

StartChar: afii10043
Encoding: 1065 1065 233
Width: 1030
Flags: W
LayerCount: 2
Fore
SplineSet
150 0 m 2,0,1
 129 0 129 0 114.5 14.5 c 128,-1,2
 100 29 100 29 100 50 c 2,3,-1
 100 950 l 2,4,5
 100 971 100 971 114.5 985.5 c 128,-1,6
 129 1000 129 1000 150 1000 c 128,-1,7
 171 1000 171 1000 185.5 985.5 c 128,-1,8
 200 971 200 971 200 950 c 2,9,-1
 200 100 l 1,10,-1
 450 100 l 1,11,-1
 450 950 l 2,12,13
 450 971 450 971 464.5 985.5 c 128,-1,14
 479 1000 479 1000 500 1000 c 128,-1,15
 521 1000 521 1000 535.5 985.5 c 128,-1,16
 550 971 550 971 550 950 c 2,17,-1
 550 100 l 1,18,-1
 800 100 l 1,19,-1
 800 950 l 2,20,21
 800 971 800 971 814.5 985.5 c 128,-1,22
 829 1000 829 1000 850 1000 c 128,-1,23
 871 1000 871 1000 885.5 985.5 c 128,-1,24
 900 971 900 971 900 950 c 2,25,-1
 900 100 l 1,26,-1
 950 100 l 2,27,28
 971 100 971 100 985.5 85.5 c 128,-1,29
 1000 71 1000 71 1000 50 c 2,30,-1
 1000 -150 l 2,31,32
 1000 -171 1000 -171 985.5 -185.5 c 128,-1,33
 971 -200 971 -200 950 -200 c 128,-1,34
 929 -200 929 -200 914.5 -185.5 c 128,-1,35
 900 -171 900 -171 900 -150 c 2,36,-1
 900 0 l 1,37,-1
 150 0 l 2,0,1
EndSplineSet
Validated: 1
EndChar

StartChar: afii10044
Encoding: 1066 1066 234
Width: 910
Flags: W
LayerCount: 2
Fore
SplineSet
80 1000 m 2,0,-1
 280 1000 l 2,1,2
 301 1000 301 1000 315.5 985.5 c 128,-1,3
 330 971 330 971 330 950 c 2,4,-1
 330 600 l 1,5,-1
 530 600 l 2,6,7
 654 600 654 600 742 512 c 128,-1,8
 830 424 830 424 830 300 c 128,-1,9
 830 176 830 176 742 88 c 128,-1,10
 654 0 654 0 530 0 c 2,11,-1
 280 0 l 2,12,13
 259 0 259 0 244.5 14.5 c 128,-1,14
 230 29 230 29 230 50 c 2,15,-1
 230 900 l 1,16,-1
 80 900 l 2,17,18
 59 900 59 900 44.5 914.5 c 128,-1,19
 30 929 30 929 30 950 c 128,-1,20
 30 971 30 971 44.5 985.5 c 128,-1,21
 59 1000 59 1000 80 1000 c 2,0,-1
330 500 m 1,22,-1
 330 100 l 1,23,-1
 530 100 l 2,24,25
 612 100 612 100 671 159 c 128,-1,26
 730 218 730 218 730 300 c 128,-1,27
 730 382 730 382 671 441 c 128,-1,28
 612 500 612 500 530 500 c 2,29,-1
 330 500 l 1,22,-1
EndSplineSet
Validated: 1
EndChar

StartChar: afii10045
Encoding: 1067 1067 235
Width: 900
Flags: W
LayerCount: 2
Fore
SplineSet
150 1000 m 128,-1,1
 171 1000 171 1000 185.5 985.5 c 128,-1,2
 200 971 200 971 200 950 c 2,3,-1
 200 600 l 1,4,-1
 300 600 l 2,5,6
 424 600 424 600 512 512 c 128,-1,7
 600 424 600 424 600 300 c 128,-1,8
 600 176 600 176 512 88 c 128,-1,9
 424 0 424 0 300 0 c 2,10,-1
 150 0 l 2,11,12
 129 0 129 0 114.5 14.5 c 128,-1,13
 100 29 100 29 100 50 c 2,14,-1
 100 950 l 2,15,16
 100 971 100 971 114.5 985.5 c 128,-1,0
 129 1000 129 1000 150 1000 c 128,-1,1
200 500 m 1,17,-1
 200 100 l 1,18,-1
 300 100 l 2,19,20
 382 100 382 100 441 159 c 128,-1,21
 500 218 500 218 500 300 c 128,-1,22
 500 382 500 382 441 441 c 128,-1,23
 382 500 382 500 300 500 c 2,24,-1
 200 500 l 1,17,-1
750 1000 m 128,-1,26
 771 1000 771 1000 785.5 985.5 c 128,-1,27
 800 971 800 971 800 950 c 2,28,-1
 800 50 l 2,29,30
 800 29 800 29 785.5 14.5 c 128,-1,31
 771 0 771 0 750 0 c 128,-1,32
 729 0 729 0 714.5 14.5 c 128,-1,33
 700 29 700 29 700 50 c 2,34,-1
 700 950 l 2,35,36
 700 971 700 971 714.5 985.5 c 128,-1,25
 729 1000 729 1000 750 1000 c 128,-1,26
EndSplineSet
Validated: 1
EndChar

StartChar: afii10046
Encoding: 1068 1068 236
Width: 780
Flags: W
LayerCount: 2
Fore
SplineSet
150 1000 m 128,-1,1
 171 1000 171 1000 185.5 985.5 c 128,-1,2
 200 971 200 971 200 950 c 2,3,-1
 200 600 l 1,4,-1
 400 600 l 2,5,6
 524 600 524 600 612 512 c 128,-1,7
 700 424 700 424 700 300 c 128,-1,8
 700 176 700 176 612 88 c 128,-1,9
 524 0 524 0 400 0 c 2,10,-1
 150 0 l 2,11,12
 129 0 129 0 114.5 14.5 c 128,-1,13
 100 29 100 29 100 50 c 2,14,-1
 100 950 l 2,15,16
 100 971 100 971 114.5 985.5 c 128,-1,0
 129 1000 129 1000 150 1000 c 128,-1,1
200 500 m 1,17,-1
 200 100 l 1,18,-1
 400 100 l 2,19,20
 482 100 482 100 541 159 c 128,-1,21
 600 218 600 218 600 300 c 128,-1,22
 600 382 600 382 541 441 c 128,-1,23
 482 500 482 500 400 500 c 2,24,-1
 200 500 l 1,17,-1
EndSplineSet
Validated: 1
EndChar

StartChar: afii10047
Encoding: 1069 1069 237
Width: 770
Flags: W
LayerCount: 2
Fore
SplineSet
130 1000 m 2,0,-1
 380 1000 l 2,1,2
 504 1000 504 1000 592 912 c 128,-1,3
 680 824 680 824 680 700 c 2,4,-1
 680 300 l 2,5,6
 680 176 680 176 592 88 c 128,-1,7
 504 0 504 0 380 0 c 2,8,-1
 130 0 l 2,9,10
 109 0 109 0 94.5 14.5 c 128,-1,11
 80 29 80 29 80 50 c 128,-1,12
 80 71 80 71 94.5 85.5 c 128,-1,13
 109 100 109 100 130 100 c 2,14,-1
 380 100 l 2,15,16
 462 100 462 100 521 159 c 128,-1,17
 580 218 580 218 580 300 c 2,18,-1
 580 500 l 1,19,-1
 330 500 l 2,20,21
 309 500 309 500 294.5 514.5 c 128,-1,22
 280 529 280 529 280 550 c 128,-1,23
 280 571 280 571 294.5 585.5 c 128,-1,24
 309 600 309 600 330 600 c 2,25,-1
 580 600 l 1,26,-1
 580 700 l 2,27,28
 580 782 580 782 521 841 c 128,-1,29
 462 900 462 900 380 900 c 2,30,-1
 130 900 l 2,31,32
 109 900 109 900 94.5 914.5 c 128,-1,33
 80 929 80 929 80 950 c 128,-1,34
 80 971 80 971 94.5 985.5 c 128,-1,35
 109 1000 109 1000 130 1000 c 2,0,-1
EndSplineSet
Validated: 1
EndChar

StartChar: afii10048
Encoding: 1070 1070 238
Width: 890
Flags: W
LayerCount: 2
Fore
SplineSet
550 1030 m 256,0,1
 654 1030 654 1030 727 957 c 128,-1,2
 800 884 800 884 800 780 c 2,3,-1
 800 220 l 2,4,5
 800 116 800 116 727 43 c 128,-1,6
 654 -30 654 -30 550 -30 c 256,7,8
 446 -30 446 -30 373 43 c 128,-1,9
 300 116 300 116 300 220 c 2,10,-1
 300 500 l 1,11,-1
 200 500 l 1,12,-1
 200 50 l 2,13,14
 200 29 200 29 185.5 14.5 c 128,-1,15
 171 0 171 0 150 0 c 128,-1,16
 129 0 129 0 114.5 14.5 c 128,-1,17
 100 29 100 29 100 50 c 2,18,-1
 100 950 l 2,19,20
 100 971 100 971 114.5 985.5 c 128,-1,21
 129 1000 129 1000 150 1000 c 128,-1,22
 171 1000 171 1000 185.5 985.5 c 128,-1,23
 200 971 200 971 200 950 c 2,24,-1
 200 600 l 1,25,-1
 300 600 l 1,26,-1
 300 780 l 2,27,28
 300 884 300 884 373 957 c 128,-1,29
 446 1030 446 1030 550 1030 c 256,0,1
550 930 m 256,30,31
 488 930 488 930 444 886 c 128,-1,32
 400 842 400 842 400 780 c 2,33,-1
 400 220 l 2,34,35
 400 158 400 158 444 114 c 128,-1,36
 488 70 488 70 550 70 c 256,37,38
 612 70 612 70 656 114 c 128,-1,39
 700 158 700 158 700 220 c 2,40,-1
 700 780 l 2,41,42
 700 842 700 842 656 886 c 128,-1,43
 612 930 612 930 550 930 c 256,30,31
EndSplineSet
Validated: 1
EndChar

StartChar: afii10049
Encoding: 1071 1071 239
Width: 780
Flags: W
LayerCount: 2
Fore
SplineSet
630 1000 m 2,0,1
 651 1000 651 1000 665.5 985.5 c 128,-1,2
 680 971 680 971 680 950 c 2,3,-1
 680 50 l 2,4,5
 680 29 680 29 665.5 14.5 c 128,-1,6
 651 0 651 0 630 0 c 128,-1,7
 609 0 609 0 594.5 14.5 c 128,-1,8
 580 29 580 29 580 50 c 2,9,-1
 580 400 l 1,10,-1
 408 400 l 1,11,-1
 172 24 l 2,12,13
 157 0 157 0 130 0 c 0,14,15
 109 0 109 0 94.5 14.5 c 128,-1,16
 80 29 80 29 80 50 c 0,17,18
 80 63 80 63 88 76 c 2,19,-1
 297 412 l 1,20,21
 202 439 202 439 141 518.5 c 128,-1,22
 80 598 80 598 80 700 c 0,23,24
 80 824 80 824 168 912 c 128,-1,25
 256 1000 256 1000 380 1000 c 2,26,-1
 630 1000 l 2,0,1
580 900 m 1,27,-1
 380 900 l 2,28,29
 298 900 298 900 239 841 c 128,-1,30
 180 782 180 782 180 700 c 128,-1,31
 180 618 180 618 239 559 c 128,-1,32
 298 500 298 500 380 500 c 2,33,-1
 580 500 l 1,34,-1
 580 900 l 1,27,-1
EndSplineSet
Validated: 1
EndChar

StartChar: afii10066
Encoding: 1073 1073 241
Width: 680
Flags: W
LayerCount: 2
Fore
SplineSet
140 1000 m 2,0,-1
 540 1000 l 2,1,2
 561 1000 561 1000 575.5 985.5 c 128,-1,3
 590 971 590 971 590 950 c 128,-1,4
 590 929 590 929 575.5 914.5 c 128,-1,5
 561 900 561 900 540 900 c 2,6,-1
 261 900 l 1,7,-1
 516 648 l 2,8,9
 590 576 590 576 590 470 c 2,10,-1
 590 230 l 2,11,12
 590 126 590 126 517 53 c 128,-1,13
 444 -20 444 -20 340 -20 c 128,-1,14
 236 -20 236 -20 163 53 c 128,-1,15
 90 126 90 126 90 230 c 2,16,-1
 90 470 l 2,17,18
 90 564 90 564 151 633.5 c 128,-1,19
 212 703 212 703 304 717 c 1,20,-1
 105 914 l 2,21,22
 90 929 90 929 90 950 c 128,-1,23
 90 971 90 971 104.5 985.5 c 128,-1,24
 119 1000 119 1000 140 1000 c 2,0,-1
340 620 m 256,25,26
 278 620 278 620 234 576 c 128,-1,27
 190 532 190 532 190 470 c 2,28,-1
 190 230 l 2,29,30
 190 168 190 168 234 124 c 128,-1,31
 278 80 278 80 340 80 c 128,-1,32
 402 80 402 80 446 124 c 128,-1,33
 490 168 490 168 490 230 c 2,34,-1
 490 470 l 2,35,36
 490 532 490 532 446 576 c 128,-1,37
 402 620 402 620 340 620 c 256,25,26
EndSplineSet
Validated: 1
EndChar

StartChar: afii10067
Encoding: 1074 1074 242
Width: 690
Flags: W
LayerCount: 2
Fore
SplineSet
275 1000 m 256,0,1
 348 1000 348 1000 399 949 c 128,-1,2
 450 898 450 898 450 825 c 0,3,4
 450 762 450 762 409 713 c 1,5,6
 492 692 492 692 546 624.5 c 128,-1,7
 600 557 600 557 600 470 c 2,8,-1
 600 230 l 2,9,10
 600 126 600 126 527 53 c 128,-1,11
 454 -20 454 -20 350 -20 c 128,-1,12
 246 -20 246 -20 173 53 c 128,-1,13
 100 126 100 126 100 230 c 2,14,-1
 100 825 l 2,15,16
 100 898 100 898 151 949 c 128,-1,17
 202 1000 202 1000 275 1000 c 256,0,1
275 900 m 256,18,19
 244 900 244 900 222 878 c 128,-1,20
 200 856 200 856 200 825 c 2,21,-1
 200 670 l 1,22,-1
 321 766 l 2,23,24
 350 790 350 790 350 825 c 0,25,26
 350 856 350 856 328 878 c 128,-1,27
 306 900 306 900 275 900 c 256,18,19
350 620 m 256,28,29
 288 620 288 620 244 576 c 128,-1,30
 200 532 200 532 200 470 c 2,31,-1
 200 230 l 2,32,33
 200 168 200 168 244 124 c 128,-1,34
 288 80 288 80 350 80 c 128,-1,35
 412 80 412 80 456 124 c 128,-1,36
 500 168 500 168 500 230 c 2,37,-1
 500 470 l 2,38,39
 500 532 500 532 456 576 c 128,-1,40
 412 620 412 620 350 620 c 256,28,29
EndSplineSet
Validated: 1
EndChar

StartChar: afii10068
Encoding: 1075 1075 243
Width: 680
Flags: W
LayerCount: 2
Fore
SplineSet
340 720 m 0,0,1
 446 720 446 720 504 689 c 0,2,3
 542 669 542 669 566 632 c 128,-1,4
 590 595 590 595 590 550 c 0,5,6
 590 504 590 504 566.5 467 c 128,-1,7
 543 430 543 430 507 408 c 2,8,-1
 237 238 l 2,9,10
 210 221 210 221 200 208 c 128,-1,11
 190 195 190 195 190 170 c 0,12,13
 190 80 190 80 340 80 c 0,14,15
 427 80 427 80 514 143 c 0,16,17
 526 150 526 150 540 150 c 0,18,19
 561 150 561 150 575.5 135.5 c 128,-1,20
 590 121 590 121 590 100 c 128,-1,21
 590 79 590 79 574 63 c 0,22,23
 530 24 530 24 465 2 c 128,-1,24
 400 -20 400 -20 340 -20 c 0,25,26
 215 -20 215 -20 152.5 29 c 128,-1,27
 90 78 90 78 90 170 c 0,28,29
 90 218 90 218 116 257 c 128,-1,30
 142 296 142 296 183 322 c 2,31,-1
 453 492 l 2,32,33
 477 507 477 507 483.5 516.5 c 128,-1,34
 490 526 490 526 490 550 c 0,35,36
 490 572 490 572 484 581.5 c 128,-1,37
 478 591 478 591 459 600 c 0,38,39
 419 620 419 620 340 620 c 0,40,41
 231 620 231 620 196 585 c 0,42,43
 181 570 181 570 160 570 c 128,-1,44
 139 570 139 570 124.5 584.5 c 128,-1,45
 110 599 110 599 110 620 c 128,-1,46
 110 641 110 641 126 657 c 0,47,48
 189 720 189 720 340 720 c 0,0,1
EndSplineSet
Validated: 1
EndChar

StartChar: afii10069
Encoding: 1076 1076 244
Width: 690
Flags: W
LayerCount: 2
Fore
SplineSet
240 1000 m 2,0,-1
 390 1000 l 2,1,2
 472 1000 472 1000 531 941 c 128,-1,3
 590 882 590 882 590 800 c 2,4,-1
 590 230 l 2,5,6
 590 126 590 126 517 53 c 128,-1,7
 444 -20 444 -20 340 -20 c 128,-1,8
 236 -20 236 -20 163 53 c 128,-1,9
 90 126 90 126 90 230 c 2,10,-1
 90 500 l 2,11,12
 90 582 90 582 149 641 c 128,-1,13
 208 700 208 700 290 700 c 2,14,-1
 490 700 l 1,15,-1
 490 800 l 2,16,17
 490 841 490 841 460.5 870.5 c 128,-1,18
 431 900 431 900 390 900 c 2,19,-1
 240 900 l 2,20,21
 219 900 219 900 204.5 914.5 c 128,-1,22
 190 929 190 929 190 950 c 128,-1,23
 190 971 190 971 204.5 985.5 c 128,-1,24
 219 1000 219 1000 240 1000 c 2,0,-1
290 600 m 2,25,26
 249 600 249 600 219.5 570.5 c 128,-1,27
 190 541 190 541 190 500 c 2,28,-1
 190 230 l 2,29,30
 190 168 190 168 234 124 c 128,-1,31
 278 80 278 80 340 80 c 128,-1,32
 402 80 402 80 446 124 c 128,-1,33
 490 168 490 168 490 230 c 2,34,-1
 490 600 l 1,35,-1
 290 600 l 2,25,26
EndSplineSet
Validated: 1
EndChar

StartChar: afii10072
Encoding: 1078 1078 246
Width: 840
Flags: W
LayerCount: 2
Fore
SplineSet
120 700 m 0,0,1
 145 700 145 700 159 681 c 2,2,-1
 370 412 l 1,3,-1
 370 650 l 2,4,5
 370 671 370 671 384.5 685.5 c 128,-1,6
 399 700 399 700 420 700 c 128,-1,7
 441 700 441 700 455.5 685.5 c 128,-1,8
 470 671 470 671 470 650 c 2,9,-1
 470 412 l 1,10,-1
 681 681 l 2,11,12
 695 700 695 700 720 700 c 0,13,14
 741 700 741 700 755.5 685.5 c 128,-1,15
 770 671 770 671 770 650 c 0,16,17
 770 633 770 633 759 619 c 2,18,-1
 548 350 l 1,19,-1
 759 81 l 2,20,21
 770 67 770 67 770 50 c 0,22,23
 770 29 770 29 755.5 14.5 c 128,-1,24
 741 0 741 0 720 0 c 0,25,26
 695 0 695 0 681 19 c 2,27,-1
 470 288 l 1,28,-1
 470 50 l 2,29,30
 470 29 470 29 455.5 14.5 c 128,-1,31
 441 0 441 0 420 0 c 128,-1,32
 399 0 399 0 384.5 14.5 c 128,-1,33
 370 29 370 29 370 50 c 2,34,-1
 370 288 l 1,35,-1
 159 19 l 2,36,37
 145 0 145 0 120 0 c 0,38,39
 99 0 99 0 84.5 14.5 c 128,-1,40
 70 29 70 29 70 50 c 0,41,42
 70 67 70 67 81 81 c 2,43,-1
 292 350 l 1,44,-1
 81 619 l 2,45,46
 70 633 70 633 70 650 c 0,47,48
 70 671 70 671 84.5 685.5 c 128,-1,49
 99 700 99 700 120 700 c 0,0,1
EndSplineSet
Validated: 1
EndChar

StartChar: afii10073
Encoding: 1079 1079 247
Width: 570
Flags: W
LayerCount: 2
Fore
SplineSet
290 720 m 0,0,1
 377 720 377 720 438.5 658.5 c 128,-1,2
 500 597 500 597 500 510 c 0,3,4
 500 414 500 414 426 350 c 1,5,6
 500 286 500 286 500 190 c 0,7,8
 500 103 500 103 432.5 41.5 c 128,-1,9
 365 -20 365 -20 270 -20 c 0,10,11
 147 -20 147 -20 65 65 c 0,12,13
 50 80 50 80 50 100 c 0,14,15
 50 121 50 121 64.5 135.5 c 128,-1,16
 79 150 79 150 100 150 c 128,-1,17
 121 150 121 150 136 135 c 0,18,19
 166 104 166 104 193 92 c 128,-1,20
 220 80 220 80 270 80 c 0,21,22
 331 80 331 80 365.5 111 c 128,-1,23
 400 142 400 142 400 190 c 0,24,25
 400 236 400 236 368 268 c 128,-1,26
 336 300 336 300 290 300 c 2,27,-1
 250 300 l 2,28,29
 229 300 229 300 214.5 314.5 c 128,-1,30
 200 329 200 329 200 350 c 128,-1,31
 200 371 200 371 214.5 385.5 c 128,-1,32
 229 400 229 400 250 400 c 2,33,-1
 290 400 l 2,34,35
 336 400 336 400 368 432 c 128,-1,36
 400 464 400 464 400 510 c 128,-1,37
 400 556 400 556 368 588 c 128,-1,38
 336 620 336 620 290 620 c 0,39,40
 253 620 253 620 232.5 610 c 128,-1,41
 212 600 212 600 190 571 c 0,42,43
 174 550 174 550 150 550 c 0,44,45
 129 550 129 550 114.5 564.5 c 128,-1,46
 100 579 100 579 100 600 c 0,47,48
 100 617 100 617 110 630 c 0,49,50
 177 720 177 720 290 720 c 0,0,1
EndSplineSet
Validated: 1
EndChar

StartChar: afii10075
Encoding: 1081 1081 249
Width: 700
Flags: W
LayerCount: 2
Fore
SplineSet
200 200 m 2,0,1
 200 159 200 159 229 129.5 c 128,-1,2
 258 100 258 100 300 100 c 2,3,-1
 500 100 l 1,4,-1
 500 650 l 2,5,6
 500 671 500 671 514.5 685.5 c 128,-1,7
 529 700 529 700 550 700 c 128,-1,8
 571 700 571 700 585.5 685.5 c 128,-1,9
 600 671 600 671 600 650 c 2,10,-1
 600 50 l 2,11,12
 600 29 600 29 585.5 14.5 c 128,-1,13
 571 0 571 0 550 0 c 2,14,-1
 300 0 l 2,15,16
 218 0 218 0 159 59 c 128,-1,17
 100 118 100 118 100 200 c 2,18,-1
 100 650 l 2,19,20
 100 671 100 671 114.5 685.5 c 128,-1,21
 129 700 129 700 150 700 c 128,-1,22
 171 700 171 700 185.5 685.5 c 128,-1,23
 200 671 200 671 200 650 c 2,24,-1
 200 200 l 2,0,1
250 1000 m 2,25,-1
 450 1000 l 2,26,27
 471 1000 471 1000 485.5 985.5 c 128,-1,28
 500 971 500 971 500 950 c 128,-1,29
 500 929 500 929 485.5 914.5 c 128,-1,30
 471 900 471 900 450 900 c 2,31,-1
 250 900 l 2,32,33
 229 900 229 900 214.5 914.5 c 128,-1,34
 200 929 200 929 200 950 c 128,-1,35
 200 971 200 971 214.5 985.5 c 128,-1,36
 229 1000 229 1000 250 1000 c 2,25,-1
EndSplineSet
Validated: 1
EndChar

StartChar: afii10076
Encoding: 1082 1082 250
Width: 680
Flags: W
LayerCount: 2
Fore
SplineSet
600 50 m 0,0,1
 600 30 600 30 586 15 c 128,-1,2
 572 0 572 0 550 0 c 0,3,4
 519 0 519 0 505 28 c 2,5,-1
 336 366 l 1,6,-1
 200 229 l 1,7,-1
 200 50 l 2,8,9
 200 29 200 29 185.5 14.5 c 128,-1,10
 171 0 171 0 150 0 c 128,-1,11
 129 0 129 0 114.5 14.5 c 128,-1,12
 100 29 100 29 100 50 c 2,13,-1
 100 650 l 2,14,15
 100 671 100 671 114.5 685.5 c 128,-1,16
 129 700 129 700 150 700 c 128,-1,17
 171 700 171 700 185.5 685.5 c 128,-1,18
 200 671 200 671 200 650 c 2,19,-1
 200 371 l 1,20,-1
 515 685 l 2,21,22
 530 700 530 700 550 700 c 128,-1,23
 570 700 570 700 585 685 c 128,-1,24
 600 670 600 670 600 650 c 128,-1,25
 600 630 600 630 585 615 c 2,26,-1
 411 440 l 1,27,-1
 595 72 l 2,28,29
 600 63 600 63 600 50 c 0,0,1
EndSplineSet
Validated: 1
EndChar

StartChar: afii10077
Encoding: 1083 1083 251
Width: 650
Flags: W
LayerCount: 2
Fore
SplineSet
252 665 m 2,0,1
 264 700 264 700 300 700 c 2,2,-1
 500 700 l 2,3,4
 521 700 521 700 535.5 685.5 c 128,-1,5
 550 671 550 671 550 650 c 2,6,-1
 550 50 l 2,7,8
 550 29 550 29 535.5 14.5 c 128,-1,9
 521 0 521 0 500 0 c 128,-1,10
 479 0 479 0 464.5 14.5 c 128,-1,11
 450 29 450 29 450 50 c 2,12,-1
 450 600 l 1,13,-1
 336 600 l 1,14,-1
 147 34 l 2,15,16
 136 0 136 0 100 0 c 0,17,18
 78 0 78 0 64 15 c 128,-1,19
 50 30 50 30 50 50 c 0,20,21
 50 58 50 58 53 66 c 2,22,-1
 252 665 l 2,0,1
EndSplineSet
Validated: 1
EndChar

StartChar: afii10078
Encoding: 1084 1084 252
Width: 800
Flags: W
LayerCount: 2
Fore
SplineSet
200 494 m 1,0,-1
 200 50 l 2,1,2
 200 29 200 29 185.5 14.5 c 128,-1,3
 171 0 171 0 150 0 c 128,-1,4
 129 0 129 0 114.5 14.5 c 128,-1,5
 100 29 100 29 100 50 c 2,6,-1
 100 650 l 2,7,8
 100 671 100 671 114.5 685.5 c 128,-1,9
 129 700 129 700 150 700 c 0,10,11
 176 700 176 700 194 675 c 2,12,-1
 400 386 l 1,13,-1
 606 675 l 2,14,15
 624 700 624 700 650 700 c 0,16,17
 671 700 671 700 685.5 685.5 c 128,-1,18
 700 671 700 671 700 650 c 2,19,-1
 700 50 l 2,20,21
 700 29 700 29 685.5 14.5 c 128,-1,22
 671 0 671 0 650 0 c 128,-1,23
 629 0 629 0 614.5 14.5 c 128,-1,24
 600 29 600 29 600 50 c 2,25,-1
 600 494 l 1,26,-1
 443 274 l 2,27,28
 429 250 429 250 400 250 c 128,-1,29
 371 250 371 250 357 274 c 2,30,-1
 200 494 l 1,0,-1
EndSplineSet
Validated: 1
EndChar

StartChar: afii10079
Encoding: 1085 1085 253
Width: 700
Flags: W
LayerCount: 2
Fore
SplineSet
150 700 m 128,-1,1
 171 700 171 700 185.5 685.5 c 128,-1,2
 200 671 200 671 200 650 c 2,3,-1
 200 400 l 1,4,-1
 500 400 l 1,5,-1
 500 650 l 2,6,7
 500 671 500 671 514.5 685.5 c 128,-1,8
 529 700 529 700 550 700 c 128,-1,9
 571 700 571 700 585.5 685.5 c 128,-1,10
 600 671 600 671 600 650 c 2,11,-1
 600 50 l 2,12,13
 600 29 600 29 585.5 14.5 c 128,-1,14
 571 0 571 0 550 0 c 128,-1,15
 529 0 529 0 514.5 14.5 c 128,-1,16
 500 29 500 29 500 50 c 2,17,-1
 500 300 l 1,18,-1
 200 300 l 1,19,-1
 200 50 l 2,20,21
 200 29 200 29 185.5 14.5 c 128,-1,22
 171 0 171 0 150 0 c 128,-1,23
 129 0 129 0 114.5 14.5 c 128,-1,24
 100 29 100 29 100 50 c 2,25,-1
 100 650 l 2,26,27
 100 671 100 671 114.5 685.5 c 128,-1,0
 129 700 129 700 150 700 c 128,-1,1
EndSplineSet
Validated: 1
EndChar

StartChar: afii10085
Encoding: 1091 1091 259
Width: 700
Flags: W
LayerCount: 2
Fore
SplineSet
500 650 m 2,0,1
 500 671 500 671 514.5 685.5 c 128,-1,2
 529 700 529 700 550 700 c 128,-1,3
 571 700 571 700 585.5 685.5 c 128,-1,4
 600 671 600 671 600 650 c 2,5,-1
 600 -100 l 2,6,7
 600 -183 600 -183 541.5 -241.5 c 128,-1,8
 483 -300 483 -300 400 -300 c 2,9,-1
 200 -300 l 2,10,11
 179 -300 179 -300 164.5 -285.5 c 128,-1,12
 150 -271 150 -271 150 -250 c 128,-1,13
 150 -229 150 -229 164.5 -214.5 c 128,-1,14
 179 -200 179 -200 200 -200 c 2,15,-1
 400 -200 l 2,16,17
 442 -200 442 -200 471 -171 c 128,-1,18
 500 -142 500 -142 500 -100 c 2,19,-1
 500 0 l 1,20,-1
 300 0 l 2,21,22
 217 0 217 0 158.5 58.5 c 128,-1,23
 100 117 100 117 100 200 c 2,24,-1
 100 650 l 2,25,26
 100 671 100 671 114.5 685.5 c 128,-1,27
 129 700 129 700 150 700 c 128,-1,28
 171 700 171 700 185.5 685.5 c 128,-1,29
 200 671 200 671 200 650 c 2,30,-1
 200 200 l 2,31,32
 200 158 200 158 229 129 c 128,-1,33
 258 100 258 100 300 100 c 2,34,-1
 500 100 l 1,35,-1
 500 650 l 2,0,1
EndSplineSet
Validated: 1
EndChar

StartChar: afii10086
Encoding: 1092 1092 260
Width: 860
Flags: W
LayerCount: 2
Fore
SplineSet
430 900 m 128,-1,1
 451 900 451 900 465.5 885.5 c 128,-1,2
 480 871 480 871 480 850 c 2,3,-1
 480 700 l 1,4,5
 604 700 604 700 692 612 c 128,-1,6
 780 524 780 524 780 400 c 2,7,-1
 780 300 l 2,8,9
 780 176 780 176 692 88 c 128,-1,10
 604 0 604 0 480 0 c 1,11,-1
 480 -250 l 2,12,13
 480 -271 480 -271 465.5 -285.5 c 128,-1,14
 451 -300 451 -300 430 -300 c 128,-1,15
 409 -300 409 -300 394.5 -285.5 c 128,-1,16
 380 -271 380 -271 380 -250 c 2,17,-1
 380 0 l 1,18,19
 256 0 256 0 168 88 c 128,-1,20
 80 176 80 176 80 300 c 2,21,-1
 80 400 l 2,22,23
 80 524 80 524 168 612 c 128,-1,24
 256 700 256 700 380 700 c 1,25,-1
 380 850 l 2,26,27
 380 871 380 871 394.5 885.5 c 128,-1,0
 409 900 409 900 430 900 c 128,-1,1
380 600 m 1,28,29
 298 600 298 600 239 541 c 128,-1,30
 180 482 180 482 180 400 c 2,31,-1
 180 300 l 2,32,33
 180 218 180 218 239 159 c 128,-1,34
 298 100 298 100 380 100 c 1,35,-1
 380 600 l 1,28,29
480 600 m 1,36,-1
 480 100 l 1,37,38
 562 100 562 100 621 159 c 128,-1,39
 680 218 680 218 680 300 c 2,40,-1
 680 400 l 2,41,42
 680 482 680 482 621 541 c 128,-1,43
 562 600 562 600 480 600 c 1,36,-1
EndSplineSet
Validated: 1
EndChar

StartChar: afii10088
Encoding: 1094 1094 262
Width: 730
Flags: W
LayerCount: 2
Fore
SplineSet
600 100 m 1,0,-1
 650 100 l 2,1,2
 671 100 671 100 685.5 85.5 c 128,-1,3
 700 71 700 71 700 50 c 2,4,-1
 700 -100 l 2,5,6
 700 -121 700 -121 685.5 -135.5 c 128,-1,7
 671 -150 671 -150 650 -150 c 128,-1,8
 629 -150 629 -150 614.5 -135.5 c 128,-1,9
 600 -121 600 -121 600 -100 c 2,10,-1
 600 0 l 1,11,-1
 300 0 l 2,12,13
 218 0 218 0 159 59 c 128,-1,14
 100 118 100 118 100 200 c 2,15,-1
 100 650 l 2,16,17
 100 671 100 671 114.5 685.5 c 128,-1,18
 129 700 129 700 150 700 c 128,-1,19
 171 700 171 700 185.5 685.5 c 128,-1,20
 200 671 200 671 200 650 c 2,21,-1
 200 200 l 2,22,23
 200 159 200 159 229 129.5 c 128,-1,24
 258 100 258 100 300 100 c 2,25,-1
 500 100 l 1,26,-1
 500 650 l 2,27,28
 500 671 500 671 514.5 685.5 c 128,-1,29
 529 700 529 700 550 700 c 128,-1,30
 571 700 571 700 585.5 685.5 c 128,-1,31
 600 671 600 671 600 650 c 2,32,-1
 600 100 l 1,0,-1
EndSplineSet
Validated: 1
EndChar

StartChar: afii10089
Encoding: 1095 1095 263
Width: 690
Flags: W
LayerCount: 2
Fore
SplineSet
490 300 m 1,0,-1
 290 300 l 2,1,2
 208 300 208 300 149 359 c 128,-1,3
 90 418 90 418 90 500 c 2,4,-1
 90 650 l 2,5,6
 90 671 90 671 104.5 685.5 c 128,-1,7
 119 700 119 700 140 700 c 128,-1,8
 161 700 161 700 175.5 685.5 c 128,-1,9
 190 671 190 671 190 650 c 2,10,-1
 190 500 l 2,11,12
 190 459 190 459 219 429.5 c 128,-1,13
 248 400 248 400 290 400 c 2,14,-1
 490 400 l 1,15,-1
 490 650 l 2,16,17
 490 671 490 671 504.5 685.5 c 128,-1,18
 519 700 519 700 540 700 c 128,-1,19
 561 700 561 700 575.5 685.5 c 128,-1,20
 590 671 590 671 590 650 c 2,21,-1
 590 50 l 2,22,23
 590 29 590 29 575.5 14.5 c 128,-1,24
 561 0 561 0 540 0 c 128,-1,25
 519 0 519 0 504.5 14.5 c 128,-1,26
 490 29 490 29 490 50 c 2,27,-1
 490 300 l 1,0,-1
EndSplineSet
Validated: 1
EndChar

StartChar: afii10091
Encoding: 1097 1097 265
Width: 930
Flags: W
LayerCount: 2
Fore
SplineSet
800 100 m 1,0,-1
 850 100 l 2,1,2
 871 100 871 100 885.5 85.5 c 128,-1,3
 900 71 900 71 900 50 c 2,4,-1
 900 -100 l 2,5,6
 900 -121 900 -121 885.5 -135.5 c 128,-1,7
 871 -150 871 -150 850 -150 c 128,-1,8
 829 -150 829 -150 814.5 -135.5 c 128,-1,9
 800 -121 800 -121 800 -100 c 2,10,-1
 800 0 l 1,11,-1
 300 0 l 2,12,13
 218 0 218 0 159 59 c 128,-1,14
 100 118 100 118 100 200 c 2,15,-1
 100 650 l 2,16,17
 100 671 100 671 114.5 685.5 c 128,-1,18
 129 700 129 700 150 700 c 128,-1,19
 171 700 171 700 185.5 685.5 c 128,-1,20
 200 671 200 671 200 650 c 2,21,-1
 200 200 l 2,22,23
 200 159 200 159 229 129.5 c 128,-1,24
 258 100 258 100 300 100 c 2,25,-1
 400 100 l 1,26,-1
 400 650 l 2,27,28
 400 671 400 671 414.5 685.5 c 128,-1,29
 429 700 429 700 450 700 c 128,-1,30
 471 700 471 700 485.5 685.5 c 128,-1,31
 500 671 500 671 500 650 c 2,32,-1
 500 100 l 1,33,-1
 700 100 l 1,34,-1
 700 650 l 2,35,36
 700 671 700 671 714.5 685.5 c 128,-1,37
 729 700 729 700 750 700 c 128,-1,38
 771 700 771 700 785.5 685.5 c 128,-1,39
 800 671 800 671 800 650 c 2,40,-1
 800 100 l 1,0,-1
EndSplineSet
Validated: 1
EndChar

StartChar: afii10092
Encoding: 1098 1098 266
Width: 700
Flags: W
LayerCount: 2
Fore
SplineSet
530 200 m 256,0,1
 530 242 530 242 501 271 c 128,-1,2
 472 300 472 300 430 300 c 2,3,-1
 230 300 l 1,4,-1
 230 100 l 1,5,-1
 430 100 l 2,6,7
 472 100 472 100 501 129 c 128,-1,8
 530 158 530 158 530 200 c 256,0,1
630 200 m 256,9,10
 630 117 630 117 571.5 58.5 c 128,-1,11
 513 0 513 0 430 0 c 2,12,-1
 180 0 l 2,13,14
 157 0 157 0 143.5 14 c 128,-1,15
 130 28 130 28 130 50 c 2,16,-1
 130 600 l 1,17,-1
 80 600 l 2,18,19
 59 600 59 600 44.5 614.5 c 128,-1,20
 30 629 30 629 30 650 c 128,-1,21
 30 671 30 671 44.5 685.5 c 128,-1,22
 59 700 59 700 80 700 c 2,23,-1
 180 700 l 2,24,25
 201 700 201 700 215.5 685.5 c 128,-1,26
 230 671 230 671 230 650 c 2,27,-1
 230 400 l 1,28,-1
 430 400 l 2,29,30
 513 400 513 400 571.5 341.5 c 128,-1,31
 630 283 630 283 630 200 c 256,9,10
EndSplineSet
Validated: 1
EndChar

StartChar: afii10093
Encoding: 1099 1099 267
Width: 800
Flags: W
LayerCount: 2
Fore
SplineSet
600 50 m 2,0,-1
 600 650 l 2,1,2
 600 671 600 671 614.5 685.5 c 128,-1,3
 629 700 629 700 650 700 c 128,-1,4
 671 700 671 700 685.5 685.5 c 128,-1,5
 700 671 700 671 700 650 c 2,6,-1
 700 50 l 2,7,8
 700 29 700 29 685.5 14.5 c 128,-1,9
 671 0 671 0 650 0 c 128,-1,10
 629 0 629 0 614.5 14.5 c 128,-1,11
 600 29 600 29 600 50 c 2,0,-1
500 200 m 256,12,13
 500 117 500 117 441.5 58.5 c 128,-1,14
 383 0 383 0 300 0 c 2,15,-1
 150 0 l 2,16,17
 127 0 127 0 113.5 14 c 128,-1,18
 100 28 100 28 100 50 c 2,19,-1
 100 650 l 2,20,21
 100 671 100 671 114.5 685.5 c 128,-1,22
 129 700 129 700 150 700 c 128,-1,23
 171 700 171 700 185.5 685.5 c 128,-1,24
 200 671 200 671 200 650 c 2,25,-1
 200 400 l 1,26,-1
 300 400 l 2,27,28
 383 400 383 400 441.5 341.5 c 128,-1,29
 500 283 500 283 500 200 c 256,12,13
400 200 m 256,30,31
 400 242 400 242 371 271 c 128,-1,32
 342 300 342 300 300 300 c 2,33,-1
 200 300 l 1,34,-1
 200 100 l 1,35,-1
 300 100 l 2,36,37
 342 100 342 100 371 129 c 128,-1,38
 400 158 400 158 400 200 c 256,30,31
EndSplineSet
Validated: 1
EndChar

StartChar: afii10094
Encoding: 1100 1100 268
Width: 670
Flags: W
LayerCount: 2
Fore
SplineSet
600 200 m 256,0,1
 600 117 600 117 541.5 58.5 c 128,-1,2
 483 0 483 0 400 0 c 2,3,-1
 150 0 l 2,4,5
 127 0 127 0 113.5 14 c 128,-1,6
 100 28 100 28 100 50 c 2,7,-1
 100 650 l 2,8,9
 100 671 100 671 114.5 685.5 c 128,-1,10
 129 700 129 700 150 700 c 128,-1,11
 171 700 171 700 185.5 685.5 c 128,-1,12
 200 671 200 671 200 650 c 2,13,-1
 200 400 l 1,14,-1
 400 400 l 2,15,16
 483 400 483 400 541.5 341.5 c 128,-1,17
 600 283 600 283 600 200 c 256,0,1
500 200 m 256,18,19
 500 242 500 242 471 271 c 128,-1,20
 442 300 442 300 400 300 c 2,21,-1
 200 300 l 1,22,-1
 200 100 l 1,23,-1
 400 100 l 2,24,25
 442 100 442 100 471 129 c 128,-1,26
 500 158 500 158 500 200 c 256,18,19
EndSplineSet
Validated: 1
EndChar

StartChar: afii10095
Encoding: 1101 1101 269
Width: 670
Flags: W
LayerCount: 2
Fore
SplineSet
480 500 m 2,0,1
 480 542 480 542 451 571 c 128,-1,2
 422 600 422 600 380 600 c 2,3,-1
 130 600 l 2,4,5
 109 600 109 600 94.5 614.5 c 128,-1,6
 80 629 80 629 80 650 c 128,-1,7
 80 671 80 671 94.5 685.5 c 128,-1,8
 109 700 109 700 130 700 c 2,9,-1
 380 700 l 2,10,11
 463 700 463 700 521.5 641.5 c 128,-1,12
 580 583 580 583 580 500 c 2,13,-1
 580 200 l 2,14,15
 580 117 580 117 521.5 58.5 c 128,-1,16
 463 0 463 0 380 0 c 2,17,-1
 130 0 l 2,18,19
 109 0 109 0 94.5 14.5 c 128,-1,20
 80 29 80 29 80 50 c 128,-1,21
 80 71 80 71 94.5 85.5 c 128,-1,22
 109 100 109 100 130 100 c 2,23,-1
 380 100 l 2,24,25
 422 100 422 100 451 129 c 128,-1,26
 480 158 480 158 480 200 c 2,27,-1
 480 300 l 1,28,-1
 330 300 l 2,29,30
 309 300 309 300 294.5 314.5 c 128,-1,31
 280 329 280 329 280 350 c 128,-1,32
 280 371 280 371 294.5 385.5 c 128,-1,33
 309 400 309 400 330 400 c 2,34,-1
 480 400 l 1,35,-1
 480 500 l 2,0,1
EndSplineSet
Validated: 1
EndChar

